<?xml version="1.0" standalone="no"?><!DOCTYPE svg PUBLIC "-//W3C//DTD SVG 1.1//EN" "http://www.w3.org/Graphics/SVG/1.1/DTD/svg11.dtd" ><svg xmlns="http://www.w3.org/2000/svg"><metadata></metadata><defs><font id="3.303;UKWN;CormorantSC-SemiBold" horiz-adv-x="1302"><font-face font-family="Cormorant SC SemiBold" font-weight="600" font-stretch="normal" units-per-em="1000" panose-1="0 0 7 0 0 0 0 0 0 0" ascent="924" descent="-287" x-height="0" bbox="-367 -283 1453 935" underline-thickness="50" underline-position="-75" unicode-range="U+0020-a729" /><missing-glyph horiz-adv-x="501" d="M94 -275 l0 1000 l317 0 l0 -1000 l-317 0 ZM168 626 l65 0 l0 -38 l-66 0 l0 -32 l166 0 l0 32 l-66 0 l0 38 l66 0 l0 32 l-165 0 l0 -32 ZM167 426 l166 0 l0 34 l-66 0 l0 69 l-100 0 l0 -103 ZM200 460 l0 35 l33 0 l0 -35 l-33 0 ZM167 365 l66 0 l0 -36 l-66 0 l0 -34 l100 0 l0 70 l66 0 l0 33 l-166 0 l0 -33 ZM301 273 l-134 0 l0 -34 l166 0 l0 99 l-32 0 l0 -65 ZM233 160 l34 0 l0 24 l34 0 l0 -48 l-101 0 l0 80 l-33 0 l0 -113 l166 0 l0 113 l-100 0 l0 -56 ZM167 -70 l166 0 l0 113 l-166 0 l0 -113 ZM200 -37 l0 48 l101 0 l0 -48 l-101 0 ZM167 -126 l70 0 l-70 -47 l0 -33 l166 0 l0 33 l-101 0 l69 47 l32 0 l0 34 l-166 0 l0 -34 Z" /><glyph glyph-name="space" unicode=" " d="" /><glyph glyph-name="A" unicode="a" d="M711 12 q5 0 5 -6 q0 -6 -5 -6 q-19 0 -61 2 q-42 2 -61 2 q-25 0 -59 -2 q-34 -2 -53 -2 q-4 0 -4 6 q0 6 4 6 q29 0 42.5 6.5 q13.5 6.5 13.5 21.5 q0 15 -17 51 l-108 219 l-181 0 l-77 -173 q-13 -30 -13 -54 q0 -35 25 -53 q25 -18 70 -18 q5 0 5 -6 q0 -6 -5 -6 q-18 0 -52 2 q-38 2 -66 2 q-27 0 -63 -2 q-32 -2 -53 -2 q-5 0 -5 6 q0 6 5 6 q28 0 47 11 q19 11 37 39.5 q18 28.5 43 84.5 l215 484 q2 3 9 3 q7 0 8 -3 l245 -494 q35 -72 58.5 -98.5 q23.5 -26.5 50.5 -26.5 ZM238 335 l158 0 l-83 168 l-75 -168 Z" /><glyph glyph-name="Aacute" unicode="á" d="M251 678 q-4 0 -5 4.5 q-1 4.5 2 6.5 q32 19 88 63 q46 35 50 38 q5 4 32 -4 q27 -8 47.5 -18 q20.5 -10 9.5 -12 q-62 -15 -113.5 -33.5 q-51.5 -18.5 -108.5 -43.5 l-2 -1 ZM711 12 q5 0 5 -6 q0 -6 -5 -6 q-19 0 -61 2 q-42 2 -61 2 q-25 0 -59 -2 q-34 -2 -53 -2 q-4 0 -4 6 q0 6 4 6 q29 0 42.5 6.5 q13.5 6.5 13.5 21.5 q0 15 -17 51 l-108 219 l-181 0 l-77 -173 q-13 -30 -13 -54 q0 -35 25 -53 q25 -18 70 -18 q5 0 5 -6 q0 -6 -5 -6 q-18 0 -52 2 q-38 2 -66 2 q-27 0 -63 -2 q-32 -2 -53 -2 q-5 0 -5 6 q0 6 5 6 q28 0 47 11 q19 11 37 39.5 q18 28.5 43 84.5 l215 484 q2 3 9 3 q7 0 8 -3 l245 -494 q35 -72 58.5 -98.5 q23.5 -26.5 50.5 -26.5 ZM238 335 l158 0 l-83 168 l-75 -168 Z" /><glyph glyph-name="Abreve" unicode="&#x102;" d="M350 690 q-48 0 -74.5 31 q-26.5 31 -28.5 89 q0 4 5 4 q5 0 6 -2 q2 -21 29 -38.5 q27 -17.5 63 -17.5 q35 0 62 17.5 q27 17.5 29 38.5 q0 3 5.5 2.5 q5.5 -0.5 5.5 -4.5 q-2 -58 -28 -89 q-26 -31 -74 -31 ZM711 12 q5 0 5 -6 q0 -6 -5 -6 q-19 0 -61 2 q-42 2 -61 2 q-25 0 -59 -2 q-34 -2 -53 -2 q-4 0 -4 6 q0 6 4 6 q29 0 42.5 6.5 q13.5 6.5 13.5 21.5 q0 15 -17 51 l-108 219 l-181 0 l-77 -173 q-13 -30 -13 -54 q0 -35 25 -53 q25 -18 70 -18 q5 0 5 -6 q0 -6 -5 -6 q-18 0 -52 2 q-38 2 -66 2 q-27 0 -63 -2 q-32 -2 -53 -2 q-5 0 -5 6 q0 6 5 6 q28 0 47 11 q19 11 37 39.5 q18 28.5 43 84.5 l215 484 q2 3 9 3 q7 0 8 -3 l245 -494 q35 -72 58.5 -98.5 q23.5 -26.5 50.5 -26.5 ZM238 335 l158 0 l-83 168 l-75 -168 Z" /><glyph glyph-name="uni1EAE" unicode="&#x1eae;" d="M292 770 q-1 -1 -3 -1 q-3 0 -5 4 q-2 4 0 6 q36 50 64 102 q3 5 30 -2 q27 -7 48.5 -18 q21.5 -11 11.5 -14 q-41 -15 -74.5 -33.5 q-33.5 -18.5 -71.5 -43.5 ZM350 664 q-48 0 -74.5 30.5 q-26.5 30.5 -28.5 88.5 q0 4 5 4.5 q5 0.5 6 -2.5 q2 -22 29 -39 q27 -17 63 -17 q35 0 62 17 q27 17 29 39 q0 2 4 2 q7 0 7 -4 q-2 -58 -28 -88.5 q-26 -30.5 -74 -30.5 ZM711 12 q5 0 5 -6 q0 -6 -5 -6 q-19 0 -61 2 q-42 2 -61 2 q-25 0 -59 -2 q-34 -2 -53 -2 q-4 0 -4 6 q0 6 4 6 q29 0 42.5 6.5 q13.5 6.5 13.5 21.5 q0 15 -17 51 l-108 219 l-181 0 l-77 -173 q-13 -30 -13 -54 q0 -35 25 -53 q25 -18 70 -18 q5 0 5 -6 q0 -6 -5 -6 q-18 0 -52 2 q-38 2 -66 2 q-27 0 -63 -2 q-32 -2 -53 -2 q-5 0 -5 6 q0 6 5 6 q28 0 47 11 q19 11 37 39.5 q18 28.5 43 84.5 l215 484 q2 3 9 3 q7 0 8 -3 l245 -494 q35 -72 58.5 -98.5 q23.5 -26.5 50.5 -26.5 ZM238 335 l158 0 l-83 168 l-75 -168 Z" /><glyph glyph-name="uni1EB6" unicode="&#x1eb6;" d="M350 690 q-48 0 -74.5 31 q-26.5 31 -28.5 89 q0 4 5 4 q5 0 6 -2 q2 -21 29 -38.5 q27 -17.5 63 -17.5 q35 0 62 17.5 q27 17.5 29 38.5 q0 3 5.5 2.5 q5.5 -0.5 5.5 -4.5 q-2 -58 -28 -89 q-26 -31 -74 -31 ZM711 12 q5 0 5 -6 q0 -6 -5 -6 q-19 0 -61 2 q-42 2 -61 2 q-25 0 -59 -2 q-34 -2 -53 -2 q-4 0 -4 6 q0 6 4 6 q29 0 42.5 6.5 q13.5 6.5 13.5 21.5 q0 15 -17 51 l-108 219 l-181 0 l-77 -173 q-13 -30 -13 -54 q0 -35 25 -53 q25 -18 70 -18 q5 0 5 -6 q0 -6 -5 -6 q-18 0 -52 2 q-38 2 -66 2 q-27 0 -63 -2 q-32 -2 -53 -2 q-5 0 -5 6 q0 6 5 6 q28 0 47 11 q19 11 37 39.5 q18 28.5 43 84.5 l215 484 q2 3 9 3 q7 0 8 -3 l245 -494 q35 -72 58.5 -98.5 q23.5 -26.5 50.5 -26.5 ZM238 335 l158 0 l-83 168 l-75 -168 ZM357 -95 q25 0 39 -13.5 q14 -13.5 14 -38.5 q0 -26 -13.5 -40 q-13.5 -14 -39.5 -14 q-26 0 -40.5 14 q-14.5 14 -14.5 40 q0 25 14.5 38.5 q14.5 13.5 40.5 13.5 Z" /><glyph glyph-name="uni1EB0" unicode="&#x1eb0;" d="M257 847 q-10 3 11 14 q21 11 48 18 q27 7 30 2 q35 -62 62 -101 q1 -1 1 -4 q0 -3 -2.5 -5 q-2.5 -2 -6.5 -1 q-38 25 -70.5 43 q-32.5 18 -72.5 34 ZM350 664 q-48 0 -74.5 30.5 q-26.5 30.5 -28.5 88.5 q0 4 5 4.5 q5 0.5 6 -2.5 q2 -22 29 -39 q27 -17 63 -17 q35 0 62 17 q27 17 29 39 q0 2 4 2 q7 0 7 -4 q-2 -58 -28 -88.5 q-26 -30.5 -74 -30.5 ZM711 12 q5 0 5 -6 q0 -6 -5 -6 q-19 0 -61 2 q-42 2 -61 2 q-25 0 -59 -2 q-34 -2 -53 -2 q-4 0 -4 6 q0 6 4 6 q29 0 42.5 6.5 q13.5 6.5 13.5 21.5 q0 15 -17 51 l-108 219 l-181 0 l-77 -173 q-13 -30 -13 -54 q0 -35 25 -53 q25 -18 70 -18 q5 0 5 -6 q0 -6 -5 -6 q-18 0 -52 2 q-38 2 -66 2 q-27 0 -63 -2 q-32 -2 -53 -2 q-5 0 -5 6 q0 6 5 6 q28 0 47 11 q19 11 37 39.5 q18 28.5 43 84.5 l215 484 q2 3 9 3 q7 0 8 -3 l245 -494 q35 -72 58.5 -98.5 q23.5 -26.5 50.5 -26.5 ZM238 335 l158 0 l-83 168 l-75 -168 Z" /><glyph glyph-name="uni1EB2" unicode="&#x1eb2;" d="M305 874 q-2 0 -4.5 3.5 q-2.5 3.5 -0.5 5.5 q29 18 61 18 q24 0 38.5 -12.5 q14.5 -12.5 14.5 -30.5 q0 -14 -9 -25.5 q-9 -11.5 -26 -26.5 q-16 -15 -23.5 -25 q-7.5 -10 -6.5 -21 q1 -2 -4.5 -2.5 q-5.5 -0.5 -6.5 2.5 q-2 10 -2 13 q0 9 3.5 19.5 q3.5 10.5 7.5 19.5 q11 22 11 36 q0 15 -9.5 23 q-9.5 8 -21.5 8 q-8 0 -20 -4 l-2 -1 ZM350 664 q-48 0 -74.5 30.5 q-26.5 30.5 -28.5 88.5 q0 4 5 4.5 q5 0.5 6 -2.5 q2 -22 29 -39 q27 -17 63 -17 q35 0 62 17 q27 17 29 39 q0 2 4 2 q7 0 7 -4 q-2 -58 -28 -88.5 q-26 -30.5 -74 -30.5 ZM711 12 q5 0 5 -6 q0 -6 -5 -6 q-19 0 -61 2 q-42 2 -61 2 q-25 0 -59 -2 q-34 -2 -53 -2 q-4 0 -4 6 q0 6 4 6 q29 0 42.5 6.5 q13.5 6.5 13.5 21.5 q0 15 -17 51 l-108 219 l-181 0 l-77 -173 q-13 -30 -13 -54 q0 -35 25 -53 q25 -18 70 -18 q5 0 5 -6 q0 -6 -5 -6 q-18 0 -52 2 q-38 2 -66 2 q-27 0 -63 -2 q-32 -2 -53 -2 q-5 0 -5 6 q0 6 5 6 q28 0 47 11 q19 11 37 39.5 q18 28.5 43 84.5 l215 484 q2 3 9 3 q7 0 8 -3 l245 -494 q35 -72 58.5 -98.5 q23.5 -26.5 50.5 -26.5 ZM238 335 l158 0 l-83 168 l-75 -168 Z" /><glyph glyph-name="uni1EB4" unicode="&#x1eb4;" d="M224 805 q-3 0 -5.5 2.5 q-2.5 2.5 -0.5 4.5 q44 75 86 75 q11 0 49 -10 q49 -15 74 -15 q16 0 27 6.5 q11 6.5 23 20.5 l2 1 q2 0 4 -3 q2 -3 1 -5 q-26 -44 -43 -59 q-17 -15 -39 -15 q-20 0 -57 11 q-17 5 -35.5 9 q-18.5 4 -34.5 4 q-19 0 -27 -5.5 q-8 -5.5 -23 -21.5 l-1 0 ZM442 792 q0 3 5.5 2.5 q5.5 -0.5 5.5 -4.5 q-2 -58 -28 -89 q-26 -31 -74 -31 q-48 0 -74.5 31 q-26.5 31 -28.5 89 q0 4 5 4 q5 0 6 -2 q2 -21 29 -38.5 q27 -17.5 63 -17.5 q35 0 62 17.5 q27 17.5 29 38.5 ZM711 12 q5 0 5 -6 q0 -6 -5 -6 q-19 0 -61 2 q-42 2 -61 2 q-25 0 -59 -2 q-34 -2 -53 -2 q-4 0 -4 6 q0 6 4 6 q29 0 42.5 6.5 q13.5 6.5 13.5 21.5 q0 15 -17 51 l-108 219 l-181 0 l-77 -173 q-13 -30 -13 -54 q0 -35 25 -53 q25 -18 70 -18 q5 0 5 -6 q0 -6 -5 -6 q-18 0 -52 2 q-38 2 -66 2 q-27 0 -63 -2 q-32 -2 -53 -2 q-5 0 -5 6 q0 6 5 6 q28 0 47 11 q19 11 37 39.5 q18 28.5 43 84.5 l215 484 q2 3 9 3 q7 0 8 -3 l245 -494 q35 -72 58.5 -98.5 q23.5 -26.5 50.5 -26.5 ZM238 335 l158 0 l-83 168 l-75 -168 Z" /><glyph glyph-name="uni01CD" unicode="&#x1cd;" d="M235 796 l0 1 q0 3 2.5 5.5 q2.5 2.5 3.5 0.5 l109 -45 l108 46 l1 0 q3 0 4.5 -2.5 q1.5 -2.5 -0.5 -4.5 l-102 -110 q-4 -4 -11 -4 q-8 0 -12 4 l-103 109 ZM711 12 q5 0 5 -6 q0 -6 -5 -6 q-19 0 -61 2 q-42 2 -61 2 q-25 0 -59 -2 q-34 -2 -53 -2 q-4 0 -4 6 q0 6 4 6 q29 0 42.5 6.5 q13.5 6.5 13.5 21.5 q0 15 -17 51 l-108 219 l-181 0 l-77 -173 q-13 -30 -13 -54 q0 -35 25 -53 q25 -18 70 -18 q5 0 5 -6 q0 -6 -5 -6 q-18 0 -52 2 q-38 2 -66 2 q-27 0 -63 -2 q-32 -2 -53 -2 q-5 0 -5 6 q0 6 5 6 q28 0 47 11 q19 11 37 39.5 q18 28.5 43 84.5 l215 484 q2 3 9 3 q7 0 8 -3 l245 -494 q35 -72 58.5 -98.5 q23.5 -26.5 50.5 -26.5 ZM238 335 l158 0 l-83 168 l-75 -168 Z" /><glyph glyph-name="Acircumflex" unicode="â" d="M241 648 q-2 -1 -5 2.5 q-3 3.5 -1 4.5 l103 110 q5 5 12 5 q6 0 11 -5 l102 -110 q1 0 1 -2 q0 -2 -2.5 -4 q-2.5 -2 -3.5 -1 l-108 45 l-109 -45 ZM711 12 q5 0 5 -6 q0 -6 -5 -6 q-19 0 -61 2 q-42 2 -61 2 q-25 0 -59 -2 q-34 -2 -53 -2 q-4 0 -4 6 q0 6 4 6 q29 0 42.5 6.5 q13.5 6.5 13.5 21.5 q0 15 -17 51 l-108 219 l-181 0 l-77 -173 q-13 -30 -13 -54 q0 -35 25 -53 q25 -18 70 -18 q5 0 5 -6 q0 -6 -5 -6 q-18 0 -52 2 q-38 2 -66 2 q-27 0 -63 -2 q-32 -2 -53 -2 q-5 0 -5 6 q0 6 5 6 q28 0 47 11 q19 11 37 39.5 q18 28.5 43 84.5 l215 484 q2 3 9 3 q7 0 8 -3 l245 -494 q35 -72 58.5 -98.5 q23.5 -26.5 50.5 -26.5 ZM238 335 l158 0 l-83 168 l-75 -168 Z" /><glyph glyph-name="uni1EA4" unicode="&#x1ea4;" d="M415 740 q-1 -1 -3 -1 q-3 0 -5 4 q-2 4 0 6 q36 50 64 102 q3 5 30 -2 q27 -7 48.5 -18 q21.5 -11 11.5 -14 q-41 -15 -74.5 -33.5 q-33.5 -18.5 -71.5 -43.5 ZM241 648 q-2 -1 -5 2.5 q-3 3.5 -1 4.5 l103 110 q5 5 12 5 q6 0 11 -5 l102 -110 q1 0 1 -2 q0 -2 -2.5 -4 q-2.5 -2 -3.5 -1 l-108 45 l-109 -45 ZM711 12 q5 0 5 -6 q0 -6 -5 -6 q-19 0 -61 2 q-42 2 -61 2 q-25 0 -59 -2 q-34 -2 -53 -2 q-4 0 -4 6 q0 6 4 6 q29 0 42.5 6.5 q13.5 6.5 13.5 21.5 q0 15 -17 51 l-108 219 l-181 0 l-77 -173 q-13 -30 -13 -54 q0 -35 25 -53 q25 -18 70 -18 q5 0 5 -6 q0 -6 -5 -6 q-18 0 -52 2 q-38 2 -66 2 q-27 0 -63 -2 q-32 -2 -53 -2 q-5 0 -5 6 q0 6 5 6 q28 0 47 11 q19 11 37 39.5 q18 28.5 43 84.5 l215 484 q2 3 9 3 q7 0 8 -3 l245 -494 q35 -72 58.5 -98.5 q23.5 -26.5 50.5 -26.5 ZM238 335 l158 0 l-83 168 l-75 -168 Z" /><glyph glyph-name="uni1EAC" unicode="&#x1eac;" d="M241 648 q-2 -1 -5 2.5 q-3 3.5 -1 4.5 l103 110 q5 5 12 5 q6 0 11 -5 l102 -110 q1 0 1 -2 q0 -2 -2.5 -4 q-2.5 -2 -3.5 -1 l-108 45 l-109 -45 ZM711 12 q5 0 5 -6 q0 -6 -5 -6 q-19 0 -61 2 q-42 2 -61 2 q-25 0 -59 -2 q-34 -2 -53 -2 q-4 0 -4 6 q0 6 4 6 q29 0 42.5 6.5 q13.5 6.5 13.5 21.5 q0 15 -17 51 l-108 219 l-181 0 l-77 -173 q-13 -30 -13 -54 q0 -35 25 -53 q25 -18 70 -18 q5 0 5 -6 q0 -6 -5 -6 q-18 0 -52 2 q-38 2 -66 2 q-27 0 -63 -2 q-32 -2 -53 -2 q-5 0 -5 6 q0 6 5 6 q28 0 47 11 q19 11 37 39.5 q18 28.5 43 84.5 l215 484 q2 3 9 3 q7 0 8 -3 l245 -494 q35 -72 58.5 -98.5 q23.5 -26.5 50.5 -26.5 ZM238 335 l158 0 l-83 168 l-75 -168 ZM357 -95 q25 0 39 -13.5 q14 -13.5 14 -38.5 q0 -26 -13.5 -40 q-13.5 -14 -39.5 -14 q-26 0 -40.5 14 q-14.5 14 -14.5 40 q0 25 14.5 38.5 q14.5 13.5 40.5 13.5 Z" /><glyph glyph-name="uni1EA6" unicode="&#x1ea6;" d="M364 796 q-10 3 11 14 q21 11 48 18 q27 7 30 2 q35 -62 62 -101 q1 -1 1 -4 q0 -3 -2.5 -5 q-2.5 -2 -6.5 -1 q-38 25 -70.5 43 q-32.5 18 -72.5 34 ZM241 648 q-2 -1 -5 2.5 q-3 3.5 -1 4.5 l103 110 q5 5 12 5 q6 0 11 -5 l102 -110 q1 0 1 -2 q0 -2 -2.5 -4 q-2.5 -2 -3.5 -1 l-108 45 l-109 -45 ZM711 12 q5 0 5 -6 q0 -6 -5 -6 q-19 0 -61 2 q-42 2 -61 2 q-25 0 -59 -2 q-34 -2 -53 -2 q-4 0 -4 6 q0 6 4 6 q29 0 42.5 6.5 q13.5 6.5 13.5 21.5 q0 15 -17 51 l-108 219 l-181 0 l-77 -173 q-13 -30 -13 -54 q0 -35 25 -53 q25 -18 70 -18 q5 0 5 -6 q0 -6 -5 -6 q-18 0 -52 2 q-38 2 -66 2 q-27 0 -63 -2 q-32 -2 -53 -2 q-5 0 -5 6 q0 6 5 6 q28 0 47 11 q19 11 37 39.5 q18 28.5 43 84.5 l215 484 q2 3 9 3 q7 0 8 -3 l245 -494 q35 -72 58.5 -98.5 q23.5 -26.5 50.5 -26.5 ZM238 335 l158 0 l-83 168 l-75 -168 Z" /><glyph glyph-name="uni1EA8" unicode="&#x1ea8;" d="M403 841 q-2 0 -4.5 3.5 q-2.5 3.5 -0.5 5.5 q29 18 61 18 q24 0 38.5 -12.5 q14.5 -12.5 14.5 -30.5 q0 -14 -9 -25.5 q-9 -11.5 -26 -26.5 q-16 -15 -23.5 -25 q-7.5 -10 -6.5 -21 q1 -2 -4.5 -2.5 q-5.5 -0.5 -6.5 2.5 q-2 10 -2 13 q0 9 3.5 19.5 q3.5 10.5 7.5 19.5 q11 22 11 36 q0 15 -9.5 23 q-9.5 8 -21.5 8 q-8 0 -20 -4 l-2 -1 ZM241 648 q-2 -1 -5 2.5 q-3 3.5 -1 4.5 l103 110 q5 5 12 5 q6 0 11 -5 l102 -110 q1 0 1 -2 q0 -2 -2.5 -4 q-2.5 -2 -3.5 -1 l-108 45 l-109 -45 ZM711 12 q5 0 5 -6 q0 -6 -5 -6 q-19 0 -61 2 q-42 2 -61 2 q-25 0 -59 -2 q-34 -2 -53 -2 q-4 0 -4 6 q0 6 4 6 q29 0 42.5 6.5 q13.5 6.5 13.5 21.5 q0 15 -17 51 l-108 219 l-181 0 l-77 -173 q-13 -30 -13 -54 q0 -35 25 -53 q25 -18 70 -18 q5 0 5 -6 q0 -6 -5 -6 q-18 0 -52 2 q-38 2 -66 2 q-27 0 -63 -2 q-32 -2 -53 -2 q-5 0 -5 6 q0 6 5 6 q28 0 47 11 q19 11 37 39.5 q18 28.5 43 84.5 l215 484 q2 3 9 3 q7 0 8 -3 l245 -494 q35 -72 58.5 -98.5 q23.5 -26.5 50.5 -26.5 ZM238 335 l158 0 l-83 168 l-75 -168 Z" /><glyph glyph-name="uni1EAA" unicode="&#x1eaa;" d="M230 782 q-3 0 -5.5 2.5 q-2.5 2.5 -0.5 4.5 q44 75 86 75 q11 0 49 -10 q49 -15 74 -15 q16 0 27 6.5 q11 6.5 23 20.5 l2 1 q2 0 4 -3 q2 -3 1 -5 q-26 -44 -43 -59 q-17 -15 -39 -15 q-20 0 -57 11 q-17 5 -35.5 9 q-18.5 4 -34.5 4 q-19 0 -27 -5.5 q-8 -5.5 -23 -21.5 l-1 0 ZM463 655 q1 0 1 -2 q0 -2 -2.5 -4 q-2.5 -2 -3.5 -1 l-108 45 l-109 -45 q-2 -1 -5 2.5 q-3 3.5 -1 4.5 l103 110 q5 5 12 5 q6 0 11 -5 l102 -110 ZM711 12 q5 0 5 -6 q0 -6 -5 -6 q-19 0 -61 2 q-42 2 -61 2 q-25 0 -59 -2 q-34 -2 -53 -2 q-4 0 -4 6 q0 6 4 6 q29 0 42.5 6.5 q13.5 6.5 13.5 21.5 q0 15 -17 51 l-108 219 l-181 0 l-77 -173 q-13 -30 -13 -54 q0 -35 25 -53 q25 -18 70 -18 q5 0 5 -6 q0 -6 -5 -6 q-18 0 -52 2 q-38 2 -66 2 q-27 0 -63 -2 q-32 -2 -53 -2 q-5 0 -5 6 q0 6 5 6 q28 0 47 11 q19 11 37 39.5 q18 28.5 43 84.5 l215 484 q2 3 9 3 q7 0 8 -3 l245 -494 q35 -72 58.5 -98.5 q23.5 -26.5 50.5 -26.5 ZM238 335 l158 0 l-83 168 l-75 -168 Z" /><glyph glyph-name="Adieresis" unicode="ä" d="M264 708 q-24 0 -37.5 13 q-13.5 13 -13.5 37 q0 23 13.5 35.5 q13.5 12.5 37.5 12.5 q23 0 35.5 -12.5 q12.5 -12.5 12.5 -35.5 q0 -24 -12.5 -37 q-12.5 -13 -35.5 -13 ZM438 708 q-23 0 -36.5 13 q-13.5 13 -13.5 37 q0 22 13.5 35 q13.5 13 36.5 13 q23 0 36 -12.5 q13 -12.5 13 -35.5 q0 -24 -13 -37 q-13 -13 -36 -13 ZM711 12 q5 0 5 -6 q0 -6 -5 -6 q-19 0 -61 2 q-42 2 -61 2 q-25 0 -59 -2 q-34 -2 -53 -2 q-4 0 -4 6 q0 6 4 6 q29 0 42.5 6.5 q13.5 6.5 13.5 21.5 q0 15 -17 51 l-108 219 l-181 0 l-77 -173 q-13 -30 -13 -54 q0 -35 25 -53 q25 -18 70 -18 q5 0 5 -6 q0 -6 -5 -6 q-18 0 -52 2 q-38 2 -66 2 q-27 0 -63 -2 q-32 -2 -53 -2 q-5 0 -5 6 q0 6 5 6 q28 0 47 11 q19 11 37 39.5 q18 28.5 43 84.5 l215 484 q2 3 9 3 q7 0 8 -3 l245 -494 q35 -72 58.5 -98.5 q23.5 -26.5 50.5 -26.5 ZM238 335 l158 0 l-83 168 l-75 -168 Z" /><glyph glyph-name="uni1EA0" unicode="&#x1ea0;" d="M711 12 q5 0 5 -6 q0 -6 -5 -6 q-19 0 -61 2 q-42 2 -61 2 q-25 0 -59 -2 q-34 -2 -53 -2 q-4 0 -4 6 q0 6 4 6 q29 0 42.5 6.5 q13.5 6.5 13.5 21.5 q0 15 -17 51 l-108 219 l-181 0 l-77 -173 q-13 -30 -13 -54 q0 -35 25 -53 q25 -18 70 -18 q5 0 5 -6 q0 -6 -5 -6 q-18 0 -52 2 q-38 2 -66 2 q-27 0 -63 -2 q-32 -2 -53 -2 q-5 0 -5 6 q0 6 5 6 q28 0 47 11 q19 11 37 39.5 q18 28.5 43 84.5 l215 484 q2 3 9 3 q7 0 8 -3 l245 -494 q35 -72 58.5 -98.5 q23.5 -26.5 50.5 -26.5 ZM238 335 l158 0 l-83 168 l-75 -168 ZM357 -95 q25 0 39 -13.5 q14 -13.5 14 -38.5 q0 -26 -13.5 -40 q-13.5 -14 -39.5 -14 q-26 0 -40.5 14 q-14.5 14 -14.5 40 q0 25 14.5 38.5 q14.5 13.5 40.5 13.5 Z" /><glyph glyph-name="Agrave" unicode="à" d="M227 756 q-10 2 10.5 12 q20.5 10 47 18 q26.5 8 31.5 4 q30 -22 45 -34 q61 -46 93 -67 q2 -1 2 -4 q0 -3 -2 -5 q-2 -2 -4 -1 q-113 50 -223 77 ZM711 12 q5 0 5 -6 q0 -6 -5 -6 q-19 0 -61 2 q-42 2 -61 2 q-25 0 -59 -2 q-34 -2 -53 -2 q-4 0 -4 6 q0 6 4 6 q29 0 42.5 6.5 q13.5 6.5 13.5 21.5 q0 15 -17 51 l-108 219 l-181 0 l-77 -173 q-13 -30 -13 -54 q0 -35 25 -53 q25 -18 70 -18 q5 0 5 -6 q0 -6 -5 -6 q-18 0 -52 2 q-38 2 -66 2 q-27 0 -63 -2 q-32 -2 -53 -2 q-5 0 -5 6 q0 6 5 6 q28 0 47 11 q19 11 37 39.5 q18 28.5 43 84.5 l215 484 q2 3 9 3 q7 0 8 -3 l245 -494 q35 -72 58.5 -98.5 q23.5 -26.5 50.5 -26.5 ZM238 335 l158 0 l-83 168 l-75 -168 Z" /><glyph glyph-name="uni1EA2" unicode="&#x1ea2;" d="M303 814 q-4 0 -6.5 3.5 q-2.5 3.5 0.5 4.5 q32 26 76 26 q31 0 49.5 -14.5 q18.5 -14.5 18.5 -37.5 q0 -20 -12.5 -37.5 q-12.5 -17.5 -35.5 -39.5 q-22 -23 -32 -37.5 q-10 -14.5 -9 -30.5 q0 -2 -5.5 -2 q-5.5 0 -6.5 2 q-2 8 -2 22 q0 16 4 29 q4 13 13 32 q15 30 15 52 q0 37 -33 37 q-17 0 -33 -9 l-1 0 ZM711 12 q5 0 5 -6 q0 -6 -5 -6 q-19 0 -61 2 q-42 2 -61 2 q-25 0 -59 -2 q-34 -2 -53 -2 q-4 0 -4 6 q0 6 4 6 q29 0 42.5 6.5 q13.5 6.5 13.5 21.5 q0 15 -17 51 l-108 219 l-181 0 l-77 -173 q-13 -30 -13 -54 q0 -35 25 -53 q25 -18 70 -18 q5 0 5 -6 q0 -6 -5 -6 q-18 0 -52 2 q-38 2 -66 2 q-27 0 -63 -2 q-32 -2 -53 -2 q-5 0 -5 6 q0 6 5 6 q28 0 47 11 q19 11 37 39.5 q18 28.5 43 84.5 l215 484 q2 3 9 3 q7 0 8 -3 l245 -494 q35 -72 58.5 -98.5 q23.5 -26.5 50.5 -26.5 ZM238 335 l158 0 l-83 168 l-75 -168 Z" /><glyph glyph-name="Amacron" unicode="&#x100;" d="M224 716 q-4 0 -6 5.5 q-2 5.5 -2 11.5 q0 7 2 12 q2 5 6 5 l251 0 q4 0 6.5 -5 q2.5 -5 2.5 -12 q0 -7 -2.5 -12 q-2.5 -5 -6.5 -5 l-251 0 ZM711 12 q5 0 5 -6 q0 -6 -5 -6 q-19 0 -61 2 q-42 2 -61 2 q-25 0 -59 -2 q-34 -2 -53 -2 q-4 0 -4 6 q0 6 4 6 q29 0 42.5 6.5 q13.5 6.5 13.5 21.5 q0 15 -17 51 l-108 219 l-181 0 l-77 -173 q-13 -30 -13 -54 q0 -35 25 -53 q25 -18 70 -18 q5 0 5 -6 q0 -6 -5 -6 q-18 0 -52 2 q-38 2 -66 2 q-27 0 -63 -2 q-32 -2 -53 -2 q-5 0 -5 6 q0 6 5 6 q28 0 47 11 q19 11 37 39.5 q18 28.5 43 84.5 l215 484 q2 3 9 3 q7 0 8 -3 l245 -494 q35 -72 58.5 -98.5 q23.5 -26.5 50.5 -26.5 ZM238 335 l158 0 l-83 168 l-75 -168 Z" /><glyph glyph-name="Aogonek" unicode="&#x104;" d="M711 9 q5 0 5 -5.5 q0 -5.5 -5 -5.5 q-24 0 -60 2 l-47 1 q-51 0 -80.5 -32.5 q-29.5 -32.5 -29.5 -88.5 q0 -53 25.5 -85 q25.5 -32 67.5 -32 q25 0 47 12 l1 0 q3 0 5.5 -3 q2.5 -3 0.5 -5 q-26 -22 -52 -32 q-26 -10 -57 -10 q-56 0 -88 29.5 q-32 29.5 -32 78.5 q0 37 16.5 61.5 q16.5 24.5 48.5 54.5 q28 27 41 45.5 q13 18.5 13 43.5 q0 23 -15 53 l-109 219 l-180 0 l-77 -173 q-13 -29 -13 -54 q0 -34 25 -52.5 q25 -18.5 70 -18.5 q5 0 5 -6 q0 -6 -5 -6 q-18 0 -52 2 q-38 2 -66 2 q-27 0 -63 -2 q-32 -2 -53 -2 q-5 0 -5 6 q0 6 5 6 q28 0 47.5 11 q19.5 11 37.5 39.5 q18 28.5 42 84.5 l215 484 q2 3 9 3 q7 0 8 -3 l245 -495 q33 -69 57.5 -98 q24.5 -29 51.5 -29 ZM238 335 l157 0 l-83 166 l-74 -166 Z" /><glyph glyph-name="Aring" unicode="å" d="M343 661 q-46 0 -73.5 23.5 q-27.5 23.5 -27.5 56.5 q0 36 34 56.5 q34 20.5 76 20.5 q41 0 70.5 -23 q29.5 -23 29.5 -56 q0 -35 -33 -56.5 q-33 -21.5 -76 -21.5 ZM332 805 q-26 0 -26 -44 q0 -34 14 -60.5 q14 -26.5 38 -26.5 q30 0 30 47 q0 34 -16.5 59 q-16.5 25 -39.5 25 ZM711 12 q5 0 5 -6 q0 -6 -5 -6 q-19 0 -61 2 q-42 2 -61 2 q-25 0 -59 -2 q-34 -2 -53 -2 q-4 0 -4 6 q0 6 4 6 q29 0 42.5 6.5 q13.5 6.5 13.5 21.5 q0 15 -17 51 l-108 219 l-181 0 l-77 -173 q-13 -30 -13 -54 q0 -35 25 -53 q25 -18 70 -18 q5 0 5 -6 q0 -6 -5 -6 q-18 0 -52 2 q-38 2 -66 2 q-27 0 -63 -2 q-32 -2 -53 -2 q-5 0 -5 6 q0 6 5 6 q28 0 47 11 q19 11 37 39.5 q18 28.5 43 84.5 l215 484 q2 3 9 3 q7 0 8 -3 l245 -494 q35 -72 58.5 -98.5 q23.5 -26.5 50.5 -26.5 ZM238 335 l158 0 l-83 168 l-75 -168 Z" /><glyph glyph-name="Aringacute" unicode="&#x1fa;" d="M257 820 q-3 0 -4.5 4.5 q-1.5 4.5 1.5 5.5 l133 69 q5 3 25.5 -7.5 q20.5 -10.5 37 -22.5 q16.5 -12 9.5 -13 q-53 -7 -103.5 -16.5 q-50.5 -9.5 -96.5 -19.5 l-2 0 ZM343 675 q-41 0 -66 20 q-25 20 -25 48 q0 30 31.5 48 q31.5 18 69.5 18 q41 0 70.5 -20 q29.5 -20 29.5 -48 q0 -30 -33.5 -48 q-33.5 -18 -76.5 -18 ZM335 796 q-29 0 -29 -33 q0 -29 14.5 -52 q14.5 -23 38.5 -23 q29 0 29 35 q0 31 -15 52 q-15 21 -38 21 ZM711 12 q5 0 5 -6 q0 -6 -5 -6 q-19 0 -61 2 q-42 2 -61 2 q-25 0 -59 -2 q-34 -2 -53 -2 q-4 0 -4 6 q0 6 4 6 q29 0 42.5 6.5 q13.5 6.5 13.5 21.5 q0 15 -17 51 l-108 219 l-181 0 l-77 -173 q-13 -30 -13 -54 q0 -35 25 -53 q25 -18 70 -18 q5 0 5 -6 q0 -6 -5 -6 q-18 0 -52 2 q-38 2 -66 2 q-27 0 -63 -2 q-32 -2 -53 -2 q-5 0 -5 6 q0 6 5 6 q28 0 47 11 q19 11 37 39.5 q18 28.5 43 84.5 l215 484 q2 3 9 3 q7 0 8 -3 l245 -494 q35 -72 58.5 -98.5 q23.5 -26.5 50.5 -26.5 ZM238 335 l158 0 l-83 168 l-75 -168 Z" /><glyph glyph-name="Atilde" unicode="ã" d="M227 697 q-3 0 -5.5 2.5 q-2.5 2.5 -0.5 4.5 q43 75 87 75 q11 0 47 -10 q46 -14 75 -14 q17 0 27.5 6 q10.5 6 22.5 21 l1 0 q3 0 5.5 -2.5 q2.5 -2.5 0.5 -4.5 q-26 -45 -43 -60 q-17 -15 -38 -15 q-16 0 -34.5 5 q-18.5 5 -23.5 6 q-17 5 -35 9 q-18 4 -34 4 q-17 0 -25.5 -4.5 q-8.5 -4.5 -15.5 -12 q-7 -7.5 -10 -10.5 l-1 0 ZM711 12 q5 0 5 -6 q0 -6 -5 -6 q-19 0 -61 2 q-42 2 -61 2 q-25 0 -59 -2 q-34 -2 -53 -2 q-4 0 -4 6 q0 6 4 6 q29 0 42.5 6.5 q13.5 6.5 13.5 21.5 q0 15 -17 51 l-108 219 l-181 0 l-77 -173 q-13 -30 -13 -54 q0 -35 25 -53 q25 -18 70 -18 q5 0 5 -6 q0 -6 -5 -6 q-18 0 -52 2 q-38 2 -66 2 q-27 0 -63 -2 q-32 -2 -53 -2 q-5 0 -5 6 q0 6 5 6 q28 0 47 11 q19 11 37 39.5 q18 28.5 43 84.5 l215 484 q2 3 9 3 q7 0 8 -3 l245 -494 q35 -72 58.5 -98.5 q23.5 -26.5 50.5 -26.5 ZM238 335 l158 0 l-83 168 l-75 -168 Z" /><glyph glyph-name="AE" unicode="æ" d="M826 156 q0 2 3 2 q3 0 5.5 -1.5 q2.5 -1.5 2.5 -2.5 q-9 -85 -9 -139 q0 -8 -3.5 -11.5 q-3.5 -3.5 -11.5 -3.5 l-428 0 q-2 0 -2 6 q0 6 2 6 q34 0 49.5 5 q15.5 5 21.5 19.5 q6 14.5 6 44.5 l0 231 l-158 0 l-116 -178 q-27 -43 -27 -72 q0 -24 19 -37 q19 -13 56 -13 q5 0 5 -6 q0 -6 -5 -6 q-21 0 -59 2 q-44 2 -76 2 q-25 0 -57 -2 q-30 -2 -48 -2 q-5 0 -5 6 q0 6 5 6 q38 0 74 28.5 q36 28.5 78 91.5 l293 442 q13 18 13 25 q0 9 -16.5 11.5 q-16.5 2.5 -60.5 2.5 q-3 0 -3 6 q0 6 3 6 l418 0 q10 0 10 -9 l2 -130 q0 -2 -5.5 -3 q-5.5 -1 -6.5 2 q-5 26 -23.5 52.5 q-18.5 26.5 -47 44 q-28.5 17.5 -60.5 17.5 l-46 0 q-36 0 -50.5 -12.5 q-14.5 -12.5 -14.5 -43.5 l0 -205 l93 0 q109 0 109 74 q0 3 6 3 q6 0 6 -3 l-1 -87 q0 -31 1 -47 l1 -52 q0 -2 -5.5 -2 q-5.5 0 -5.5 2 q0 42 -28.5 64 q-28.5 22 -84.5 22 l-91 0 l0 -227 q0 -33 12.5 -46 q12.5 -13 44.5 -13 l53 0 q53 0 100.5 38 q47.5 38 62.5 92 ZM321 338 l141 0 l0 217 l-141 -217 Z" /><glyph glyph-name="AEacute" unicode="&#x1fc;" d="M480 678 q-4 0 -5 4.5 q-1 4.5 2 6.5 q32 19 88 63 q46 35 50 38 q5 4 32 -4 q27 -8 47.5 -18 q20.5 -10 9.5 -12 q-62 -15 -113.5 -33.5 q-51.5 -18.5 -108.5 -43.5 l-2 -1 ZM826 156 q0 2 3 2 q3 0 5.5 -1.5 q2.5 -1.5 2.5 -2.5 q-9 -85 -9 -139 q0 -8 -3.5 -11.5 q-3.5 -3.5 -11.5 -3.5 l-428 0 q-2 0 -2 6 q0 6 2 6 q34 0 49.5 5 q15.5 5 21.5 19.5 q6 14.5 6 44.5 l0 231 l-158 0 l-116 -178 q-27 -43 -27 -72 q0 -24 19 -37 q19 -13 56 -13 q5 0 5 -6 q0 -6 -5 -6 q-21 0 -59 2 q-44 2 -76 2 q-25 0 -57 -2 q-30 -2 -48 -2 q-5 0 -5 6 q0 6 5 6 q38 0 74 28.5 q36 28.5 78 91.5 l293 442 q13 18 13 25 q0 9 -16.5 11.5 q-16.5 2.5 -60.5 2.5 q-3 0 -3 6 q0 6 3 6 l418 0 q10 0 10 -9 l2 -130 q0 -2 -5.5 -3 q-5.5 -1 -6.5 2 q-5 26 -23.5 52.5 q-18.5 26.5 -47 44 q-28.5 17.5 -60.5 17.5 l-46 0 q-36 0 -50.5 -12.5 q-14.5 -12.5 -14.5 -43.5 l0 -205 l93 0 q109 0 109 74 q0 3 6 3 q6 0 6 -3 l-1 -87 q0 -31 1 -47 l1 -52 q0 -2 -5.5 -2 q-5.5 0 -5.5 2 q0 42 -28.5 64 q-28.5 22 -84.5 22 l-91 0 l0 -227 q0 -33 12.5 -46 q12.5 -13 44.5 -13 l53 0 q53 0 100.5 38 q47.5 38 62.5 92 ZM321 338 l141 0 l0 217 l-141 -217 Z" /><glyph glyph-name="uni01E2" unicode="&#x1e2;" d="M453 716 q-4 0 -6 5.5 q-2 5.5 -2 11.5 q0 7 2 12 q2 5 6 5 l251 0 q4 0 6.5 -5 q2.5 -5 2.5 -12 q0 -7 -2.5 -12 q-2.5 -5 -6.5 -5 l-251 0 ZM826 156 q0 2 3 2 q3 0 5.5 -1.5 q2.5 -1.5 2.5 -2.5 q-9 -85 -9 -139 q0 -8 -3.5 -11.5 q-3.5 -3.5 -11.5 -3.5 l-428 0 q-2 0 -2 6 q0 6 2 6 q34 0 49.5 5 q15.5 5 21.5 19.5 q6 14.5 6 44.5 l0 231 l-158 0 l-116 -178 q-27 -43 -27 -72 q0 -24 19 -37 q19 -13 56 -13 q5 0 5 -6 q0 -6 -5 -6 q-21 0 -59 2 q-44 2 -76 2 q-25 0 -57 -2 q-30 -2 -48 -2 q-5 0 -5 6 q0 6 5 6 q38 0 74 28.5 q36 28.5 78 91.5 l293 442 q13 18 13 25 q0 9 -16.5 11.5 q-16.5 2.5 -60.5 2.5 q-3 0 -3 6 q0 6 3 6 l418 0 q10 0 10 -9 l2 -130 q0 -2 -5.5 -3 q-5.5 -1 -6.5 2 q-5 26 -23.5 52.5 q-18.5 26.5 -47 44 q-28.5 17.5 -60.5 17.5 l-46 0 q-36 0 -50.5 -12.5 q-14.5 -12.5 -14.5 -43.5 l0 -205 l93 0 q109 0 109 74 q0 3 6 3 q6 0 6 -3 l-1 -87 q0 -31 1 -47 l1 -52 q0 -2 -5.5 -2 q-5.5 0 -5.5 2 q0 42 -28.5 64 q-28.5 22 -84.5 22 l-91 0 l0 -227 q0 -33 12.5 -46 q12.5 -13 44.5 -13 l53 0 q53 0 100.5 38 q47.5 38 62.5 92 ZM321 338 l141 0 l0 217 l-141 -217 Z" /><glyph glyph-name="B" unicode="b" d="M351 351 q82 -9 131 -55 q49 -46 49 -114 q0 -52 -28.5 -94.5 q-28.5 -42.5 -79 -67 q-50.5 -24.5 -112.5 -24.5 q-29 0 -67 3 q-13 1 -33 2 q-20 1 -45 1 l-72 -1 q-19 -1 -52 -1 q-3 0 -3 6 q0 6 3 6 q32 0 48 5.5 q16 5.5 22.5 19.5 q6.5 14 6.5 44 l0 463 q0 29 -6.5 43.5 q-6.5 14.5 -22 20 q-15.5 5.5 -47.5 5.5 q-2 0 -2 6 q0 6 2 6 l52 -1 q44 -2 71 -2 q28 0 59 3 q11 1 26.5 2 q15.5 1 35.5 1 q89 0 136.5 -34.5 q47.5 -34.5 47.5 -95.5 q0 -47 -31.5 -86 q-31.5 -39 -88.5 -61 ZM270 608 q-32 0 -43.5 -13 q-11.5 -13 -11.5 -53 l0 -190 l42 -1 q59 0 89 38.5 q30 38.5 30 99.5 q0 57 -27 88 q-27 31 -79 31 ZM295 19 q135 0 135 139 q0 76 -39.5 122 q-39.5 46 -115.5 46 q-36 0 -60 -2 l0 -243 q0 -23 6 -36 q6 -13 23 -19.5 q17 -6.5 51 -6.5 Z" /><glyph glyph-name="C" unicode="c" d="M419 636 q45 0 93.5 -8 q48.5 -8 76.5 -22 q9 -3 11.5 -7.5 q2.5 -4.5 3.5 -15.5 l12 -130 q0 -3 -5 -4 q-5 -1 -6 3 q-29 78 -87.5 119 q-58.5 41 -137.5 41 q-104 0 -163 -73 q-59 -73 -59 -196 q0 -92 32.5 -169 q32.5 -77 90 -122 q57.5 -45 128.5 -45 q135 0 205 168 q1 4 6.5 3 q5.5 -1 5.5 -4 l-15 -128 q-2 -12 -4.5 -15.5 q-2.5 -3.5 -11.5 -7.5 q-87 -35 -185 -35 q-122 0 -203 48.5 q-81 48.5 -119.5 123.5 q-38.5 75 -38.5 156 q0 94 51.5 167 q51.5 73 136.5 113 q85 40 182 40 Z" /><glyph glyph-name="Cacute" unicode="&#x106;" d="M280 678 q-4 0 -5 4.5 q-1 4.5 2 6.5 q32 19 88 63 q46 35 50 38 q5 4 32 -4 q27 -8 47.5 -18 q20.5 -10 9.5 -12 q-62 -15 -113.5 -33.5 q-51.5 -18.5 -108.5 -43.5 l-2 -1 ZM419 636 q45 0 93.5 -8 q48.5 -8 76.5 -22 q9 -3 11.5 -7.5 q2.5 -4.5 3.5 -15.5 l12 -130 q0 -3 -5 -4 q-5 -1 -6 3 q-29 78 -87.5 119 q-58.5 41 -137.5 41 q-104 0 -163 -73 q-59 -73 -59 -196 q0 -92 32.5 -169 q32.5 -77 90 -122 q57.5 -45 128.5 -45 q135 0 205 168 q1 4 6.5 3 q5.5 -1 5.5 -4 l-15 -128 q-2 -12 -4.5 -15.5 q-2.5 -3.5 -11.5 -7.5 q-87 -35 -185 -35 q-122 0 -203 48.5 q-81 48.5 -119.5 123.5 q-38.5 75 -38.5 156 q0 94 51.5 167 q51.5 73 136.5 113 q85 40 182 40 Z" /><glyph glyph-name="Ccaron" unicode="&#x10c;" d="M264 796 l0 1 q0 3 2.5 5.5 q2.5 2.5 3.5 0.5 l109 -45 l108 46 l1 0 q3 0 4.5 -2.5 q1.5 -2.5 -0.5 -4.5 l-102 -110 q-4 -4 -11 -4 q-8 0 -12 4 l-103 109 ZM419 636 q45 0 93.5 -8 q48.5 -8 76.5 -22 q9 -3 11.5 -7.5 q2.5 -4.5 3.5 -15.5 l12 -130 q0 -3 -5 -4 q-5 -1 -6 3 q-29 78 -87.5 119 q-58.5 41 -137.5 41 q-104 0 -163 -73 q-59 -73 -59 -196 q0 -92 32.5 -169 q32.5 -77 90 -122 q57.5 -45 128.5 -45 q135 0 205 168 q1 4 6.5 3 q5.5 -1 5.5 -4 l-15 -128 q-2 -12 -4.5 -15.5 q-2.5 -3.5 -11.5 -7.5 q-87 -35 -185 -35 q-122 0 -203 48.5 q-81 48.5 -119.5 123.5 q-38.5 75 -38.5 156 q0 94 51.5 167 q51.5 73 136.5 113 q85 40 182 40 Z" /><glyph glyph-name="Ccedilla" unicode="ç" d="M614 175 q1 4 6.5 3 q5.5 -1 5.5 -4 l-15 -128 q-2 -12 -4.5 -15.5 q-2.5 -3.5 -11.5 -7.5 q-87 -35 -185 -35 l-18 0 q-5 -20 -5 -30 q0 -17 9.5 -29 q9.5 -12 31.5 -24 q26 -16 40.5 -33.5 q14.5 -17.5 14.5 -44.5 q0 -40 -29 -71 q-29 -31 -87 -31 q-71 0 -71 45 q0 14 10.5 25 q10.5 11 25.5 11 q17 0 24 -7.5 q7 -7.5 13 -21.5 q6 -15 12.5 -22 q6.5 -7 22.5 -7 q26 0 26 28 q0 26 -18.5 47 q-18.5 21 -65.5 47 q-5 2 -7.5 5 q-2.5 3 -2.5 7 q0 6 4 17 q16 40 34 90 q-110 8 -183 57 q-73 49 -107.5 121 q-34.5 72 -34.5 149 q0 94 51.5 167 q51.5 73 136.5 113 q85 40 182 40 q45 0 93.5 -8 q48.5 -8 76.5 -22 q9 -3 11.5 -7.5 q2.5 -4.5 3.5 -15.5 l12 -130 q0 -3 -5 -4 q-5 -1 -6 3 q-29 78 -87.5 119 q-58.5 41 -137.5 41 q-104 0 -163 -73 q-59 -73 -59 -196 q0 -92 32.5 -169 q32.5 -77 90 -122 q57.5 -45 128.5 -45 q135 0 205 168 Z" /><glyph glyph-name="Ccircumflex" unicode="&#x108;" d="M368 809 q5 5 12 5 q6 0 11 -5 l102 -110 q1 0 1 -2 q0 -2 -2.5 -4 q-2.5 -2 -3.5 -1 l-108 45 l-109 -45 q-2 -1 -5 2.5 q-3 3.5 -1 4.5 l103 110 ZM419 636 q45 0 93.5 -8 q48.5 -8 76.5 -22 q9 -3 11.5 -7.5 q2.5 -4.5 3.5 -15.5 l12 -130 q0 -3 -5 -4 q-5 -1 -6 3 q-29 78 -87.5 119 q-58.5 41 -137.5 41 q-104 0 -163 -73 q-59 -73 -59 -196 q0 -92 32.5 -169 q32.5 -77 90 -122 q57.5 -45 128.5 -45 q135 0 205 168 q1 4 6.5 3 q5.5 -1 5.5 -4 l-15 -128 q-2 -12 -4.5 -15.5 q-2.5 -3.5 -11.5 -7.5 q-87 -35 -185 -35 q-122 0 -203 48.5 q-81 48.5 -119.5 123.5 q-38.5 75 -38.5 156 q0 94 51.5 167 q51.5 73 136.5 113 q85 40 182 40 Z" /><glyph glyph-name="Cdotaccent" unicode="&#x10a;" d="M380 713 q-26 0 -40.5 14.5 q-14.5 14.5 -14.5 40.5 q0 24 14.5 38.5 q14.5 14.5 40.5 14.5 q25 0 39 -14.5 q14 -14.5 14 -38.5 q0 -26 -14 -40.5 q-14 -14.5 -39 -14.5 ZM419 636 q45 0 93.5 -8 q48.5 -8 76.5 -22 q9 -3 11.5 -7.5 q2.5 -4.5 3.5 -15.5 l12 -130 q0 -3 -5 -4 q-5 -1 -6 3 q-29 78 -87.5 119 q-58.5 41 -137.5 41 q-104 0 -163 -73 q-59 -73 -59 -196 q0 -92 32.5 -169 q32.5 -77 90 -122 q57.5 -45 128.5 -45 q135 0 205 168 q1 4 6.5 3 q5.5 -1 5.5 -4 l-15 -128 q-2 -12 -4.5 -15.5 q-2.5 -3.5 -11.5 -7.5 q-87 -35 -185 -35 q-122 0 -203 48.5 q-81 48.5 -119.5 123.5 q-38.5 75 -38.5 156 q0 94 51.5 167 q51.5 73 136.5 113 q85 40 182 40 Z" /><glyph glyph-name="D" unicode="d" d="M318 -4 q-31 0 -72 3 q-15 1 -38 2 q-23 1 -52 1 l-71 -1 q-19 -1 -53 -1 q-2 0 -2 6 q0 6 2 6 q34 0 49.5 5 q15.5 5 21.5 19.5 q6 14.5 6 44.5 l0 463 q0 30 -5.5 44 q-5.5 14 -21.5 19.5 q-16 5.5 -49 5.5 q-2 0 -2 6 q0 6 2 6 l53 -1 q44 -2 70 -2 q40 0 81 3 q50 2 67 2 q102 0 181 -40 q79 -40 122.5 -109 q43.5 -69 43.5 -155 q0 -97 -45 -171.5 q-45 -74.5 -121 -115 q-76 -40.5 -167 -40.5 ZM308 16 q69 0 122.5 33 q53.5 33 83.5 97.5 q30 64.5 30 154.5 q0 86 -28.5 155.5 q-28.5 69.5 -80.5 110 q-52 40.5 -121 40.5 q-42 0 -65 -5 q-23 -5 -33.5 -18.5 q-10.5 -13.5 -10.5 -41.5 l0 -450 q0 -41 21 -58.5 q21 -17.5 82 -17.5 Z" /><glyph glyph-name="Eth" unicode="ð" d="M304 627 q102 0 181 -40 q79 -40 122.5 -109 q43.5 -69 43.5 -155 q0 -97 -45 -171.5 q-45 -74.5 -121 -115 q-76 -40.5 -167 -40.5 q-31 0 -72 3 q-15 1 -38 2 q-23 1 -52 1 l-71 -1 q-19 -1 -53 -1 q-2 0 -2 6 q0 6 2 6 q34 0 49.5 5 q15.5 5 21.5 19.5 q6 14.5 6 44.5 l0 217 l-56 0 q-4 0 -4 13 q0 13 4 13 l56 0 l0 220 q0 30 -5.5 44 q-5.5 14 -21.5 19.5 q-16 5.5 -49 5.5 q-2 0 -2 6 q0 6 2 6 l53 -1 q44 -2 70 -2 q40 0 81 3 q50 2 67 2 ZM308 16 q69 0 122.5 33 q53.5 33 83.5 97.5 q30 64.5 30 154.5 q0 86 -28.5 155.5 q-28.5 69.5 -80.5 110 q-52 40.5 -121 40.5 q-42 0 -65 -5 q-23 -5 -33.5 -18.5 q-10.5 -13.5 -10.5 -41.5 l0 -218 l136 0 q4 0 4 -13 q0 -13 -4 -13 l-136 0 l0 -206 q0 -41 21 -58.5 q21 -17.5 82 -17.5 Z" /><glyph glyph-name="Dcaron" unicode="&#x10e;" d="M206 796 l0 1 q0 3 2.5 5.5 q2.5 2.5 3.5 0.5 l109 -45 l108 46 l1 0 q3 0 4.5 -2.5 q1.5 -2.5 -0.5 -4.5 l-102 -110 q-4 -4 -11 -4 q-8 0 -12 4 l-103 109 ZM318 -4 q-31 0 -72 3 q-15 1 -38 2 q-23 1 -52 1 l-71 -1 q-19 -1 -53 -1 q-2 0 -2 6 q0 6 2 6 q34 0 49.5 5 q15.5 5 21.5 19.5 q6 14.5 6 44.5 l0 463 q0 30 -5.5 44 q-5.5 14 -21.5 19.5 q-16 5.5 -49 5.5 q-2 0 -2 6 q0 6 2 6 l53 -1 q44 -2 70 -2 q40 0 81 3 q50 2 67 2 q102 0 181 -40 q79 -40 122.5 -109 q43.5 -69 43.5 -155 q0 -97 -45 -171.5 q-45 -74.5 -121 -115 q-76 -40.5 -167 -40.5 ZM308 16 q69 0 122.5 33 q53.5 33 83.5 97.5 q30 64.5 30 154.5 q0 86 -28.5 155.5 q-28.5 69.5 -80.5 110 q-52 40.5 -121 40.5 q-42 0 -65 -5 q-23 -5 -33.5 -18.5 q-10.5 -13.5 -10.5 -41.5 l0 -450 q0 -41 21 -58.5 q21 -17.5 82 -17.5 Z" /><glyph glyph-name="Dcroat" unicode="&#x110;" d="M304 627 q102 0 181 -40 q79 -40 122.5 -109 q43.5 -69 43.5 -155 q0 -97 -45 -171.5 q-45 -74.5 -121 -115 q-76 -40.5 -167 -40.5 q-31 0 -72 3 q-15 1 -38 2 q-23 1 -52 1 l-71 -1 q-19 -1 -53 -1 q-2 0 -2 6 q0 6 2 6 q34 0 49.5 5 q15.5 5 21.5 19.5 q6 14.5 6 44.5 l0 217 l-56 0 q-4 0 -4 13 q0 13 4 13 l56 0 l0 220 q0 30 -5.5 44 q-5.5 14 -21.5 19.5 q-16 5.5 -49 5.5 q-2 0 -2 6 q0 6 2 6 l53 -1 q44 -2 70 -2 q40 0 81 3 q50 2 67 2 ZM308 16 q69 0 122.5 33 q53.5 33 83.5 97.5 q30 64.5 30 154.5 q0 86 -28.5 155.5 q-28.5 69.5 -80.5 110 q-52 40.5 -121 40.5 q-42 0 -65 -5 q-23 -5 -33.5 -18.5 q-10.5 -13.5 -10.5 -41.5 l0 -218 l136 0 q4 0 4 -13 q0 -13 -4 -13 l-136 0 l0 -206 q0 -41 21 -58.5 q21 -17.5 82 -17.5 Z" /><glyph glyph-name="uni1E0C" unicode="&#x1e0c;" d="M318 -4 q-31 0 -72 3 q-15 1 -38 2 q-23 1 -52 1 l-71 -1 q-19 -1 -53 -1 q-2 0 -2 6 q0 6 2 6 q34 0 49.5 5 q15.5 5 21.5 19.5 q6 14.5 6 44.5 l0 463 q0 30 -5.5 44 q-5.5 14 -21.5 19.5 q-16 5.5 -49 5.5 q-2 0 -2 6 q0 6 2 6 l53 -1 q44 -2 70 -2 q40 0 81 3 q50 2 67 2 q102 0 181 -40 q79 -40 122.5 -109 q43.5 -69 43.5 -155 q0 -97 -45 -171.5 q-45 -74.5 -121 -115 q-76 -40.5 -167 -40.5 ZM308 16 q69 0 122.5 33 q53.5 33 83.5 97.5 q30 64.5 30 154.5 q0 86 -28.5 155.5 q-28.5 69.5 -80.5 110 q-52 40.5 -121 40.5 q-42 0 -65 -5 q-23 -5 -33.5 -18.5 q-10.5 -13.5 -10.5 -41.5 l0 -450 q0 -41 21 -58.5 q21 -17.5 82 -17.5 ZM333 -201 q-26 0 -40.5 14 q-14.5 14 -14.5 40 q0 25 14.5 38.5 q14.5 13.5 40.5 13.5 q25 0 39 -13.5 q14 -13.5 14 -38.5 q0 -26 -13.5 -40 q-13.5 -14 -39.5 -14 Z" /><glyph glyph-name="uni1E0E" unicode="&#x1e0e;" d="M318 -4 q-31 0 -72 3 q-15 1 -38 2 q-23 1 -52 1 l-71 -1 q-19 -1 -53 -1 q-2 0 -2 6 q0 6 2 6 q34 0 49.5 5 q15.5 5 21.5 19.5 q6 14.5 6 44.5 l0 463 q0 30 -5.5 44 q-5.5 14 -21.5 19.5 q-16 5.5 -49 5.5 q-2 0 -2 6 q0 6 2 6 l53 -1 q44 -2 70 -2 q40 0 81 3 q50 2 67 2 q102 0 181 -40 q79 -40 122.5 -109 q43.5 -69 43.5 -155 q0 -97 -45 -171.5 q-45 -74.5 -121 -115 q-76 -40.5 -167 -40.5 ZM308 16 q69 0 122.5 33 q53.5 33 83.5 97.5 q30 64.5 30 154.5 q0 86 -28.5 155.5 q-28.5 69.5 -80.5 110 q-52 40.5 -121 40.5 q-42 0 -65 -5 q-23 -5 -33.5 -18.5 q-10.5 -13.5 -10.5 -41.5 l0 -450 q0 -41 21 -58.5 q21 -17.5 82 -17.5 ZM206 -119 q-4 0 -6 5 q-2 5 -2 12 q0 6 2 11.5 q2 5.5 6 5.5 l251 0 q4 0 6.5 -5 q2.5 -5 2.5 -12 q0 -7 -2.5 -12 q-2.5 -5 -6.5 -5 l-251 0 Z" /><glyph glyph-name="E" unicode="e" d="M489 156 q0 2 4 2 q3 0 5.5 -1.5 q2.5 -1.5 2.5 -2.5 q-10 -76 -10 -139 q0 -8 -3 -11.5 q-3 -3.5 -12 -3.5 l-434 0 q-3 0 -3 6 q0 6 3 6 q34 0 49.5 5 q15.5 5 21 19.5 q5.5 14.5 5.5 44.5 l0 463 q0 30 -5.5 44 q-5.5 14 -21.5 19.5 q-16 5.5 -49 5.5 q-3 0 -3 6 q0 6 3 6 l416 0 q10 0 10 -9 l2 -130 q0 -2 -5.5 -3 q-5.5 -1 -6.5 2 q-24 114 -139 114 l-40 0 q-36 0 -51 -13 q-15 -13 -15 -44 l0 -204 l96 0 q110 0 110 74 q0 3 5.5 3 q5.5 0 5.5 -3 l-1 -87 l1 -47 q2 -32 2 -52 q0 -2 -6 -2 q-6 0 -6 2 q0 86 -112 86 l-95 0 l0 -227 q0 -33 12.5 -46 q12.5 -13 44.5 -13 l49 0 q134 0 170 130 Z" /><glyph glyph-name="Eacute" unicode="é" d="M197 678 q-4 0 -5 4.5 q-1 4.5 2 6.5 q32 19 88 63 q46 35 50 38 q5 4 32 -4 q27 -8 47.5 -18 q20.5 -10 9.5 -12 q-62 -15 -113.5 -33.5 q-51.5 -18.5 -108.5 -43.5 l-2 -1 ZM489 156 q0 2 4 2 q3 0 5.5 -1.5 q2.5 -1.5 2.5 -2.5 q-10 -76 -10 -139 q0 -8 -3 -11.5 q-3 -3.5 -12 -3.5 l-434 0 q-3 0 -3 6 q0 6 3 6 q34 0 49.5 5 q15.5 5 21 19.5 q5.5 14.5 5.5 44.5 l0 463 q0 30 -5.5 44 q-5.5 14 -21.5 19.5 q-16 5.5 -49 5.5 q-3 0 -3 6 q0 6 3 6 l416 0 q10 0 10 -9 l2 -130 q0 -2 -5.5 -3 q-5.5 -1 -6.5 2 q-24 114 -139 114 l-40 0 q-36 0 -51 -13 q-15 -13 -15 -44 l0 -204 l96 0 q110 0 110 74 q0 3 5.5 3 q5.5 0 5.5 -3 l-1 -87 l1 -47 q2 -32 2 -52 q0 -2 -6 -2 q-6 0 -6 2 q0 86 -112 86 l-95 0 l0 -227 q0 -33 12.5 -46 q12.5 -13 44.5 -13 l49 0 q134 0 170 130 Z" /><glyph glyph-name="Ebreve" unicode="&#x114;" d="M296 690 q-48 0 -74.5 31 q-26.5 31 -28.5 89 q0 4 5 4 q5 0 6 -2 q2 -21 29 -38.5 q27 -17.5 63 -17.5 q35 0 62 17.5 q27 17.5 29 38.5 q0 3 5.5 2.5 q5.5 -0.5 5.5 -4.5 q-2 -58 -28 -89 q-26 -31 -74 -31 ZM489 156 q0 2 4 2 q3 0 5.5 -1.5 q2.5 -1.5 2.5 -2.5 q-10 -76 -10 -139 q0 -8 -3 -11.5 q-3 -3.5 -12 -3.5 l-434 0 q-3 0 -3 6 q0 6 3 6 q34 0 49.5 5 q15.5 5 21 19.5 q5.5 14.5 5.5 44.5 l0 463 q0 30 -5.5 44 q-5.5 14 -21.5 19.5 q-16 5.5 -49 5.5 q-3 0 -3 6 q0 6 3 6 l416 0 q10 0 10 -9 l2 -130 q0 -2 -5.5 -3 q-5.5 -1 -6.5 2 q-24 114 -139 114 l-40 0 q-36 0 -51 -13 q-15 -13 -15 -44 l0 -204 l96 0 q110 0 110 74 q0 3 5.5 3 q5.5 0 5.5 -3 l-1 -87 l1 -47 q2 -32 2 -52 q0 -2 -6 -2 q-6 0 -6 2 q0 86 -112 86 l-95 0 l0 -227 q0 -33 12.5 -46 q12.5 -13 44.5 -13 l49 0 q134 0 170 130 Z" /><glyph glyph-name="Ecaron" unicode="&#x11a;" d="M181 796 l0 1 q0 3 2.5 5.5 q2.5 2.5 3.5 0.5 l109 -45 l108 46 l1 0 q3 0 4.5 -2.5 q1.5 -2.5 -0.5 -4.5 l-102 -110 q-4 -4 -11 -4 q-8 0 -12 4 l-103 109 ZM489 156 q0 2 4 2 q3 0 5.5 -1.5 q2.5 -1.5 2.5 -2.5 q-10 -76 -10 -139 q0 -8 -3 -11.5 q-3 -3.5 -12 -3.5 l-434 0 q-3 0 -3 6 q0 6 3 6 q34 0 49.5 5 q15.5 5 21 19.5 q5.5 14.5 5.5 44.5 l0 463 q0 30 -5.5 44 q-5.5 14 -21.5 19.5 q-16 5.5 -49 5.5 q-3 0 -3 6 q0 6 3 6 l416 0 q10 0 10 -9 l2 -130 q0 -2 -5.5 -3 q-5.5 -1 -6.5 2 q-24 114 -139 114 l-40 0 q-36 0 -51 -13 q-15 -13 -15 -44 l0 -204 l96 0 q110 0 110 74 q0 3 5.5 3 q5.5 0 5.5 -3 l-1 -87 l1 -47 q2 -32 2 -52 q0 -2 -6 -2 q-6 0 -6 2 q0 86 -112 86 l-95 0 l0 -227 q0 -33 12.5 -46 q12.5 -13 44.5 -13 l49 0 q134 0 170 130 Z" /><glyph glyph-name="Ecircumflex" unicode="ê" d="M188 692 q-2 -1 -5 2.5 q-3 3.5 -1 4.5 l103 110 q5 5 12 5 q6 0 11 -5 l102 -110 q1 0 1 -2 q0 -2 -2.5 -4 q-2.5 -2 -3.5 -1 l-108 45 l-109 -45 ZM489 156 q0 2 4 2 q3 0 5.5 -1.5 q2.5 -1.5 2.5 -2.5 q-10 -76 -10 -139 q0 -8 -3 -11.5 q-3 -3.5 -12 -3.5 l-434 0 q-3 0 -3 6 q0 6 3 6 q34 0 49.5 5 q15.5 5 21 19.5 q5.5 14.5 5.5 44.5 l0 463 q0 30 -5.5 44 q-5.5 14 -21.5 19.5 q-16 5.5 -49 5.5 q-3 0 -3 6 q0 6 3 6 l416 0 q10 0 10 -9 l2 -130 q0 -2 -5.5 -3 q-5.5 -1 -6.5 2 q-24 114 -139 114 l-40 0 q-36 0 -51 -13 q-15 -13 -15 -44 l0 -204 l96 0 q110 0 110 74 q0 3 5.5 3 q5.5 0 5.5 -3 l-1 -87 l1 -47 q2 -32 2 -52 q0 -2 -6 -2 q-6 0 -6 2 q0 86 -112 86 l-95 0 l0 -227 q0 -33 12.5 -46 q12.5 -13 44.5 -13 l49 0 q134 0 170 130 Z" /><glyph glyph-name="uni1EBE" unicode="&#x1ebe;" d="M417 851 q3 5 30 -2 q27 -7 48.5 -18 q21.5 -11 11.5 -14 q-41 -15 -74.5 -33.5 q-33.5 -18.5 -71.5 -43.5 q-1 -1 -3 -1 q-3 0 -5 4 q-2 4 0 6 q36 50 64 102 ZM187 648 q-2 -1 -5 2.5 q-3 3.5 -1 4.5 l103 110 q5 5 12 5 q6 0 11 -5 l102 -110 q1 0 1 -2 q0 -2 -2.5 -4 q-2.5 -2 -3.5 -1 l-108 45 l-109 -45 ZM489 156 q0 2 4 2 q3 0 5.5 -1.5 q2.5 -1.5 2.5 -2.5 q-10 -76 -10 -139 q0 -8 -3 -11.5 q-3 -3.5 -12 -3.5 l-434 0 q-3 0 -3 6 q0 6 3 6 q34 0 49.5 5 q15.5 5 21 19.5 q5.5 14.5 5.5 44.5 l0 463 q0 30 -5.5 44 q-5.5 14 -21.5 19.5 q-16 5.5 -49 5.5 q-3 0 -3 6 q0 6 3 6 l416 0 q10 0 10 -9 l2 -130 q0 -2 -5.5 -3 q-5.5 -1 -6.5 2 q-24 114 -139 114 l-40 0 q-36 0 -51 -13 q-15 -13 -15 -44 l0 -204 l96 0 q110 0 110 74 q0 3 5.5 3 q5.5 0 5.5 -3 l-1 -87 l1 -47 q2 -32 2 -52 q0 -2 -6 -2 q-6 0 -6 2 q0 86 -112 86 l-95 0 l0 -227 q0 -33 12.5 -46 q12.5 -13 44.5 -13 l49 0 q134 0 170 130 Z" /><glyph glyph-name="uni1EC6" unicode="&#x1ec6;" d="M187 648 q-2 -1 -5 2.5 q-3 3.5 -1 4.5 l103 110 q5 5 12 5 q6 0 11 -5 l102 -110 q1 0 1 -2 q0 -2 -2.5 -4 q-2.5 -2 -3.5 -1 l-108 45 l-109 -45 ZM489 156 q0 2 4 2 q3 0 5.5 -1.5 q2.5 -1.5 2.5 -2.5 q-10 -76 -10 -139 q0 -8 -3 -11.5 q-3 -3.5 -12 -3.5 l-434 0 q-3 0 -3 6 q0 6 3 6 q34 0 49.5 5 q15.5 5 21 19.5 q5.5 14.5 5.5 44.5 l0 463 q0 30 -5.5 44 q-5.5 14 -21.5 19.5 q-16 5.5 -49 5.5 q-3 0 -3 6 q0 6 3 6 l416 0 q10 0 10 -9 l2 -130 q0 -2 -5.5 -3 q-5.5 -1 -6.5 2 q-24 114 -139 114 l-40 0 q-36 0 -51 -13 q-15 -13 -15 -44 l0 -204 l96 0 q110 0 110 74 q0 3 5.5 3 q5.5 0 5.5 -3 l-1 -87 l1 -47 q2 -32 2 -52 q0 -2 -6 -2 q-6 0 -6 2 q0 86 -112 86 l-95 0 l0 -227 q0 -33 12.5 -46 q12.5 -13 44.5 -13 l49 0 q134 0 170 130 ZM295 -95 q25 0 39 -13.5 q14 -13.5 14 -38.5 q0 -26 -13.5 -40 q-13.5 -14 -39.5 -14 q-26 0 -40.5 14 q-14.5 14 -14.5 40 q0 25 14.5 38.5 q14.5 13.5 40.5 13.5 Z" /><glyph glyph-name="uni1EC0" unicode="&#x1ec0;" d="M310 796 q-10 3 11 14 q21 11 48 18 q27 7 30 2 q35 -62 62 -101 q1 -1 1 -4 q0 -3 -2.5 -5 q-2.5 -2 -6.5 -1 q-38 25 -70.5 43 q-32.5 18 -72.5 34 ZM187 648 q-2 -1 -5 2.5 q-3 3.5 -1 4.5 l103 110 q5 5 12 5 q6 0 11 -5 l102 -110 q1 0 1 -2 q0 -2 -2.5 -4 q-2.5 -2 -3.5 -1 l-108 45 l-109 -45 ZM489 156 q0 2 4 2 q3 0 5.5 -1.5 q2.5 -1.5 2.5 -2.5 q-10 -76 -10 -139 q0 -8 -3 -11.5 q-3 -3.5 -12 -3.5 l-434 0 q-3 0 -3 6 q0 6 3 6 q34 0 49.5 5 q15.5 5 21 19.5 q5.5 14.5 5.5 44.5 l0 463 q0 30 -5.5 44 q-5.5 14 -21.5 19.5 q-16 5.5 -49 5.5 q-3 0 -3 6 q0 6 3 6 l416 0 q10 0 10 -9 l2 -130 q0 -2 -5.5 -3 q-5.5 -1 -6.5 2 q-24 114 -139 114 l-40 0 q-36 0 -51 -13 q-15 -13 -15 -44 l0 -204 l96 0 q110 0 110 74 q0 3 5.5 3 q5.5 0 5.5 -3 l-1 -87 l1 -47 q2 -32 2 -52 q0 -2 -6 -2 q-6 0 -6 2 q0 86 -112 86 l-95 0 l0 -227 q0 -33 12.5 -46 q12.5 -13 44.5 -13 l49 0 q134 0 170 130 Z" /><glyph glyph-name="uni1EC2" unicode="&#x1ec2;" d="M349 841 q-2 0 -4.5 3.5 q-2.5 3.5 -0.5 5.5 q29 18 61 18 q24 0 38.5 -12.5 q14.5 -12.5 14.5 -30.5 q0 -14 -9 -25.5 q-9 -11.5 -26 -26.5 q-16 -15 -23.5 -25 q-7.5 -10 -6.5 -21 q1 -2 -4.5 -2.5 q-5.5 -0.5 -6.5 2.5 q-2 10 -2 13 q0 9 3.5 19.5 q3.5 10.5 7.5 19.5 q11 22 11 36 q0 15 -9.5 23 q-9.5 8 -21.5 8 q-8 0 -20 -4 l-2 -1 ZM187 648 q-2 -1 -5 2.5 q-3 3.5 -1 4.5 l103 110 q5 5 12 5 q6 0 11 -5 l102 -110 q1 0 1 -2 q0 -2 -2.5 -4 q-2.5 -2 -3.5 -1 l-108 45 l-109 -45 ZM489 156 q0 2 4 2 q3 0 5.5 -1.5 q2.5 -1.5 2.5 -2.5 q-10 -76 -10 -139 q0 -8 -3 -11.5 q-3 -3.5 -12 -3.5 l-434 0 q-3 0 -3 6 q0 6 3 6 q34 0 49.5 5 q15.5 5 21 19.5 q5.5 14.5 5.5 44.5 l0 463 q0 30 -5.5 44 q-5.5 14 -21.5 19.5 q-16 5.5 -49 5.5 q-3 0 -3 6 q0 6 3 6 l416 0 q10 0 10 -9 l2 -130 q0 -2 -5.5 -3 q-5.5 -1 -6.5 2 q-24 114 -139 114 l-40 0 q-36 0 -51 -13 q-15 -13 -15 -44 l0 -204 l96 0 q110 0 110 74 q0 3 5.5 3 q5.5 0 5.5 -3 l-1 -87 l1 -47 q2 -32 2 -52 q0 -2 -6 -2 q-6 0 -6 2 q0 86 -112 86 l-95 0 l0 -227 q0 -33 12.5 -46 q12.5 -13 44.5 -13 l49 0 q134 0 170 130 Z" /><glyph glyph-name="uni1EC4" unicode="&#x1ec4;" d="M176 782 q-3 0 -5.5 2.5 q-2.5 2.5 -0.5 4.5 q44 75 86 75 q11 0 49 -10 q49 -15 74 -15 q16 0 27 6.5 q11 6.5 23 20.5 l2 1 q2 0 4 -3 q2 -3 1 -5 q-26 -44 -43 -59 q-17 -15 -39 -15 q-20 0 -57 11 q-17 5 -35.5 9 q-18.5 4 -34.5 4 q-19 0 -27 -5.5 q-8 -5.5 -23 -21.5 l-1 0 ZM409 655 q1 0 1 -2 q0 -2 -2.5 -4 q-2.5 -2 -3.5 -1 l-108 45 l-109 -45 q-2 -1 -5 2.5 q-3 3.5 -1 4.5 l103 110 q5 5 12 5 q6 0 11 -5 l102 -110 ZM489 156 q0 2 4 2 q3 0 5.5 -1.5 q2.5 -1.5 2.5 -2.5 q-10 -76 -10 -139 q0 -8 -3 -11.5 q-3 -3.5 -12 -3.5 l-434 0 q-3 0 -3 6 q0 6 3 6 q34 0 49.5 5 q15.5 5 21 19.5 q5.5 14.5 5.5 44.5 l0 463 q0 30 -5.5 44 q-5.5 14 -21.5 19.5 q-16 5.5 -49 5.5 q-3 0 -3 6 q0 6 3 6 l416 0 q10 0 10 -9 l2 -130 q0 -2 -5.5 -3 q-5.5 -1 -6.5 2 q-24 114 -139 114 l-40 0 q-36 0 -51 -13 q-15 -13 -15 -44 l0 -204 l96 0 q110 0 110 74 q0 3 5.5 3 q5.5 0 5.5 -3 l-1 -87 l1 -47 q2 -32 2 -52 q0 -2 -6 -2 q-6 0 -6 2 q0 86 -112 86 l-95 0 l0 -227 q0 -33 12.5 -46 q12.5 -13 44.5 -13 l49 0 q134 0 170 130 Z" /><glyph glyph-name="Edieresis" unicode="ë" d="M210 708 q-24 0 -37.5 13 q-13.5 13 -13.5 37 q0 23 13.5 35.5 q13.5 12.5 37.5 12.5 q23 0 35.5 -12.5 q12.5 -12.5 12.5 -35.5 q0 -24 -12.5 -37 q-12.5 -13 -35.5 -13 ZM384 708 q-23 0 -36.5 13 q-13.5 13 -13.5 37 q0 22 13.5 35 q13.5 13 36.5 13 q23 0 36 -12.5 q13 -12.5 13 -35.5 q0 -24 -13 -37 q-13 -13 -36 -13 ZM489 156 q0 2 4 2 q3 0 5.5 -1.5 q2.5 -1.5 2.5 -2.5 q-10 -76 -10 -139 q0 -8 -3 -11.5 q-3 -3.5 -12 -3.5 l-434 0 q-3 0 -3 6 q0 6 3 6 q34 0 49.5 5 q15.5 5 21 19.5 q5.5 14.5 5.5 44.5 l0 463 q0 30 -5.5 44 q-5.5 14 -21.5 19.5 q-16 5.5 -49 5.5 q-3 0 -3 6 q0 6 3 6 l416 0 q10 0 10 -9 l2 -130 q0 -2 -5.5 -3 q-5.5 -1 -6.5 2 q-24 114 -139 114 l-40 0 q-36 0 -51 -13 q-15 -13 -15 -44 l0 -204 l96 0 q110 0 110 74 q0 3 5.5 3 q5.5 0 5.5 -3 l-1 -87 l1 -47 q2 -32 2 -52 q0 -2 -6 -2 q-6 0 -6 2 q0 86 -112 86 l-95 0 l0 -227 q0 -33 12.5 -46 q12.5 -13 44.5 -13 l49 0 q134 0 170 130 Z" /><glyph glyph-name="Edotaccent" unicode="&#x116;" d="M297 713 q-26 0 -40.5 14.5 q-14.5 14.5 -14.5 40.5 q0 24 14.5 38.5 q14.5 14.5 40.5 14.5 q25 0 39 -14.5 q14 -14.5 14 -38.5 q0 -26 -14 -40.5 q-14 -14.5 -39 -14.5 ZM489 156 q0 2 4 2 q3 0 5.5 -1.5 q2.5 -1.5 2.5 -2.5 q-10 -76 -10 -139 q0 -8 -3 -11.5 q-3 -3.5 -12 -3.5 l-434 0 q-3 0 -3 6 q0 6 3 6 q34 0 49.5 5 q15.5 5 21 19.5 q5.5 14.5 5.5 44.5 l0 463 q0 30 -5.5 44 q-5.5 14 -21.5 19.5 q-16 5.5 -49 5.5 q-3 0 -3 6 q0 6 3 6 l416 0 q10 0 10 -9 l2 -130 q0 -2 -5.5 -3 q-5.5 -1 -6.5 2 q-24 114 -139 114 l-40 0 q-36 0 -51 -13 q-15 -13 -15 -44 l0 -204 l96 0 q110 0 110 74 q0 3 5.5 3 q5.5 0 5.5 -3 l-1 -87 l1 -47 q2 -32 2 -52 q0 -2 -6 -2 q-6 0 -6 2 q0 86 -112 86 l-95 0 l0 -227 q0 -33 12.5 -46 q12.5 -13 44.5 -13 l49 0 q134 0 170 130 Z" /><glyph glyph-name="uni1EB8" unicode="&#x1eb8;" d="M489 156 q0 2 4 2 q3 0 5.5 -1.5 q2.5 -1.5 2.5 -2.5 q-10 -76 -10 -139 q0 -8 -3 -11.5 q-3 -3.5 -12 -3.5 l-434 0 q-3 0 -3 6 q0 6 3 6 q34 0 49.5 5 q15.5 5 21 19.5 q5.5 14.5 5.5 44.5 l0 463 q0 30 -5.5 44 q-5.5 14 -21.5 19.5 q-16 5.5 -49 5.5 q-3 0 -3 6 q0 6 3 6 l416 0 q10 0 10 -9 l2 -130 q0 -2 -5.5 -3 q-5.5 -1 -6.5 2 q-24 114 -139 114 l-40 0 q-36 0 -51 -13 q-15 -13 -15 -44 l0 -204 l96 0 q110 0 110 74 q0 3 5.5 3 q5.5 0 5.5 -3 l-1 -87 l1 -47 q2 -32 2 -52 q0 -2 -6 -2 q-6 0 -6 2 q0 86 -112 86 l-95 0 l0 -227 q0 -33 12.5 -46 q12.5 -13 44.5 -13 l49 0 q134 0 170 130 ZM295 -95 q25 0 39 -13.5 q14 -13.5 14 -38.5 q0 -26 -13.5 -40 q-13.5 -14 -39.5 -14 q-26 0 -40.5 14 q-14.5 14 -14.5 40 q0 25 14.5 38.5 q14.5 13.5 40.5 13.5 Z" /><glyph glyph-name="Egrave" unicode="è" d="M173 756 q-10 2 10.5 12 q20.5 10 47 18 q26.5 8 31.5 4 q30 -22 45 -34 q61 -46 93 -67 q2 -1 2 -4 q0 -3 -2 -5 q-2 -2 -4 -1 q-113 50 -223 77 ZM489 156 q0 2 4 2 q3 0 5.5 -1.5 q2.5 -1.5 2.5 -2.5 q-10 -76 -10 -139 q0 -8 -3 -11.5 q-3 -3.5 -12 -3.5 l-434 0 q-3 0 -3 6 q0 6 3 6 q34 0 49.5 5 q15.5 5 21 19.5 q5.5 14.5 5.5 44.5 l0 463 q0 30 -5.5 44 q-5.5 14 -21.5 19.5 q-16 5.5 -49 5.5 q-3 0 -3 6 q0 6 3 6 l416 0 q10 0 10 -9 l2 -130 q0 -2 -5.5 -3 q-5.5 -1 -6.5 2 q-24 114 -139 114 l-40 0 q-36 0 -51 -13 q-15 -13 -15 -44 l0 -204 l96 0 q110 0 110 74 q0 3 5.5 3 q5.5 0 5.5 -3 l-1 -87 l1 -47 q2 -32 2 -52 q0 -2 -6 -2 q-6 0 -6 2 q0 86 -112 86 l-95 0 l0 -227 q0 -33 12.5 -46 q12.5 -13 44.5 -13 l49 0 q134 0 170 130 Z" /><glyph glyph-name="uni1EBA" unicode="&#x1eba;" d="M249 814 q-4 0 -6.5 3.5 q-2.5 3.5 0.5 4.5 q32 26 76 26 q31 0 49.5 -14.5 q18.5 -14.5 18.5 -37.5 q0 -20 -12.5 -37.5 q-12.5 -17.5 -35.5 -39.5 q-22 -23 -32 -37.5 q-10 -14.5 -9 -30.5 q0 -2 -5.5 -2 q-5.5 0 -6.5 2 q-2 8 -2 22 q0 16 4 29 q4 13 13 32 q15 30 15 52 q0 37 -33 37 q-16 0 -33 -9 l-1 0 ZM489 156 q0 2 4 2 q3 0 5.5 -1.5 q2.5 -1.5 2.5 -2.5 q-10 -76 -10 -139 q0 -8 -3 -11.5 q-3 -3.5 -12 -3.5 l-434 0 q-3 0 -3 6 q0 6 3 6 q34 0 49.5 5 q15.5 5 21 19.5 q5.5 14.5 5.5 44.5 l0 463 q0 30 -5.5 44 q-5.5 14 -21.5 19.5 q-16 5.5 -49 5.5 q-3 0 -3 6 q0 6 3 6 l416 0 q10 0 10 -9 l2 -130 q0 -2 -5.5 -3 q-5.5 -1 -6.5 2 q-24 114 -139 114 l-40 0 q-36 0 -51 -13 q-15 -13 -15 -44 l0 -204 l96 0 q110 0 110 74 q0 3 5.5 3 q5.5 0 5.5 -3 l-1 -87 l1 -47 q2 -32 2 -52 q0 -2 -6 -2 q-6 0 -6 2 q0 86 -112 86 l-95 0 l0 -227 q0 -33 12.5 -46 q12.5 -13 44.5 -13 l49 0 q134 0 170 130 Z" /><glyph glyph-name="Emacron" unicode="&#x112;" d="M170 716 q-4 0 -6 5.5 q-2 5.5 -2 11.5 q0 7 2 12 q2 5 6 5 l251 0 q4 0 6.5 -5 q2.5 -5 2.5 -12 q0 -7 -2.5 -12 q-2.5 -5 -6.5 -5 l-251 0 ZM489 156 q0 2 4 2 q3 0 5.5 -1.5 q2.5 -1.5 2.5 -2.5 q-10 -76 -10 -139 q0 -8 -3 -11.5 q-3 -3.5 -12 -3.5 l-434 0 q-3 0 -3 6 q0 6 3 6 q34 0 49.5 5 q15.5 5 21 19.5 q5.5 14.5 5.5 44.5 l0 463 q0 30 -5.5 44 q-5.5 14 -21.5 19.5 q-16 5.5 -49 5.5 q-3 0 -3 6 q0 6 3 6 l416 0 q10 0 10 -9 l2 -130 q0 -2 -5.5 -3 q-5.5 -1 -6.5 2 q-24 114 -139 114 l-40 0 q-36 0 -51 -13 q-15 -13 -15 -44 l0 -204 l96 0 q110 0 110 74 q0 3 5.5 3 q5.5 0 5.5 -3 l-1 -87 l1 -47 q2 -32 2 -52 q0 -2 -6 -2 q-6 0 -6 2 q0 86 -112 86 l-95 0 l0 -227 q0 -33 12.5 -46 q12.5 -13 44.5 -13 l49 0 q134 0 170 130 Z" /><glyph glyph-name="Eogonek" unicode="&#x118;" d="M503 -222 q3 0 5.5 -3 q2.5 -3 -0.5 -5 q-53 -45 -111 -45 q-51 0 -83.5 30 q-32.5 30 -32.5 76 q0 82 118 169 l-357 0 q-3 0 -3 6 q0 6 3 6 q34 0 49.5 5 q15.5 5 21 19.5 q5.5 14.5 5.5 44.5 l0 463 q0 30 -5.5 44 q-5.5 14 -21.5 19.5 q-16 5.5 -49 5.5 q-3 0 -3 6 q0 6 3 6 l416 0 q10 0 10 -9 l2 -130 q0 -2 -5.5 -3 q-5.5 -1 -6.5 2 q-24 114 -139 114 l-40 0 q-36 0 -51 -13 q-15 -13 -15 -44 l0 -204 l96 0 q110 0 110 74 q0 3 5.5 3 q5.5 0 5.5 -3 l-1 -87 l1 -47 q2 -32 2 -52 q0 -2 -6 -2 q-6 0 -6 2 q0 86 -112 86 l-95 0 l0 -227 q0 -33 12.5 -46 q12.5 -13 44.5 -13 l49 0 q134 0 170 130 q0 2 4 2 q3 0 5.5 -1.5 q2.5 -1.5 2.5 -2.5 q-10 -76 -10 -139 q0 -8 -3 -11.5 q-3 -3.5 -12 -3.5 l-57 0 q-34 -33 -49 -61.5 q-15 -28.5 -15 -64.5 q0 -50 25.5 -80.5 q25.5 -30.5 70.5 -30.5 q14 0 28 4.5 q14 4.5 22 10.5 l2 0 Z" /><glyph glyph-name="uni1EBC" unicode="&#x1ebc;" d="M173 697 q-3 0 -5.5 2.5 q-2.5 2.5 -0.5 4.5 q43 75 87 75 q11 0 47 -10 q46 -14 75 -14 q17 0 27.5 6 q10.5 6 22.5 21 l1 0 q3 0 5.5 -2.5 q2.5 -2.5 0.5 -4.5 q-26 -45 -43 -60 q-17 -15 -38 -15 q-16 0 -34.5 5 q-18.5 5 -23.5 6 q-17 5 -35 9 q-18 4 -34 4 q-17 0 -25.5 -4.5 q-8.5 -4.5 -15.5 -12 q-7 -7.5 -10 -10.5 l-1 0 ZM489 156 q0 2 4 2 q3 0 5.5 -1.5 q2.5 -1.5 2.5 -2.5 q-10 -76 -10 -139 q0 -8 -3 -11.5 q-3 -3.5 -12 -3.5 l-434 0 q-3 0 -3 6 q0 6 3 6 q34 0 49.5 5 q15.5 5 21 19.5 q5.5 14.5 5.5 44.5 l0 463 q0 30 -5.5 44 q-5.5 14 -21.5 19.5 q-16 5.5 -49 5.5 q-3 0 -3 6 q0 6 3 6 l416 0 q10 0 10 -9 l2 -130 q0 -2 -5.5 -3 q-5.5 -1 -6.5 2 q-24 114 -139 114 l-40 0 q-36 0 -51 -13 q-15 -13 -15 -44 l0 -204 l96 0 q110 0 110 74 q0 3 5.5 3 q5.5 0 5.5 -3 l-1 -87 l1 -47 q2 -32 2 -52 q0 -2 -6 -2 q-6 0 -6 2 q0 86 -112 86 l-95 0 l0 -227 q0 -33 12.5 -46 q12.5 -13 44.5 -13 l49 0 q134 0 170 130 Z" /><glyph glyph-name="F" unicode="f" d="M470 486 q0 -2 -5.5 -3 q-5.5 -1 -6.5 2 q-24 114 -139 114 l-40 0 q-36 0 -51 -13 q-15 -13 -15 -43 l0 -217 l82 0 q112 0 112 75 q0 2 6 2 q6 0 6 -2 l-1 -88 q0 -31 1 -46 l1 -52 q0 -3 -6 -3 q-6 0 -6 3 q0 85 -115 85 l-80 0 l0 -215 q0 -32 8 -46.5 q8 -14.5 31.5 -20.5 q23.5 -6 72.5 -6 q2 0 2 -6 q0 -6 -2 -6 q-41 0 -64 1 l-98 1 l-73 -1 q-19 -1 -53 -1 q-3 0 -3 6 q0 6 3 6 q36 0 52.5 5 q16.5 5 22.5 19.5 q6 14.5 6 44.5 l0 463 q0 30 -5.5 44 q-5.5 14 -21.5 19.5 q-16 5.5 -49 5.5 q-3 0 -3 6 q0 6 3 6 l416 0 q10 0 10 -9 l2 -130 Z" /><glyph glyph-name="G" unicode="g" d="M408 -12 q-110 0 -191.5 42 q-81.5 42 -124.5 114.5 q-43 72.5 -43 161.5 q0 96 49.5 171.5 q49.5 75.5 136 117 q86.5 41.5 194.5 41.5 q47 0 94 -8 q47 -8 76 -22 q8 -4 10.5 -8 q2.5 -4 3.5 -15 l12 -130 q0 -3 -5 -4 q-5 -1 -7 3 q-30 75 -90 117 q-60 42 -141 42 q-110 0 -169 -71.5 q-59 -71.5 -59 -196.5 q0 -98 36 -175 q36 -77 99.5 -120 q63.5 -43 142.5 -43 q44 0 68 9 q24 9 35.5 35 q11.5 26 11.5 77 q0 52 -6 72.5 q-6 20.5 -26.5 27.5 q-20.5 7 -71.5 7 q-6 0 -6 8 q0 3 1.5 5.5 q1.5 2.5 3.5 2.5 q83 -5 133 -5 q50 0 104 3 q2 0 3.5 -2.5 q1.5 -2.5 1.5 -4.5 q0 -7 -5 -7 q-20 1 -28 -6.5 q-8 -7.5 -10.5 -30.5 q-2.5 -23 -2.5 -80 q0 -45 3.5 -64 q3.5 -19 3.5 -24 q0 -6 -2.5 -7.5 q-2.5 -1.5 -9.5 -4.5 q-126 -28 -225 -28 Z" /><glyph glyph-name="Gbreve" unicode="&#x11e;" d="M394 690 q-48 0 -74.5 31 q-26.5 31 -28.5 89 q0 4 5 4 q5 0 6 -2 q2 -21 29 -38.5 q27 -17.5 63 -17.5 q35 0 62 17.5 q27 17.5 29 38.5 q0 3 5.5 2.5 q5.5 -0.5 5.5 -4.5 q-2 -58 -28 -89 q-26 -31 -74 -31 ZM408 -12 q-110 0 -191.5 42 q-81.5 42 -124.5 114.5 q-43 72.5 -43 161.5 q0 96 49.5 171.5 q49.5 75.5 136 117 q86.5 41.5 194.5 41.5 q47 0 94 -8 q47 -8 76 -22 q8 -4 10.5 -8 q2.5 -4 3.5 -15 l12 -130 q0 -3 -5 -4 q-5 -1 -7 3 q-30 75 -90 117 q-60 42 -141 42 q-110 0 -169 -71.5 q-59 -71.5 -59 -196.5 q0 -98 36 -175 q36 -77 99.5 -120 q63.5 -43 142.5 -43 q44 0 68 9 q24 9 35.5 35 q11.5 26 11.5 77 q0 52 -6 72.5 q-6 20.5 -26.5 27.5 q-20.5 7 -71.5 7 q-6 0 -6 8 q0 3 1.5 5.5 q1.5 2.5 3.5 2.5 q83 -5 133 -5 q50 0 104 3 q2 0 3.5 -2.5 q1.5 -2.5 1.5 -4.5 q0 -7 -5 -7 q-20 1 -28 -6.5 q-8 -7.5 -10.5 -30.5 q-2.5 -23 -2.5 -80 q0 -45 3.5 -64 q3.5 -19 3.5 -24 q0 -6 -2.5 -7.5 q-2.5 -1.5 -9.5 -4.5 q-126 -28 -225 -28 Z" /><glyph glyph-name="Gcaron" unicode="&#x1e6;" d="M279 796 l0 1 q0 3 2.5 5.5 q2.5 2.5 3.5 0.5 l109 -45 l108 46 l1 0 q3 0 4.5 -2.5 q1.5 -2.5 -0.5 -4.5 l-102 -110 q-4 -4 -11 -4 q-8 0 -12 4 l-103 109 ZM408 -12 q-110 0 -191.5 42 q-81.5 42 -124.5 114.5 q-43 72.5 -43 161.5 q0 96 49.5 171.5 q49.5 75.5 136 117 q86.5 41.5 194.5 41.5 q47 0 94 -8 q47 -8 76 -22 q8 -4 10.5 -8 q2.5 -4 3.5 -15 l12 -130 q0 -3 -5 -4 q-5 -1 -7 3 q-30 75 -90 117 q-60 42 -141 42 q-110 0 -169 -71.5 q-59 -71.5 -59 -196.5 q0 -98 36 -175 q36 -77 99.5 -120 q63.5 -43 142.5 -43 q44 0 68 9 q24 9 35.5 35 q11.5 26 11.5 77 q0 52 -6 72.5 q-6 20.5 -26.5 27.5 q-20.5 7 -71.5 7 q-6 0 -6 8 q0 3 1.5 5.5 q1.5 2.5 3.5 2.5 q83 -5 133 -5 q50 0 104 3 q2 0 3.5 -2.5 q1.5 -2.5 1.5 -4.5 q0 -7 -5 -7 q-20 1 -28 -6.5 q-8 -7.5 -10.5 -30.5 q-2.5 -23 -2.5 -80 q0 -45 3.5 -64 q3.5 -19 3.5 -24 q0 -6 -2.5 -7.5 q-2.5 -1.5 -9.5 -4.5 q-126 -28 -225 -28 Z" /><glyph glyph-name="Gcircumflex" unicode="&#x11c;" d="M383 809 q5 5 12 5 q6 0 11 -5 l102 -110 q1 0 1 -2 q0 -2 -2.5 -4 q-2.5 -2 -3.5 -1 l-108 45 l-109 -45 q-2 -1 -5 2.5 q-3 3.5 -1 4.5 l103 110 ZM408 -12 q-110 0 -191.5 42 q-81.5 42 -124.5 114.5 q-43 72.5 -43 161.5 q0 96 49.5 171.5 q49.5 75.5 136 117 q86.5 41.5 194.5 41.5 q47 0 94 -8 q47 -8 76 -22 q8 -4 10.5 -8 q2.5 -4 3.5 -15 l12 -130 q0 -3 -5 -4 q-5 -1 -7 3 q-30 75 -90 117 q-60 42 -141 42 q-110 0 -169 -71.5 q-59 -71.5 -59 -196.5 q0 -98 36 -175 q36 -77 99.5 -120 q63.5 -43 142.5 -43 q44 0 68 9 q24 9 35.5 35 q11.5 26 11.5 77 q0 52 -6 72.5 q-6 20.5 -26.5 27.5 q-20.5 7 -71.5 7 q-6 0 -6 8 q0 3 1.5 5.5 q1.5 2.5 3.5 2.5 q83 -5 133 -5 q50 0 104 3 q2 0 3.5 -2.5 q1.5 -2.5 1.5 -4.5 q0 -7 -5 -7 q-20 1 -28 -6.5 q-8 -7.5 -10.5 -30.5 q-2.5 -23 -2.5 -80 q0 -45 3.5 -64 q3.5 -19 3.5 -24 q0 -6 -2.5 -7.5 q-2.5 -1.5 -9.5 -4.5 q-126 -28 -225 -28 Z" /><glyph glyph-name="Gcommaaccent" unicode="&#x122;" d="M679 247 q2 0 3.5 -2.5 q1.5 -2.5 1.5 -4.5 q0 -7 -5 -7 q-20 1 -28 -6.5 q-8 -7.5 -10.5 -30.5 q-2.5 -23 -2.5 -80 q0 -45 3.5 -64 q3.5 -19 3.5 -24 q0 -6 -2.5 -7.5 q-2.5 -1.5 -9.5 -4.5 q-126 -28 -225 -28 q-110 0 -191.5 42 q-81.5 42 -124.5 114.5 q-43 72.5 -43 161.5 q0 96 49.5 171.5 q49.5 75.5 136 117 q86.5 41.5 194.5 41.5 q47 0 94 -8 q47 -8 76 -22 q8 -4 10.5 -8 q2.5 -4 3.5 -15 l12 -130 q0 -3 -5 -4 q-5 -1 -7 3 q-30 75 -90 117 q-60 42 -141 42 q-110 0 -169 -71.5 q-59 -71.5 -59 -196.5 q0 -98 36 -175 q36 -77 99.5 -120 q63.5 -43 142.5 -43 q44 0 68 9 q24 9 35.5 35 q11.5 26 11.5 77 q0 52 -6 72.5 q-6 20.5 -26.5 27.5 q-20.5 7 -71.5 7 q-6 0 -6 8 q0 3 1.5 5.5 q1.5 2.5 3.5 2.5 q83 -5 133 -5 q50 0 104 3 ZM412 -74 q32 0 49 -21 q17 -21 17 -58 q0 -37 -18.5 -66 q-18.5 -29 -52.5 -56 l-2 -1 q-4 0 -6 4 q-2 4 1 6 q46 37 46 75 q0 21 -8 31 q-11 -17 -38 -17 q-20 0 -32.5 14 q-12.5 14 -12.5 37 q0 25 16.5 38.5 q16.5 13.5 40.5 13.5 Z" /><glyph glyph-name="Gdotaccent" unicode="&#x120;" d="M395 713 q-26 0 -40.5 14.5 q-14.5 14.5 -14.5 40.5 q0 24 14.5 38.5 q14.5 14.5 40.5 14.5 q25 0 39 -14.5 q14 -14.5 14 -38.5 q0 -26 -14 -40.5 q-14 -14.5 -39 -14.5 ZM408 -12 q-110 0 -191.5 42 q-81.5 42 -124.5 114.5 q-43 72.5 -43 161.5 q0 96 49.5 171.5 q49.5 75.5 136 117 q86.5 41.5 194.5 41.5 q47 0 94 -8 q47 -8 76 -22 q8 -4 10.5 -8 q2.5 -4 3.5 -15 l12 -130 q0 -3 -5 -4 q-5 -1 -7 3 q-30 75 -90 117 q-60 42 -141 42 q-110 0 -169 -71.5 q-59 -71.5 -59 -196.5 q0 -98 36 -175 q36 -77 99.5 -120 q63.5 -43 142.5 -43 q44 0 68 9 q24 9 35.5 35 q11.5 26 11.5 77 q0 52 -6 72.5 q-6 20.5 -26.5 27.5 q-20.5 7 -71.5 7 q-6 0 -6 8 q0 3 1.5 5.5 q1.5 2.5 3.5 2.5 q83 -5 133 -5 q50 0 104 3 q2 0 3.5 -2.5 q1.5 -2.5 1.5 -4.5 q0 -7 -5 -7 q-20 1 -28 -6.5 q-8 -7.5 -10.5 -30.5 q-2.5 -23 -2.5 -80 q0 -45 3.5 -64 q3.5 -19 3.5 -24 q0 -6 -2.5 -7.5 q-2.5 -1.5 -9.5 -4.5 q-126 -28 -225 -28 Z" /><glyph glyph-name="uni1E20" unicode="&#x1e20;" d="M268 716 q-4 0 -6 5.5 q-2 5.5 -2 11.5 q0 7 2 12 q2 5 6 5 l251 0 q4 0 6.5 -5 q2.5 -5 2.5 -12 q0 -7 -2.5 -12 q-2.5 -5 -6.5 -5 l-251 0 ZM408 -12 q-110 0 -191.5 42 q-81.5 42 -124.5 114.5 q-43 72.5 -43 161.5 q0 96 49.5 171.5 q49.5 75.5 136 117 q86.5 41.5 194.5 41.5 q47 0 94 -8 q47 -8 76 -22 q8 -4 10.5 -8 q2.5 -4 3.5 -15 l12 -130 q0 -3 -5 -4 q-5 -1 -7 3 q-30 75 -90 117 q-60 42 -141 42 q-110 0 -169 -71.5 q-59 -71.5 -59 -196.5 q0 -98 36 -175 q36 -77 99.5 -120 q63.5 -43 142.5 -43 q44 0 68 9 q24 9 35.5 35 q11.5 26 11.5 77 q0 52 -6 72.5 q-6 20.5 -26.5 27.5 q-20.5 7 -71.5 7 q-6 0 -6 8 q0 3 1.5 5.5 q1.5 2.5 3.5 2.5 q83 -5 133 -5 q50 0 104 3 q2 0 3.5 -2.5 q1.5 -2.5 1.5 -4.5 q0 -7 -5 -7 q-20 1 -28 -6.5 q-8 -7.5 -10.5 -30.5 q-2.5 -23 -2.5 -80 q0 -45 3.5 -64 q3.5 -19 3.5 -24 q0 -6 -2.5 -7.5 q-2.5 -1.5 -9.5 -4.5 q-126 -28 -225 -28 Z" /><glyph glyph-name="H" unicode="h" d="M729 12 q3 0 3 -6 q0 -6 -3 -6 q-34 0 -55 1 l-73 1 l-85 -1 q-18 -1 -48 -1 q-3 0 -3 6 q0 6 3 6 q38 0 55 5 q17 5 23 19 q6 14 6 45 l0 231 l-343 0 l0 -231 q0 -30 6 -44.5 q6 -14.5 23.5 -19.5 q17.5 -5 55.5 -5 q2 0 2 -6 q0 -6 -2 -6 q-34 0 -53 1 l-83 1 l-73 -1 q-19 -1 -53 -1 q-2 0 -2 6 q0 6 2 6 q36 0 53 5 q17 5 23 19.5 q6 14.5 6 44.5 l0 463 q0 30 -6 44 q-6 14 -23 19.5 q-17 5.5 -52 5.5 q-2 0 -2 6 q0 6 2 6 l53 -1 q46 -2 72 -2 q35 0 83 2 l53 1 q2 0 2 -6 q0 -6 -2 -6 q-37 0 -54.5 -6 q-17.5 -6 -24 -20.5 q-6.5 -14.5 -6.5 -44.5 l0 -204 l343 0 l0 204 q0 30 -6 44.5 q-6 14.5 -23.5 20.5 q-17.5 6 -54.5 6 q-3 0 -3 6 q0 6 3 6 l48 -1 q48 -2 85 -2 q27 0 73 2 l55 1 q3 0 3 -6 q0 -6 -3 -6 q-36 0 -52.5 -5.5 q-16.5 -5.5 -22.5 -19.5 q-6 -14 -6 -44 l0 -463 q0 -30 6 -44.5 q6 -14.5 22.5 -19.5 q16.5 -5 52.5 -5 Z" /><glyph glyph-name="Hbar" unicode="&#x126;" d="M729 12 q3 0 3 -6 q0 -6 -3 -6 q-34 0 -55 1 l-73 1 l-85 -1 q-18 -1 -48 -1 q-3 0 -3 6 q0 6 3 6 q38 0 55 5 q17 5 23 19 q6 14 6 45 l0 138 l-343 0 l0 -138 q0 -30 6 -44.5 q6 -14.5 23.5 -19.5 q17.5 -5 55.5 -5 q2 0 2 -6 q0 -6 -2 -6 q-34 0 -53 1 l-83 1 l-73 -1 q-19 -1 -53 -1 q-2 0 -2 6 q0 6 2 6 q36 0 53 5 q17 5 23 19.5 q6 14.5 6 44.5 l0 463 q0 30 -6 44 q-6 14 -23 19.5 q-17 5.5 -52 5.5 q-2 0 -2 6 q0 6 2 6 l53 -1 q46 -2 72 -2 q35 0 83 2 l53 1 q2 0 2 -6 q0 -6 -2 -6 q-37 0 -54.5 -6 q-17.5 -6 -24 -20.5 q-6.5 -14.5 -6.5 -44.5 l0 -110 l343 0 l0 110 q0 30 -6 44.5 q-6 14.5 -23.5 20.5 q-17.5 6 -54.5 6 q-3 0 -3 6 q0 6 3 6 l48 -1 q48 -2 85 -2 q27 0 73 2 l55 1 q3 0 3 -6 q0 -6 -3 -6 q-36 0 -52.5 -5.5 q-16.5 -5.5 -22.5 -19.5 q-6 -14 -6 -44 l0 -463 q0 -30 6 -44.5 q6 -14.5 22.5 -19.5 q16.5 -5 52.5 -5 ZM209 245 l343 0 l0 161 l-343 0 l0 -161 Z" /><glyph glyph-name="uni1E2A" unicode="&#x1e2a;" d="M729 12 q3 0 3 -6 q0 -6 -3 -6 q-34 0 -55 1 l-73 1 l-85 -1 q-18 -1 -48 -1 q-3 0 -3 6 q0 6 3 6 q38 0 55 5 q17 5 23 19 q6 14 6 45 l0 231 l-343 0 l0 -231 q0 -30 6 -44.5 q6 -14.5 23.5 -19.5 q17.5 -5 55.5 -5 q2 0 2 -6 q0 -6 -2 -6 q-34 0 -53 1 l-83 1 l-73 -1 q-19 -1 -53 -1 q-2 0 -2 6 q0 6 2 6 q36 0 53 5 q17 5 23 19.5 q6 14.5 6 44.5 l0 463 q0 30 -6 44 q-6 14 -23 19.5 q-17 5.5 -52 5.5 q-2 0 -2 6 q0 6 2 6 l53 -1 q46 -2 72 -2 q35 0 83 2 l53 1 q2 0 2 -6 q0 -6 -2 -6 q-37 0 -54.5 -6 q-17.5 -6 -24 -20.5 q-6.5 -14.5 -6.5 -44.5 l0 -204 l343 0 l0 204 q0 30 -6 44.5 q-6 14.5 -23.5 20.5 q-17.5 6 -54.5 6 q-3 0 -3 6 q0 6 3 6 l48 -1 q48 -2 85 -2 q27 0 73 2 l55 1 q3 0 3 -6 q0 -6 -3 -6 q-36 0 -52.5 -5.5 q-16.5 -5.5 -22.5 -19.5 q-6 -14 -6 -44 l0 -463 q0 -30 6 -44.5 q6 -14.5 22.5 -19.5 q16.5 -5 52.5 -5 ZM472 -76 q0 2 5.5 1.5 q5.5 -0.5 5.5 -3.5 q0 -77 -26 -117.5 q-26 -40.5 -76 -40.5 q-50 0 -76.5 40.5 q-26.5 40.5 -26.5 117.5 q0 3 5.5 3.5 q5.5 0.5 5.5 -1.5 q0 -36 26.5 -62 q26.5 -26 65.5 -26 q38 0 64.5 26 q26.5 26 26.5 62 Z" /><glyph glyph-name="Hcircumflex" unicode="&#x124;" d="M275 692 q-2 -1 -5 2.5 q-3 3.5 -1 4.5 l103 110 q5 5 12 5 q6 0 11 -5 l102 -110 q1 0 1 -2 q0 -2 -2.5 -4 q-2.5 -2 -3.5 -1 l-108 45 l-109 -45 ZM729 12 q3 0 3 -6 q0 -6 -3 -6 q-34 0 -55 1 l-73 1 l-85 -1 q-18 -1 -48 -1 q-3 0 -3 6 q0 6 3 6 q38 0 55 5 q17 5 23 19 q6 14 6 45 l0 231 l-343 0 l0 -231 q0 -30 6 -44.5 q6 -14.5 23.5 -19.5 q17.5 -5 55.5 -5 q2 0 2 -6 q0 -6 -2 -6 q-34 0 -53 1 l-83 1 l-73 -1 q-19 -1 -53 -1 q-2 0 -2 6 q0 6 2 6 q36 0 53 5 q17 5 23 19.5 q6 14.5 6 44.5 l0 463 q0 30 -6 44 q-6 14 -23 19.5 q-17 5.5 -52 5.5 q-2 0 -2 6 q0 6 2 6 l53 -1 q46 -2 72 -2 q35 0 83 2 l53 1 q2 0 2 -6 q0 -6 -2 -6 q-37 0 -54.5 -6 q-17.5 -6 -24 -20.5 q-6.5 -14.5 -6.5 -44.5 l0 -204 l343 0 l0 204 q0 30 -6 44.5 q-6 14.5 -23.5 20.5 q-17.5 6 -54.5 6 q-3 0 -3 6 q0 6 3 6 l48 -1 q48 -2 85 -2 q27 0 73 2 l55 1 q3 0 3 -6 q0 -6 -3 -6 q-36 0 -52.5 -5.5 q-16.5 -5.5 -22.5 -19.5 q-6 -14 -6 -44 l0 -463 q0 -30 6 -44.5 q6 -14.5 22.5 -19.5 q16.5 -5 52.5 -5 Z" /><glyph glyph-name="uni1E24" unicode="&#x1e24;" d="M729 12 q3 0 3 -6 q0 -6 -3 -6 q-34 0 -55 1 l-73 1 l-85 -1 q-18 -1 -48 -1 q-3 0 -3 6 q0 6 3 6 q38 0 55 5 q17 5 23 19 q6 14 6 45 l0 231 l-343 0 l0 -231 q0 -30 6 -44.5 q6 -14.5 23.5 -19.5 q17.5 -5 55.5 -5 q2 0 2 -6 q0 -6 -2 -6 q-34 0 -53 1 l-83 1 l-73 -1 q-19 -1 -53 -1 q-2 0 -2 6 q0 6 2 6 q36 0 53 5 q17 5 23 19.5 q6 14.5 6 44.5 l0 463 q0 30 -6 44 q-6 14 -23 19.5 q-17 5.5 -52 5.5 q-2 0 -2 6 q0 6 2 6 l53 -1 q46 -2 72 -2 q35 0 83 2 l53 1 q2 0 2 -6 q0 -6 -2 -6 q-37 0 -54.5 -6 q-17.5 -6 -24 -20.5 q-6.5 -14.5 -6.5 -44.5 l0 -204 l343 0 l0 204 q0 30 -6 44.5 q-6 14.5 -23.5 20.5 q-17.5 6 -54.5 6 q-3 0 -3 6 q0 6 3 6 l48 -1 q48 -2 85 -2 q27 0 73 2 l55 1 q3 0 3 -6 q0 -6 -3 -6 q-36 0 -52.5 -5.5 q-16.5 -5.5 -22.5 -19.5 q-6 -14 -6 -44 l0 -463 q0 -30 6 -44.5 q6 -14.5 22.5 -19.5 q16.5 -5 52.5 -5 ZM382 -95 q25 0 39 -13.5 q14 -13.5 14 -38.5 q0 -26 -13.5 -40 q-13.5 -14 -39.5 -14 q-26 0 -40.5 14 q-14.5 14 -14.5 40 q0 25 14.5 38.5 q14.5 13.5 40.5 13.5 Z" /><glyph glyph-name="I" unicode="i" d="M218 81 q0 -31 5 -45 q5 -14 20.5 -19 q15.5 -5 49.5 -5 q3 0 3 -6 q0 -6 -3 -6 q-32 0 -51 1 l-74 1 l-72 -1 q-19 -1 -52 -1 q-3 0 -3 6 q0 6 3 6 q34 0 49.5 5 q15.5 5 21.5 19.5 q6 14.5 6 44.5 l0 463 q0 30 -6 44 q-6 14 -21.5 19.5 q-15.5 5.5 -49.5 5.5 q-3 0 -3 6 q0 6 3 6 l52 -1 q44 -2 72 -2 q31 0 75 2 l50 1 q3 0 3 -6 q0 -6 -3 -6 q-33 0 -48.5 -6 q-15.5 -6 -21 -20.5 q-5.5 -14.5 -5.5 -44.5 l0 -461 Z" /><glyph glyph-name="IJ" unicode="&#x132;" d="M212 350 q0 -31 5.5 -45 q5.5 -14 21 -19 q15.5 -5 50.5 -5 q2 0 2 -6 q0 -6 -2 -6 q-33 0 -52 1 l-74 1 l-70 -1 q-20 -1 -54 -1 q-2 0 -2 6 q0 6 2 6 q34 0 49.5 5 q15.5 5 21.5 19.5 q6 14.5 6 44.5 l0 194 q0 30 -6 44 q-6 14 -21.5 19.5 q-15.5 5.5 -49.5 5.5 q-2 0 -2 6 q0 6 2 6 l54 -1 q44 -2 70 -2 q30 0 76 2 l50 1 q2 0 2 -6 q0 -6 -2 -6 q-34 0 -50 -6 q-16 -6 -21.5 -20.5 q-5.5 -14.5 -5.5 -44.5 l0 -192 ZM665 625 q3 0 3 -6 q0 -6 -3 -6 q-28 0 -41.5 -6 q-13.5 -6 -18 -20.5 q-4.5 -14.5 -4.5 -44.5 l0 -284 q0 -86 -32 -147 q-32 -61 -90 -92.5 q-58 -31.5 -135 -31.5 q-65 0 -119.5 21 q-54.5 21 -86 54.5 q-31.5 33.5 -31.5 69.5 q0 22 13.5 36.5 q13.5 14.5 39.5 14.5 q28 0 39 -17.5 q11 -17.5 19 -52.5 q8 -34 17.5 -55 q9.5 -21 35 -36.5 q25.5 -15.5 72.5 -15.5 q161 0 161 194 l0 344 q0 30 -6.5 44 q-6.5 14 -24.5 19.5 q-18 5.5 -57 5.5 q-3 0 -3 6 q0 6 3 6 l61 -1 q46 -2 74 -2 q27 0 69 2 l45 1 Z" /><glyph glyph-name="Iacute" unicode="í" d="M70 678 q-4 0 -5 4.5 q-1 4.5 2 6.5 q32 19 88 63 q46 35 50 38 q5 4 32 -4 q27 -8 47.5 -18 q20.5 -10 9.5 -12 q-62 -15 -113.5 -33.5 q-51.5 -18.5 -108.5 -43.5 l-2 -1 ZM218 81 q0 -31 5 -45 q5 -14 20.5 -19 q15.5 -5 49.5 -5 q3 0 3 -6 q0 -6 -3 -6 q-32 0 -51 1 l-74 1 l-72 -1 q-19 -1 -52 -1 q-3 0 -3 6 q0 6 3 6 q34 0 49.5 5 q15.5 5 21.5 19.5 q6 14.5 6 44.5 l0 463 q0 30 -6 44 q-6 14 -21.5 19.5 q-15.5 5.5 -49.5 5.5 q-3 0 -3 6 q0 6 3 6 l52 -1 q44 -2 72 -2 q31 0 75 2 l50 1 q3 0 3 -6 q0 -6 -3 -6 q-33 0 -48.5 -6 q-15.5 -6 -21 -20.5 q-5.5 -14.5 -5.5 -44.5 l0 -461 Z" /><glyph glyph-name="Ibreve" unicode="&#x12c;" d="M169 690 q-48 0 -74.5 31 q-26.5 31 -28.5 89 q0 4 5 4 q5 0 6 -2 q2 -21 29 -38.5 q27 -17.5 63 -17.5 q35 0 62 17.5 q27 17.5 29 38.5 q0 3 5.5 2.5 q5.5 -0.5 5.5 -4.5 q-2 -58 -28 -89 q-26 -31 -74 -31 ZM218 81 q0 -31 5 -45 q5 -14 20.5 -19 q15.5 -5 49.5 -5 q3 0 3 -6 q0 -6 -3 -6 q-32 0 -51 1 l-74 1 l-72 -1 q-19 -1 -52 -1 q-3 0 -3 6 q0 6 3 6 q34 0 49.5 5 q15.5 5 21.5 19.5 q6 14.5 6 44.5 l0 463 q0 30 -6 44 q-6 14 -21.5 19.5 q-15.5 5.5 -49.5 5.5 q-3 0 -3 6 q0 6 3 6 l52 -1 q44 -2 72 -2 q31 0 75 2 l50 1 q3 0 3 -6 q0 -6 -3 -6 q-33 0 -48.5 -6 q-15.5 -6 -21 -20.5 q-5.5 -14.5 -5.5 -44.5 l0 -461 Z" /><glyph glyph-name="uni01CF" unicode="&#x1cf;" d="M54 796 l0 1 q0 3 2.5 5.5 q2.5 2.5 3.5 0.5 l109 -45 l108 46 l1 0 q3 0 4.5 -2.5 q1.5 -2.5 -0.5 -4.5 l-102 -110 q-4 -4 -11 -4 q-8 0 -12 4 l-103 109 ZM218 81 q0 -31 5 -45 q5 -14 20.5 -19 q15.5 -5 49.5 -5 q3 0 3 -6 q0 -6 -3 -6 q-32 0 -51 1 l-74 1 l-72 -1 q-19 -1 -52 -1 q-3 0 -3 6 q0 6 3 6 q34 0 49.5 5 q15.5 5 21.5 19.5 q6 14.5 6 44.5 l0 463 q0 30 -6 44 q-6 14 -21.5 19.5 q-15.5 5.5 -49.5 5.5 q-3 0 -3 6 q0 6 3 6 l52 -1 q44 -2 72 -2 q31 0 75 2 l50 1 q3 0 3 -6 q0 -6 -3 -6 q-33 0 -48.5 -6 q-15.5 -6 -21 -20.5 q-5.5 -14.5 -5.5 -44.5 l0 -461 Z" /><glyph glyph-name="Icircumflex" unicode="î" d="M158 809 q5 5 12 5 q6 0 11 -5 l102 -110 q1 0 1 -2 q0 -2 -2.5 -4 q-2.5 -2 -3.5 -1 l-108 45 l-109 -45 q-2 -1 -5 2.5 q-3 3.5 -1 4.5 l103 110 ZM218 81 q0 -31 5 -45 q5 -14 20.5 -19 q15.5 -5 49.5 -5 q3 0 3 -6 q0 -6 -3 -6 q-32 0 -51 1 l-74 1 l-72 -1 q-19 -1 -52 -1 q-3 0 -3 6 q0 6 3 6 q34 0 49.5 5 q15.5 5 21.5 19.5 q6 14.5 6 44.5 l0 463 q0 30 -6 44 q-6 14 -21.5 19.5 q-15.5 5.5 -49.5 5.5 q-3 0 -3 6 q0 6 3 6 l52 -1 q44 -2 72 -2 q31 0 75 2 l50 1 q3 0 3 -6 q0 -6 -3 -6 q-33 0 -48.5 -6 q-15.5 -6 -21 -20.5 q-5.5 -14.5 -5.5 -44.5 l0 -461 Z" /><glyph glyph-name="Idieresis" unicode="ï" d="M95 708 q-24 0 -37.5 13 q-13.5 13 -13.5 37 q0 23 13.5 35.5 q13.5 12.5 37.5 12.5 q23 0 36 -13 q13 -13 13 -35 q0 -24 -13 -37 q-13 -13 -36 -13 ZM244 708 q-23 0 -36.5 13 q-13.5 13 -13.5 37 q0 22 13.5 35 q13.5 13 36.5 13 q23 0 35.5 -12.5 q12.5 -12.5 12.5 -35.5 q0 -24 -12.5 -37 q-12.5 -13 -35.5 -13 ZM218 81 q0 -31 5 -45 q5 -14 20.5 -19 q15.5 -5 49.5 -5 q3 0 3 -6 q0 -6 -3 -6 q-32 0 -51 1 l-74 1 l-72 -1 q-19 -1 -52 -1 q-3 0 -3 6 q0 6 3 6 q34 0 49.5 5 q15.5 5 21.5 19.5 q6 14.5 6 44.5 l0 463 q0 30 -6 44 q-6 14 -21.5 19.5 q-15.5 5.5 -49.5 5.5 q-3 0 -3 6 q0 6 3 6 l52 -1 q44 -2 72 -2 q31 0 75 2 l50 1 q3 0 3 -6 q0 -6 -3 -6 q-33 0 -48.5 -6 q-15.5 -6 -21 -20.5 q-5.5 -14.5 -5.5 -44.5 l0 -461 Z" /><glyph glyph-name="Idotaccent" unicode="&#x130;" d="M170 713 q-26 0 -40.5 14.5 q-14.5 14.5 -14.5 40.5 q0 24 14.5 38.5 q14.5 14.5 40.5 14.5 q25 0 39 -14.5 q14 -14.5 14 -38.5 q0 -26 -14 -40.5 q-14 -14.5 -39 -14.5 ZM218 81 q0 -31 5 -45 q5 -14 20.5 -19 q15.5 -5 49.5 -5 q3 0 3 -6 q0 -6 -3 -6 q-32 0 -51 1 l-74 1 l-72 -1 q-19 -1 -52 -1 q-3 0 -3 6 q0 6 3 6 q34 0 49.5 5 q15.5 5 21.5 19.5 q6 14.5 6 44.5 l0 463 q0 30 -6 44 q-6 14 -21.5 19.5 q-15.5 5.5 -49.5 5.5 q-3 0 -3 6 q0 6 3 6 l52 -1 q44 -2 72 -2 q31 0 75 2 l50 1 q3 0 3 -6 q0 -6 -3 -6 q-33 0 -48.5 -6 q-15.5 -6 -21 -20.5 q-5.5 -14.5 -5.5 -44.5 l0 -461 Z" /><glyph glyph-name="uni1ECA" unicode="&#x1eca;" d="M218 81 q0 -31 5 -45 q5 -14 20.5 -19 q15.5 -5 49.5 -5 q3 0 3 -6 q0 -6 -3 -6 q-32 0 -51 1 l-74 1 l-72 -1 q-19 -1 -52 -1 q-3 0 -3 6 q0 6 3 6 q34 0 49.5 5 q15.5 5 21.5 19.5 q6 14.5 6 44.5 l0 463 q0 30 -6 44 q-6 14 -21.5 19.5 q-15.5 5.5 -49.5 5.5 q-3 0 -3 6 q0 6 3 6 l52 -1 q44 -2 72 -2 q31 0 75 2 l50 1 q3 0 3 -6 q0 -6 -3 -6 q-33 0 -48.5 -6 q-15.5 -6 -21 -20.5 q-5.5 -14.5 -5.5 -44.5 l0 -461 ZM170 -201 q-26 0 -40.5 14 q-14.5 14 -14.5 40 q0 25 14.5 38.5 q14.5 13.5 40.5 13.5 q25 0 39 -13.5 q14 -13.5 14 -38.5 q0 -26 -13.5 -40 q-13.5 -14 -39.5 -14 Z" /><glyph glyph-name="Igrave" unicode="ì" d="M269 679 q-113 50 -223 77 q-10 2 10.5 12 q20.5 10 47 18 q26.5 8 31.5 4 q30 -22 45 -34 q61 -46 93 -67 q2 -1 2 -4 q0 -3 -2 -5 q-2 -2 -4 -1 ZM218 81 q0 -31 5 -45 q5 -14 20.5 -19 q15.5 -5 49.5 -5 q3 0 3 -6 q0 -6 -3 -6 q-32 0 -51 1 l-74 1 l-72 -1 q-19 -1 -52 -1 q-3 0 -3 6 q0 6 3 6 q34 0 49.5 5 q15.5 5 21.5 19.5 q6 14.5 6 44.5 l0 463 q0 30 -6 44 q-6 14 -21.5 19.5 q-15.5 5.5 -49.5 5.5 q-3 0 -3 6 q0 6 3 6 l52 -1 q44 -2 72 -2 q31 0 75 2 l50 1 q3 0 3 -6 q0 -6 -3 -6 q-33 0 -48.5 -6 q-15.5 -6 -21 -20.5 q-5.5 -14.5 -5.5 -44.5 l0 -461 Z" /><glyph glyph-name="uni1EC8" unicode="&#x1ec8;" d="M171 651 q0 -2 -5.5 -2 q-5.5 0 -6.5 2 q-2 8 -2 22 q0 16 4 29 q4 13 13 32 q15 30 15 52 q0 37 -33 37 q-16 0 -33 -9 l-1 0 q-4 0 -6.5 3.5 q-2.5 3.5 0.5 4.5 q32 26 76 26 q31 0 49.5 -14.5 q18.5 -14.5 18.5 -37.5 q0 -20 -12.5 -37.5 q-12.5 -17.5 -35.5 -39.5 q-22 -23 -32 -37.5 q-10 -14.5 -9 -30.5 ZM218 81 q0 -31 5 -45 q5 -14 20.5 -19 q15.5 -5 49.5 -5 q3 0 3 -6 q0 -6 -3 -6 q-32 0 -51 1 l-74 1 l-72 -1 q-19 -1 -52 -1 q-3 0 -3 6 q0 6 3 6 q34 0 49.5 5 q15.5 5 21.5 19.5 q6 14.5 6 44.5 l0 463 q0 30 -6 44 q-6 14 -21.5 19.5 q-15.5 5.5 -49.5 5.5 q-3 0 -3 6 q0 6 3 6 l52 -1 q44 -2 72 -2 q31 0 75 2 l50 1 q3 0 3 -6 q0 -6 -3 -6 q-33 0 -48.5 -6 q-15.5 -6 -21 -20.5 q-5.5 -14.5 -5.5 -44.5 l0 -461 Z" /><glyph glyph-name="Imacron" unicode="&#x12a;" d="M43 716 q-4 0 -6 5.5 q-2 5.5 -2 11.5 q0 7 2 12 q2 5 6 5 l251 0 q4 0 6.5 -5 q2.5 -5 2.5 -12 q0 -7 -2.5 -12 q-2.5 -5 -6.5 -5 l-251 0 ZM218 81 q0 -31 5 -45 q5 -14 20.5 -19 q15.5 -5 49.5 -5 q3 0 3 -6 q0 -6 -3 -6 q-32 0 -51 1 l-74 1 l-72 -1 q-19 -1 -52 -1 q-3 0 -3 6 q0 6 3 6 q34 0 49.5 5 q15.5 5 21.5 19.5 q6 14.5 6 44.5 l0 463 q0 30 -6 44 q-6 14 -21.5 19.5 q-15.5 5.5 -49.5 5.5 q-3 0 -3 6 q0 6 3 6 l52 -1 q44 -2 72 -2 q31 0 75 2 l50 1 q3 0 3 -6 q0 -6 -3 -6 q-33 0 -48.5 -6 q-15.5 -6 -21 -20.5 q-5.5 -14.5 -5.5 -44.5 l0 -461 Z" /><glyph glyph-name="Iogonek" unicode="&#x12e;" d="M293 12 q3 0 3 -6 q0 -6 -3 -6 q-31 0 -48 1 l-69 1 q-28 -50 -28 -109 q0 -54 24.5 -90.5 q24.5 -36.5 60.5 -36.5 q20 0 38 12 l2 0 q3 0 5.5 -3 q2.5 -3 -0.5 -5 q-24 -24 -47 -34.5 q-23 -10.5 -54 -10.5 q-48 0 -75.5 28 q-27.5 28 -27.5 76 q0 83 85 173 l-66 -1 q-18 -1 -49 -1 q-3 0 -3 6 q0 6 3 6 q34 0 49.5 5 q15.5 5 21.5 19.5 q6 14.5 6 44.5 l0 463 q0 30 -6 44 q-6 14 -21.5 19.5 q-15.5 5.5 -49.5 5.5 q-3 0 -3 6 q0 6 3 6 l52 -1 q44 -2 72 -2 q31 0 75 2 l50 1 q3 0 3 -6 q0 -6 -3 -6 q-33 0 -48.5 -6 q-15.5 -6 -21 -20.5 q-5.5 -14.5 -5.5 -44.5 l0 -461 q0 -31 5 -45 q5 -14 20.5 -19 q15.5 -5 49.5 -5 Z" /><glyph glyph-name="Itilde" unicode="&#x128;" d="M43 697 q-2 0 -4.5 2.5 q-2.5 2.5 -1.5 4.5 q17 29 39.5 52 q22.5 23 47.5 23 q11 0 49 -10 q46 -14 73 -14 q18 0 28 6 q10 6 23 21 l1 0 q3 0 5 -2.5 q2 -2.5 1 -4.5 q-27 -45 -43.5 -60 q-16.5 -15 -37.5 -15 q-16 0 -35.5 5 q-19.5 5 -23.5 6 q-41 13 -69 13 q-17 0 -25.5 -4.5 q-8.5 -4.5 -15.5 -12 q-7 -7.5 -10 -10.5 l-1 0 ZM218 81 q0 -31 5 -45 q5 -14 20.5 -19 q15.5 -5 49.5 -5 q3 0 3 -6 q0 -6 -3 -6 q-32 0 -51 1 l-74 1 l-72 -1 q-19 -1 -52 -1 q-3 0 -3 6 q0 6 3 6 q34 0 49.5 5 q15.5 5 21.5 19.5 q6 14.5 6 44.5 l0 463 q0 30 -6 44 q-6 14 -21.5 19.5 q-15.5 5.5 -49.5 5.5 q-3 0 -3 6 q0 6 3 6 l52 -1 q44 -2 72 -2 q31 0 75 2 l50 1 q3 0 3 -6 q0 -6 -3 -6 q-33 0 -48.5 -6 q-15.5 -6 -21 -20.5 q-5.5 -14.5 -5.5 -44.5 l0 -461 Z" /><glyph glyph-name="J" unicode="j" d="M292 625 q3 0 3 -6 q0 -6 -3 -6 q-28 0 -41.5 -6 q-13.5 -6 -18 -20.5 q-4.5 -14.5 -4.5 -44.5 l0 -554 q0 -108 -52.5 -169.5 q-52.5 -61.5 -147.5 -61.5 q-36 0 -58.5 14.5 q-22.5 14.5 -22.5 40.5 q0 18 12 31.5 q12 13.5 34 13.5 q22 0 34 -12.5 q12 -12.5 22 -34.5 q7 -16 14 -24 q7 -8 17 -8 q26 0 38.5 36.5 q12.5 36.5 12.5 119.5 l0 610 q0 30 -6.5 44 q-6.5 14 -25 19.5 q-18.5 5.5 -57.5 5.5 q-2 0 -2 6 q0 6 2 6 l60 -1 q48 -2 76 -2 q27 0 69 2 l45 1 Z" /><glyph glyph-name="Jcircumflex" unicode="&#x134;" d="M160 812 q5 5 12 5 q6 0 11 -5 l102 -110 q1 0 1 -2 q0 -2 -2.5 -4 q-2.5 -2 -3.5 -1 l-108 45 l-109 -45 q-2 -1 -5 2.5 q-3 3.5 -1 4.5 l103 110 ZM292 625 q3 0 3 -6 q0 -6 -3 -6 q-28 0 -41.5 -6 q-13.5 -6 -18 -20.5 q-4.5 -14.5 -4.5 -44.5 l0 -554 q0 -108 -52.5 -169.5 q-52.5 -61.5 -147.5 -61.5 q-36 0 -58.5 14.5 q-22.5 14.5 -22.5 40.5 q0 18 12 31.5 q12 13.5 34 13.5 q22 0 34 -12.5 q12 -12.5 22 -34.5 q7 -16 14 -24 q7 -8 17 -8 q26 0 38.5 36.5 q12.5 36.5 12.5 119.5 l0 610 q0 30 -6.5 44 q-6.5 14 -25 19.5 q-18.5 5.5 -57.5 5.5 q-2 0 -2 6 q0 6 2 6 l60 -1 q48 -2 76 -2 q27 0 69 2 l45 1 Z" /><glyph glyph-name="K" unicode="k" d="M656 12 q3 0 3 -6 q0 -6 -3 -6 l-112 0 l-39 -1 q-14 0 -24 6 q-10 6 -23 22 q-13 16 -48 63 l-41 55 l-139 182 l-25 -26 l0 -220 q0 -31 5 -45 q5 -14 20.5 -19 q15.5 -5 49.5 -5 q4 0 4 -6 q0 -6 -4 -6 q-32 0 -51 1 l-73 1 l-71 -1 q-19 -1 -53 -1 q-2 0 -2 6 q0 6 2 6 q34 0 49.5 5 q15.5 5 21.5 19.5 q6 14.5 6 44.5 l0 463 q0 30 -5.5 44 q-5.5 14 -21.5 19.5 q-16 5.5 -49 5.5 q-2 0 -2 6 q0 6 2 6 l53 -1 q44 -2 70 -2 q30 0 74 2 l50 1 q3 0 3 -6 q0 -6 -3 -6 q-33 0 -48.5 -6 q-15.5 -6 -21 -20.5 q-5.5 -14.5 -5.5 -44.5 l0 -211 l196 198 q31 31 31 52 q0 15 -15.5 23.5 q-15.5 8.5 -45.5 8.5 q-2 0 -2 6 q0 6 2 6 l45 -1 q44 -2 80 -2 q39 0 79 2 l43 1 q3 0 3 -6 q0 -6 -3 -6 q-44 0 -96.5 -24 q-52.5 -24 -95.5 -66 l-128 -128 l147 -195 q68 -93 102.5 -131.5 q34.5 -38.5 54.5 -47.5 q20 -9 54 -9 Z" /><glyph glyph-name="uni1E30" unicode="&#x1e30;" d="M230 678 q-4 0 -5 4.5 q-1 4.5 2 6.5 q32 19 88 63 q46 35 50 38 q5 4 32 -4 q27 -8 47.5 -18 q20.5 -10 9.5 -12 q-62 -15 -113.5 -33.5 q-51.5 -18.5 -108.5 -43.5 l-2 -1 ZM656 12 q3 0 3 -6 q0 -6 -3 -6 l-112 0 l-39 -1 q-14 0 -24 6 q-10 6 -23 22 q-13 16 -48 63 l-41 55 l-139 182 l-25 -26 l0 -220 q0 -31 5 -45 q5 -14 20.5 -19 q15.5 -5 49.5 -5 q4 0 4 -6 q0 -6 -4 -6 q-32 0 -51 1 l-73 1 l-71 -1 q-19 -1 -53 -1 q-2 0 -2 6 q0 6 2 6 q34 0 49.5 5 q15.5 5 21.5 19.5 q6 14.5 6 44.5 l0 463 q0 30 -5.5 44 q-5.5 14 -21.5 19.5 q-16 5.5 -49 5.5 q-2 0 -2 6 q0 6 2 6 l53 -1 q44 -2 70 -2 q30 0 74 2 l50 1 q3 0 3 -6 q0 -6 -3 -6 q-33 0 -48.5 -6 q-15.5 -6 -21 -20.5 q-5.5 -14.5 -5.5 -44.5 l0 -211 l196 198 q31 31 31 52 q0 15 -15.5 23.5 q-15.5 8.5 -45.5 8.5 q-2 0 -2 6 q0 6 2 6 l45 -1 q44 -2 80 -2 q39 0 79 2 l43 1 q3 0 3 -6 q0 -6 -3 -6 q-44 0 -96.5 -24 q-52.5 -24 -95.5 -66 l-128 -128 l147 -195 q68 -93 102.5 -131.5 q34.5 -38.5 54.5 -47.5 q20 -9 54 -9 Z" /><glyph glyph-name="uni01E8" unicode="&#x1e8;" d="M214 796 l0 1 q0 3 2.5 5.5 q2.5 2.5 3.5 0.5 l109 -45 l108 46 l1 0 q3 0 4.5 -2.5 q1.5 -2.5 -0.5 -4.5 l-102 -110 q-4 -4 -11 -4 q-8 0 -12 4 l-103 109 ZM656 12 q3 0 3 -6 q0 -6 -3 -6 l-112 0 l-39 -1 q-14 0 -24 6 q-10 6 -23 22 q-13 16 -48 63 l-41 55 l-139 182 l-25 -26 l0 -220 q0 -31 5 -45 q5 -14 20.5 -19 q15.5 -5 49.5 -5 q4 0 4 -6 q0 -6 -4 -6 q-32 0 -51 1 l-73 1 l-71 -1 q-19 -1 -53 -1 q-2 0 -2 6 q0 6 2 6 q34 0 49.5 5 q15.5 5 21.5 19.5 q6 14.5 6 44.5 l0 463 q0 30 -5.5 44 q-5.5 14 -21.5 19.5 q-16 5.5 -49 5.5 q-2 0 -2 6 q0 6 2 6 l53 -1 q44 -2 70 -2 q30 0 74 2 l50 1 q3 0 3 -6 q0 -6 -3 -6 q-33 0 -48.5 -6 q-15.5 -6 -21 -20.5 q-5.5 -14.5 -5.5 -44.5 l0 -211 l196 198 q31 31 31 52 q0 15 -15.5 23.5 q-15.5 8.5 -45.5 8.5 q-2 0 -2 6 q0 6 2 6 l45 -1 q44 -2 80 -2 q39 0 79 2 l43 1 q3 0 3 -6 q0 -6 -3 -6 q-44 0 -96.5 -24 q-52.5 -24 -95.5 -66 l-128 -128 l147 -195 q68 -93 102.5 -131.5 q34.5 -38.5 54.5 -47.5 q20 -9 54 -9 Z" /><glyph glyph-name="Kcommaaccent" unicode="&#x136;" d="M656 12 q3 0 3 -6 q0 -6 -3 -6 l-112 0 l-39 -1 q-14 0 -24 6 q-10 6 -23 22 q-13 16 -48 63 l-41 55 l-139 182 l-25 -26 l0 -220 q0 -31 5 -45 q5 -14 20.5 -19 q15.5 -5 49.5 -5 q4 0 4 -6 q0 -6 -4 -6 q-32 0 -51 1 l-73 1 l-71 -1 q-19 -1 -53 -1 q-2 0 -2 6 q0 6 2 6 q34 0 49.5 5 q15.5 5 21.5 19.5 q6 14.5 6 44.5 l0 463 q0 30 -5.5 44 q-5.5 14 -21.5 19.5 q-16 5.5 -49 5.5 q-2 0 -2 6 q0 6 2 6 l53 -1 q44 -2 70 -2 q30 0 74 2 l50 1 q3 0 3 -6 q0 -6 -3 -6 q-33 0 -48.5 -6 q-15.5 -6 -21 -20.5 q-5.5 -14.5 -5.5 -44.5 l0 -211 l196 198 q31 31 31 52 q0 15 -15.5 23.5 q-15.5 8.5 -45.5 8.5 q-2 0 -2 6 q0 6 2 6 l45 -1 q44 -2 80 -2 q39 0 79 2 l43 1 q3 0 3 -6 q0 -6 -3 -6 q-44 0 -96.5 -24 q-52.5 -24 -95.5 -66 l-128 -128 l147 -195 q68 -93 102.5 -131.5 q34.5 -38.5 54.5 -47.5 q20 -9 54 -9 ZM342 -74 q32 0 49 -21 q17 -21 17 -58 q0 -37 -18.5 -66 q-18.5 -29 -52.5 -56 l-2 -1 q-4 0 -6 4 q-2 4 1 6 q46 37 46 75 q0 21 -8 31 q-11 -17 -38 -17 q-20 0 -32.5 14 q-12.5 14 -12.5 37 q0 25 16.5 38.5 q16.5 13.5 40.5 13.5 Z" /><glyph glyph-name="L" unicode="l" d="M204 85 q0 -27 4.5 -39 q4.5 -12 17.5 -16 q13 -4 42 -4 l60 0 q71 0 120 39.5 q49 39.5 65 106.5 q1 3 6 2.5 q5 -0.5 5 -3.5 q-9 -94 -9 -156 q0 -8 -3 -11.5 q-3 -3.5 -12 -3.5 l-468 0 q-2 0 -2 6 q0 6 2 6 q34 0 49.5 5 q15.5 5 21 19.5 q5.5 14.5 5.5 44.5 l0 463 q0 30 -5.5 44 q-5.5 14 -21.5 19.5 q-16 5.5 -49 5.5 q-2 0 -2 6 q0 6 2 6 l51 -1 q44 -2 72 -2 q30 0 74 2 l50 1 q3 0 3 -6 q0 -6 -3 -6 q-33 0 -48.5 -5.5 q-15.5 -5.5 -21 -20 q-5.5 -14.5 -5.5 -44.5 l0 -458 Z" /><glyph glyph-name="Lacute" unicode="&#x139;" d="M62 678 q-4 0 -5 4.5 q-1 4.5 2 6.5 q32 19 88 63 q46 35 50 38 q5 4 32 -4 q27 -8 47.5 -18 q20.5 -10 9.5 -12 q-62 -15 -113.5 -33.5 q-51.5 -18.5 -108.5 -43.5 l-2 -1 ZM204 85 q0 -27 4.5 -39 q4.5 -12 17.5 -16 q13 -4 42 -4 l60 0 q71 0 120 39.5 q49 39.5 65 106.5 q1 3 6 2.5 q5 -0.5 5 -3.5 q-9 -94 -9 -156 q0 -8 -3 -11.5 q-3 -3.5 -12 -3.5 l-468 0 q-2 0 -2 6 q0 6 2 6 q34 0 49.5 5 q15.5 5 21 19.5 q5.5 14.5 5.5 44.5 l0 463 q0 30 -5.5 44 q-5.5 14 -21.5 19.5 q-16 5.5 -49 5.5 q-2 0 -2 6 q0 6 2 6 l51 -1 q44 -2 72 -2 q30 0 74 2 l50 1 q3 0 3 -6 q0 -6 -3 -6 q-33 0 -48.5 -5.5 q-15.5 -5.5 -21 -20 q-5.5 -14.5 -5.5 -44.5 l0 -458 Z" /><glyph glyph-name="Lcaron" unicode="&#x13d;" d="M353 625 q0 5 18.5 -1 q18.5 -6 35 -16.5 q16.5 -10.5 15.5 -17.5 l-50 -238 q-1 -2 -6 -1.5 q-5 0.5 -5 2.5 l-8 272 ZM204 85 q0 -27 4.5 -39 q4.5 -12 17.5 -16 q13 -4 42 -4 l60 0 q71 0 120 39.5 q49 39.5 65 106.5 q1 3 6 2.5 q5 -0.5 5 -3.5 q-9 -94 -9 -156 q0 -8 -3 -11.5 q-3 -3.5 -12 -3.5 l-468 0 q-2 0 -2 6 q0 6 2 6 q34 0 49.5 5 q15.5 5 21 19.5 q5.5 14.5 5.5 44.5 l0 463 q0 30 -5.5 44 q-5.5 14 -21.5 19.5 q-16 5.5 -49 5.5 q-2 0 -2 6 q0 6 2 6 l51 -1 q44 -2 72 -2 q30 0 74 2 l50 1 q3 0 3 -6 q0 -6 -3 -6 q-33 0 -48.5 -5.5 q-15.5 -5.5 -21 -20 q-5.5 -14.5 -5.5 -44.5 l0 -458 Z" /><glyph glyph-name="Lcommaaccent" unicode="&#x13b;" d="M513 172 q1 3 6 2.5 q5 -0.5 5 -3.5 q-9 -94 -9 -156 q0 -8 -3 -11.5 q-3 -3.5 -12 -3.5 l-468 0 q-2 0 -2 6 q0 6 2 6 q34 0 49.5 5 q15.5 5 21 19.5 q5.5 14.5 5.5 44.5 l0 463 q0 30 -5.5 44 q-5.5 14 -21.5 19.5 q-16 5.5 -49 5.5 q-2 0 -2 6 q0 6 2 6 l51 -1 q44 -2 72 -2 q30 0 74 2 l50 1 q3 0 3 -6 q0 -6 -3 -6 q-33 0 -48.5 -5.5 q-15.5 -5.5 -21 -20 q-5.5 -14.5 -5.5 -44.5 l0 -458 q0 -27 4.5 -39 q4.5 -12 17.5 -16 q13 -4 42 -4 l60 0 q71 0 120 39.5 q49 39.5 65 106.5 ZM288 -74 q32 0 49 -21 q17 -21 17 -58 q0 -37 -18.5 -66 q-18.5 -29 -52.5 -56 l-2 -1 q-4 0 -6 4 q-2 4 1 6 q46 37 46 75 q0 21 -8 31 q-11 -17 -38 -17 q-20 0 -32.5 14 q-12.5 14 -12.5 37 q0 25 16.5 38.5 q16.5 13.5 40.5 13.5 Z" /><glyph glyph-name="Ldot" unicode="&#x13f;" d="M204 85 q0 -27 4.5 -39 q4.5 -12 17.5 -16 q13 -4 42 -4 l60 0 q71 0 120 39.5 q49 39.5 65 106.5 q1 3 6 2.5 q5 -0.5 5 -3.5 q-9 -94 -9 -156 q0 -8 -3 -11.5 q-3 -3.5 -12 -3.5 l-468 0 q-2 0 -2 6 q0 6 2 6 q34 0 49.5 5 q15.5 5 21 19.5 q5.5 14.5 5.5 44.5 l0 463 q0 30 -5.5 44 q-5.5 14 -21.5 19.5 q-16 5.5 -49 5.5 q-2 0 -2 6 q0 6 2 6 l51 -1 q44 -2 72 -2 q30 0 74 2 l50 1 q3 0 3 -6 q0 -6 -3 -6 q-33 0 -48.5 -5.5 q-15.5 -5.5 -21 -20 q-5.5 -14.5 -5.5 -44.5 l0 -458 ZM428 263 q-25 0 -40 15 q-15 15 -15 40 q0 24 15 38.5 q15 14.5 40 14.5 q26 0 40 -14.5 q14 -14.5 14 -38.5 q0 -26 -14 -40.5 q-14 -14.5 -40 -14.5 Z" /><glyph glyph-name="uni1E36" unicode="&#x1e36;" d="M204 85 q0 -27 4.5 -39 q4.5 -12 17.5 -16 q13 -4 42 -4 l60 0 q71 0 120 39.5 q49 39.5 65 106.5 q1 3 6 2.5 q5 -0.5 5 -3.5 q-9 -94 -9 -156 q0 -8 -3 -11.5 q-3 -3.5 -12 -3.5 l-468 0 q-2 0 -2 6 q0 6 2 6 q34 0 49.5 5 q15.5 5 21 19.5 q5.5 14.5 5.5 44.5 l0 463 q0 30 -5.5 44 q-5.5 14 -21.5 19.5 q-16 5.5 -49 5.5 q-2 0 -2 6 q0 6 2 6 l51 -1 q44 -2 72 -2 q30 0 74 2 l50 1 q3 0 3 -6 q0 -6 -3 -6 q-33 0 -48.5 -5.5 q-15.5 -5.5 -21 -20 q-5.5 -14.5 -5.5 -44.5 l0 -458 ZM295 -201 q-26 0 -40.5 14 q-14.5 14 -14.5 40 q0 25 14.5 38.5 q14.5 13.5 40.5 13.5 q25 0 39 -13.5 q14 -13.5 14 -38.5 q0 -26 -13.5 -40 q-13.5 -14 -39.5 -14 Z" /><glyph glyph-name="uni1E38" unicode="&#x1e38;" d="M35 716 q-4 0 -6 5.5 q-2 5.5 -2 11.5 q0 7 2 12 q2 5 6 5 l251 0 q4 0 6.5 -5 q2.5 -5 2.5 -12 q0 -7 -2.5 -12 q-2.5 -5 -6.5 -5 l-251 0 ZM204 85 q0 -27 4.5 -39 q4.5 -12 17.5 -16 q13 -4 42 -4 l60 0 q71 0 120 39.5 q49 39.5 65 106.5 q1 3 6 2.5 q5 -0.5 5 -3.5 q-9 -94 -9 -156 q0 -8 -3 -11.5 q-3 -3.5 -12 -3.5 l-468 0 q-2 0 -2 6 q0 6 2 6 q34 0 49.5 5 q15.5 5 21 19.5 q5.5 14.5 5.5 44.5 l0 463 q0 30 -5.5 44 q-5.5 14 -21.5 19.5 q-16 5.5 -49 5.5 q-2 0 -2 6 q0 6 2 6 l51 -1 q44 -2 72 -2 q30 0 74 2 l50 1 q3 0 3 -6 q0 -6 -3 -6 q-33 0 -48.5 -5.5 q-15.5 -5.5 -21 -20 q-5.5 -14.5 -5.5 -44.5 l0 -458 ZM295 -201 q-26 0 -40.5 14 q-14.5 14 -14.5 40 q0 25 14.5 38.5 q14.5 13.5 40.5 13.5 q25 0 39 -13.5 q14 -13.5 14 -38.5 q0 -26 -13.5 -40 q-13.5 -14 -39.5 -14 Z" /><glyph glyph-name="uni1E3A" unicode="&#x1e3a;" d="M204 85 q0 -27 4.5 -39 q4.5 -12 17.5 -16 q13 -4 42 -4 l60 0 q71 0 120 39.5 q49 39.5 65 106.5 q1 3 6 2.5 q5 -0.5 5 -3.5 q-9 -94 -9 -156 q0 -8 -3 -11.5 q-3 -3.5 -12 -3.5 l-468 0 q-2 0 -2 6 q0 6 2 6 q34 0 49.5 5 q15.5 5 21 19.5 q5.5 14.5 5.5 44.5 l0 463 q0 30 -5.5 44 q-5.5 14 -21.5 19.5 q-16 5.5 -49 5.5 q-2 0 -2 6 q0 6 2 6 l51 -1 q44 -2 72 -2 q30 0 74 2 l50 1 q3 0 3 -6 q0 -6 -3 -6 q-33 0 -48.5 -5.5 q-15.5 -5.5 -21 -20 q-5.5 -14.5 -5.5 -44.5 l0 -458 ZM168 -119 q-4 0 -6 5 q-2 5 -2 12 q0 6 2 11.5 q2 5.5 6 5.5 l251 0 q4 0 6.5 -5 q2.5 -5 2.5 -12 q0 -7 -2.5 -12 q-2.5 -5 -6.5 -5 l-251 0 Z" /><glyph glyph-name="Lslash" unicode="&#x141;" d="M513 172 q1 3 6 2.5 q5 -0.5 5 -3.5 q-9 -94 -9 -156 q0 -8 -3 -11.5 q-3 -3.5 -12 -3.5 l-468 0 q-2 0 -2 6 q0 6 2 6 q34 0 49.5 5 q15.5 5 21 19.5 q5.5 14.5 5.5 44.5 l0 171 l-52 -30 l-1 0 q-5 0 -10.5 10.5 q-5.5 10.5 -1.5 11.5 l65 37 l0 263 q0 30 -5.5 44 q-5.5 14 -21.5 19.5 q-16 5.5 -49 5.5 q-2 0 -2 6 q0 6 2 6 l51 -1 q44 -2 72 -2 q30 0 74 2 l50 1 q3 0 3 -6 q0 -6 -3 -6 q-33 0 -48.5 -5.5 q-15.5 -5.5 -21 -20 q-5.5 -14.5 -5.5 -44.5 l0 -206 l110 63 l1 0 q4 0 9.5 -10.5 q5.5 -10.5 1.5 -11.5 l-122 -70 l0 -223 q0 -27 4.5 -39 q4.5 -12 17.5 -16 q13 -4 42 -4 l60 0 q71 0 120 39.5 q49 39.5 65 106.5 Z" /><glyph glyph-name="M" unicode="m" d="M826 12 q2 0 2 -6 q0 -6 -2 -6 q-33 0 -53 1 l-72 1 l-70 -1 q-18 -1 -51 -1 q-2 0 -2 6 q0 6 2 6 q44 0 59 10 q15 10 15 42 l-1 17 l-20 424 l-213 -498 q-2 -4 -8 -4 q-5 0 -9 4 l-250 494 l-9 -380 q-1 -53 20.5 -81 q21.5 -28 64.5 -28 q3 0 3 -6 q0 -6 -3 -6 q-27 0 -42 1 l-55 1 l-59 -1 q-15 -1 -42 -1 q-3 0 -3 6 q0 6 3 6 q41 0 63.5 28 q22.5 28 23.5 81 l9 430 q-18 32 -39.5 47 q-21.5 15 -49.5 15 q-3 0 -3 6 q0 6 3 6 l43 -1 q13 -1 34 -1 l47 1 q8 1 20 1 q13 0 21 -9.5 q8 -9.5 25 -42.5 l220 -429 l199 456 q6 14 13 19.5 q7 5.5 17 5.5 q7 0 18 -1 q11 -1 27 -1 l54 1 q13 1 39 1 q2 0 2 -6 q0 -6 -2 -6 q-48 0 -69.5 -17.5 q-21.5 -17.5 -19.5 -57.5 l23 -457 q2 -31 7.5 -45 q5.5 -14 20.5 -19 q15 -5 49 -5 Z" /><glyph glyph-name="uni1E40" unicode="&#x1e40;" d="M426 713 q-26 0 -40.5 14.5 q-14.5 14.5 -14.5 40.5 q0 24 14.5 38.5 q14.5 14.5 40.5 14.5 q25 0 39 -14.5 q14 -14.5 14 -38.5 q0 -26 -14 -40.5 q-14 -14.5 -39 -14.5 ZM826 12 q2 0 2 -6 q0 -6 -2 -6 q-33 0 -53 1 l-72 1 l-70 -1 q-18 -1 -51 -1 q-2 0 -2 6 q0 6 2 6 q44 0 59 10 q15 10 15 42 l-1 17 l-20 424 l-213 -498 q-2 -4 -8 -4 q-5 0 -9 4 l-250 494 l-9 -380 q-1 -53 20.5 -81 q21.5 -28 64.5 -28 q3 0 3 -6 q0 -6 -3 -6 q-27 0 -42 1 l-55 1 l-59 -1 q-15 -1 -42 -1 q-3 0 -3 6 q0 6 3 6 q41 0 63.5 28 q22.5 28 23.5 81 l9 430 q-18 32 -39.5 47 q-21.5 15 -49.5 15 q-3 0 -3 6 q0 6 3 6 l43 -1 q13 -1 34 -1 l47 1 q8 1 20 1 q13 0 21 -9.5 q8 -9.5 25 -42.5 l220 -429 l199 456 q6 14 13 19.5 q7 5.5 17 5.5 q7 0 18 -1 q11 -1 27 -1 l54 1 q13 1 39 1 q2 0 2 -6 q0 -6 -2 -6 q-48 0 -69.5 -17.5 q-21.5 -17.5 -19.5 -57.5 l23 -457 q2 -31 7.5 -45 q5.5 -14 20.5 -19 q15 -5 49 -5 Z" /><glyph glyph-name="uni1E42" unicode="&#x1e42;" d="M826 12 q2 0 2 -6 q0 -6 -2 -6 q-33 0 -53 1 l-72 1 l-70 -1 q-18 -1 -51 -1 q-2 0 -2 6 q0 6 2 6 q44 0 59 10 q15 10 15 42 l-1 17 l-20 424 l-213 -498 q-2 -4 -8 -4 q-5 0 -9 4 l-250 494 l-9 -380 q-1 -53 20.5 -81 q21.5 -28 64.5 -28 q3 0 3 -6 q0 -6 -3 -6 q-27 0 -42 1 l-55 1 l-59 -1 q-15 -1 -42 -1 q-3 0 -3 6 q0 6 3 6 q41 0 63.5 28 q22.5 28 23.5 81 l9 430 q-18 32 -39.5 47 q-21.5 15 -49.5 15 q-3 0 -3 6 q0 6 3 6 l43 -1 q13 -1 34 -1 l47 1 q8 1 20 1 q13 0 21 -9.5 q8 -9.5 25 -42.5 l220 -429 l199 456 q6 14 13 19.5 q7 5.5 17 5.5 q7 0 18 -1 q11 -1 27 -1 l54 1 q13 1 39 1 q2 0 2 -6 q0 -6 -2 -6 q-48 0 -69.5 -17.5 q-21.5 -17.5 -19.5 -57.5 l23 -457 q2 -31 7.5 -45 q5.5 -14 20.5 -19 q15 -5 49 -5 ZM416 -95 q25 0 39 -13.5 q14 -13.5 14 -38.5 q0 -26 -13.5 -40 q-13.5 -14 -39.5 -14 q-26 0 -40.5 14 q-14.5 14 -14.5 40 q0 25 14.5 38.5 q14.5 13.5 40.5 13.5 Z" /><glyph glyph-name="N" unicode="n" d="M717 625 q2 0 2 -6 q0 -6 -2 -6 q-40 0 -62 -28.5 q-22 -28.5 -22 -81.5 l0 -517 q0 -3 -5 -4 q-5 -1 -7 1 l-469 545 l0 -407 q0 -53 21 -81 q21 -28 61 -28 q2 0 2 -6 q0 -6 -2 -6 q-27 0 -41 1 l-53 1 l-59 -1 q-16 -1 -46 -1 q-3 0 -3 6 q0 6 3 6 q43 0 66.5 28 q23.5 28 23.5 81 l0 438 q-28 30 -50.5 42 q-22.5 12 -46.5 12 q-2 0 -2 6 q0 6 2 6 l40 -1 q13 -1 37 -1 l64 1 q12 1 29 1 q8 0 12 -4 q4 -4 12 -16 q17 -23 25 -32 l359 -424 l0 354 q0 53 -21 81.5 q-21 28.5 -60 28.5 q-2 0 -2 6 q0 6 2 6 l41 -1 q32 -2 53 -2 q20 0 54 2 l44 1 Z" /><glyph glyph-name="Nacute" unicode="&#x143;" d="M281 678 q-4 0 -5 4.5 q-1 4.5 2 6.5 q32 19 88 63 q46 35 50 38 q5 4 32 -4 q27 -8 47.5 -18 q20.5 -10 9.5 -12 q-62 -15 -113.5 -33.5 q-51.5 -18.5 -108.5 -43.5 l-2 -1 ZM717 625 q2 0 2 -6 q0 -6 -2 -6 q-40 0 -62 -28.5 q-22 -28.5 -22 -81.5 l0 -517 q0 -3 -5 -4 q-5 -1 -7 1 l-469 545 l0 -407 q0 -53 21 -81 q21 -28 61 -28 q2 0 2 -6 q0 -6 -2 -6 q-27 0 -41 1 l-53 1 l-59 -1 q-16 -1 -46 -1 q-3 0 -3 6 q0 6 3 6 q43 0 66.5 28 q23.5 28 23.5 81 l0 438 q-28 30 -50.5 42 q-22.5 12 -46.5 12 q-2 0 -2 6 q0 6 2 6 l40 -1 q13 -1 37 -1 l64 1 q12 1 29 1 q8 0 12 -4 q4 -4 12 -16 q17 -23 25 -32 l359 -424 l0 354 q0 53 -21 81.5 q-21 28.5 -60 28.5 q-2 0 -2 6 q0 6 2 6 l41 -1 q32 -2 53 -2 q20 0 54 2 l44 1 Z" /><glyph glyph-name="Ncaron" unicode="&#x147;" d="M265 796 l0 1 q0 3 2.5 5.5 q2.5 2.5 3.5 0.5 l109 -45 l108 46 l1 0 q3 0 4.5 -2.5 q1.5 -2.5 -0.5 -4.5 l-102 -110 q-4 -4 -11 -4 q-8 0 -12 4 l-103 109 ZM717 625 q2 0 2 -6 q0 -6 -2 -6 q-40 0 -62 -28.5 q-22 -28.5 -22 -81.5 l0 -517 q0 -3 -5 -4 q-5 -1 -7 1 l-469 545 l0 -407 q0 -53 21 -81 q21 -28 61 -28 q2 0 2 -6 q0 -6 -2 -6 q-27 0 -41 1 l-53 1 l-59 -1 q-16 -1 -46 -1 q-3 0 -3 6 q0 6 3 6 q43 0 66.5 28 q23.5 28 23.5 81 l0 438 q-28 30 -50.5 42 q-22.5 12 -46.5 12 q-2 0 -2 6 q0 6 2 6 l40 -1 q13 -1 37 -1 l64 1 q12 1 29 1 q8 0 12 -4 q4 -4 12 -16 q17 -23 25 -32 l359 -424 l0 354 q0 53 -21 81.5 q-21 28.5 -60 28.5 q-2 0 -2 6 q0 6 2 6 l41 -1 q32 -2 53 -2 q20 0 54 2 l44 1 Z" /><glyph glyph-name="Ncommaaccent" unicode="&#x145;" d="M717 625 q2 0 2 -6 q0 -6 -2 -6 q-40 0 -62 -28.5 q-22 -28.5 -22 -81.5 l0 -517 q0 -3 -5 -4 q-5 -1 -7 1 l-469 545 l0 -407 q0 -53 21 -81 q21 -28 61 -28 q2 0 2 -6 q0 -6 -2 -6 q-27 0 -41 1 l-53 1 l-59 -1 q-16 -1 -46 -1 q-3 0 -3 6 q0 6 3 6 q43 0 66.5 28 q23.5 28 23.5 81 l0 438 q-28 30 -50.5 42 q-22.5 12 -46.5 12 q-2 0 -2 6 q0 6 2 6 l40 -1 q13 -1 37 -1 l64 1 q12 1 29 1 q8 0 12 -4 q4 -4 12 -16 q17 -23 25 -32 l359 -424 l0 354 q0 53 -21 81.5 q-21 28.5 -60 28.5 q-2 0 -2 6 q0 6 2 6 l41 -1 q32 -2 53 -2 q20 0 54 2 l44 1 ZM368 -74 q32 0 49 -21 q17 -21 17 -58 q0 -37 -18.5 -66 q-18.5 -29 -52.5 -56 l-2 -1 q-4 0 -6 4 q-2 4 1 6 q46 37 46 75 q0 21 -8 31 q-11 -17 -38 -17 q-20 0 -32.5 14 q-12.5 14 -12.5 37 q0 25 16.5 38.5 q16.5 13.5 40.5 13.5 Z" /><glyph glyph-name="uni1E44" unicode="&#x1e44;" d="M381 713 q-26 0 -40.5 14.5 q-14.5 14.5 -14.5 40.5 q0 24 14.5 38.5 q14.5 14.5 40.5 14.5 q25 0 39 -14.5 q14 -14.5 14 -38.5 q0 -26 -14 -40.5 q-14 -14.5 -39 -14.5 ZM717 625 q2 0 2 -6 q0 -6 -2 -6 q-40 0 -62 -28.5 q-22 -28.5 -22 -81.5 l0 -517 q0 -3 -5 -4 q-5 -1 -7 1 l-469 545 l0 -407 q0 -53 21 -81 q21 -28 61 -28 q2 0 2 -6 q0 -6 -2 -6 q-27 0 -41 1 l-53 1 l-59 -1 q-16 -1 -46 -1 q-3 0 -3 6 q0 6 3 6 q43 0 66.5 28 q23.5 28 23.5 81 l0 438 q-28 30 -50.5 42 q-22.5 12 -46.5 12 q-2 0 -2 6 q0 6 2 6 l40 -1 q13 -1 37 -1 l64 1 q12 1 29 1 q8 0 12 -4 q4 -4 12 -16 q17 -23 25 -32 l359 -424 l0 354 q0 53 -21 81.5 q-21 28.5 -60 28.5 q-2 0 -2 6 q0 6 2 6 l41 -1 q32 -2 53 -2 q20 0 54 2 l44 1 Z" /><glyph glyph-name="uni1E46" unicode="&#x1e46;" d="M717 625 q2 0 2 -6 q0 -6 -2 -6 q-40 0 -62 -28.5 q-22 -28.5 -22 -81.5 l0 -517 q0 -3 -5 -4 q-5 -1 -7 1 l-469 545 l0 -407 q0 -53 21 -81 q21 -28 61 -28 q2 0 2 -6 q0 -6 -2 -6 q-27 0 -41 1 l-53 1 l-59 -1 q-16 -1 -46 -1 q-3 0 -3 6 q0 6 3 6 q43 0 66.5 28 q23.5 28 23.5 81 l0 438 q-28 30 -50.5 42 q-22.5 12 -46.5 12 q-2 0 -2 6 q0 6 2 6 l40 -1 q13 -1 37 -1 l64 1 q12 1 29 1 q8 0 12 -4 q4 -4 12 -16 q17 -23 25 -32 l359 -424 l0 354 q0 53 -21 81.5 q-21 28.5 -60 28.5 q-2 0 -2 6 q0 6 2 6 l41 -1 q32 -2 53 -2 q20 0 54 2 l44 1 ZM375 -95 q25 0 39 -13.5 q14 -13.5 14 -38.5 q0 -26 -13.5 -40 q-13.5 -14 -39.5 -14 q-26 0 -40.5 14 q-14.5 14 -14.5 40 q0 25 14.5 38.5 q14.5 13.5 40.5 13.5 Z" /><glyph glyph-name="Eng" unicode="&#x14a;" d="M717 625 q2 0 2 -6 q0 -6 -2 -6 q-40 0 -62 -28.5 q-22 -28.5 -22 -81.5 l0 -517 q0 -83 -34.5 -130 q-34.5 -47 -96.5 -47 q-44 0 -71 17.5 q-27 17.5 -27 44.5 q0 21 12.5 34.5 q12.5 13.5 33.5 13.5 q25 0 33.5 -12 q8.5 -12 13.5 -36 q3 -18 9 -27.5 q6 -9.5 21 -9.5 q37 0 58 41 q21 41 21 110 l0 15 l-454 528 l0 -407 q0 -53 21 -81 q21 -28 61 -28 q2 0 2 -6 q0 -6 -2 -6 q-27 0 -41 1 l-53 1 l-59 -1 q-16 -1 -46 -1 q-3 0 -3 6 q0 6 3 6 q43 0 66.5 28 q23.5 28 23.5 81 l0 438 q-28 30 -50.5 42 q-22.5 12 -46.5 12 q-2 0 -2 6 q0 6 2 6 l40 -1 q13 -1 37 -1 l64 1 q12 1 29 1 q8 0 12 -4 q4 -4 12 -16 q17 -23 25 -32 l359 -424 l0 354 q0 53 -21 81.5 q-21 28.5 -60 28.5 q-2 0 -2 6 q0 6 2 6 l41 -1 q32 -2 53 -2 q20 0 54 2 l44 1 Z" /><glyph glyph-name="uni1E48" unicode="&#x1e48;" d="M717 625 q2 0 2 -6 q0 -6 -2 -6 q-40 0 -62 -28.5 q-22 -28.5 -22 -81.5 l0 -517 q0 -3 -5 -4 q-5 -1 -7 1 l-469 545 l0 -407 q0 -53 21 -81 q21 -28 61 -28 q2 0 2 -6 q0 -6 -2 -6 q-27 0 -41 1 l-53 1 l-59 -1 q-16 -1 -46 -1 q-3 0 -3 6 q0 6 3 6 q43 0 66.5 28 q23.5 28 23.5 81 l0 438 q-28 30 -50.5 42 q-22.5 12 -46.5 12 q-2 0 -2 6 q0 6 2 6 l40 -1 q13 -1 37 -1 l64 1 q12 1 29 1 q8 0 12 -4 q4 -4 12 -16 q17 -23 25 -32 l359 -424 l0 354 q0 53 -21 81.5 q-21 28.5 -60 28.5 q-2 0 -2 6 q0 6 2 6 l41 -1 q32 -2 53 -2 q20 0 54 2 l44 1 ZM499 -85 q4 0 6.5 -5 q2.5 -5 2.5 -12 q0 -7 -2.5 -12 q-2.5 -5 -6.5 -5 l-251 0 q-4 0 -6 5 q-2 5 -2 12 q0 6 2 11.5 q2 5.5 6 5.5 l251 0 Z" /><glyph glyph-name="Ntilde" unicode="ñ" d="M257 697 q-3 0 -5.5 2.5 q-2.5 2.5 -0.5 4.5 q43 75 87 75 q11 0 47 -10 q46 -14 75 -14 q17 0 27.5 6 q10.5 6 22.5 21 l1 0 q3 0 5.5 -2.5 q2.5 -2.5 0.5 -4.5 q-26 -45 -43 -60 q-17 -15 -38 -15 q-16 0 -34.5 5 q-18.5 5 -23.5 6 q-17 5 -35 9 q-18 4 -34 4 q-17 0 -25.5 -4.5 q-8.5 -4.5 -15.5 -12 q-7 -7.5 -10 -10.5 l-1 0 ZM717 625 q2 0 2 -6 q0 -6 -2 -6 q-40 0 -62 -28.5 q-22 -28.5 -22 -81.5 l0 -517 q0 -3 -5 -4 q-5 -1 -7 1 l-469 545 l0 -407 q0 -53 21 -81 q21 -28 61 -28 q2 0 2 -6 q0 -6 -2 -6 q-27 0 -41 1 l-53 1 l-59 -1 q-16 -1 -46 -1 q-3 0 -3 6 q0 6 3 6 q43 0 66.5 28 q23.5 28 23.5 81 l0 438 q-28 30 -50.5 42 q-22.5 12 -46.5 12 q-2 0 -2 6 q0 6 2 6 l40 -1 q13 -1 37 -1 l64 1 q12 1 29 1 q8 0 12 -4 q4 -4 12 -16 q17 -23 25 -32 l359 -424 l0 354 q0 53 -21 81.5 q-21 28.5 -60 28.5 q-2 0 -2 6 q0 6 2 6 l41 -1 q32 -2 53 -2 q20 0 54 2 l44 1 Z" /><glyph glyph-name="O" unicode="o" d="M366 -12 q-93 0 -165.5 43.5 q-72.5 43.5 -112 118 q-39.5 74.5 -39.5 162.5 q0 103 52 176.5 q52 73.5 133.5 110.5 q81.5 37 166.5 37 q95 0 167 -44.5 q72 -44.5 110.5 -117.5 q38.5 -73 38.5 -155 q0 -91 -48 -167 q-48 -76 -128.5 -120 q-80.5 -44 -174.5 -44 ZM400 12 q60 0 107.5 32.5 q47.5 32.5 75 95.5 q27.5 63 27.5 150 q0 92 -30.5 165 q-30.5 73 -87 114 q-56.5 41 -132.5 41 q-97 0 -150.5 -69.5 q-53.5 -69.5 -53.5 -192.5 q0 -95 31.5 -172 q31.5 -77 87 -120.5 q55.5 -43.5 125.5 -43.5 Z" /><glyph glyph-name="Oacute" unicode="ó" d="M288 678 q-4 0 -5 4.5 q-1 4.5 2 6.5 q32 19 88 63 q46 35 50 38 q5 4 32 -4 q27 -8 47.5 -18 q20.5 -10 9.5 -12 q-62 -15 -113.5 -33.5 q-51.5 -18.5 -108.5 -43.5 l-2 -1 ZM366 -12 q-93 0 -165.5 43.5 q-72.5 43.5 -112 118 q-39.5 74.5 -39.5 162.5 q0 103 52 176.5 q52 73.5 133.5 110.5 q81.5 37 166.5 37 q95 0 167 -44.5 q72 -44.5 110.5 -117.5 q38.5 -73 38.5 -155 q0 -91 -48 -167 q-48 -76 -128.5 -120 q-80.5 -44 -174.5 -44 ZM400 12 q60 0 107.5 32.5 q47.5 32.5 75 95.5 q27.5 63 27.5 150 q0 92 -30.5 165 q-30.5 73 -87 114 q-56.5 41 -132.5 41 q-97 0 -150.5 -69.5 q-53.5 -69.5 -53.5 -192.5 q0 -95 31.5 -172 q31.5 -77 87 -120.5 q55.5 -43.5 125.5 -43.5 Z" /><glyph glyph-name="Obreve" unicode="&#x14e;" d="M387 690 q-48 0 -74.5 31 q-26.5 31 -28.5 89 q0 4 5 4 q5 0 6 -2 q2 -21 29 -38.5 q27 -17.5 63 -17.5 q35 0 62 17.5 q27 17.5 29 38.5 q0 3 5.5 2.5 q5.5 -0.5 5.5 -4.5 q-2 -58 -28 -89 q-26 -31 -74 -31 ZM366 -12 q-93 0 -165.5 43.5 q-72.5 43.5 -112 118 q-39.5 74.5 -39.5 162.5 q0 103 52 176.5 q52 73.5 133.5 110.5 q81.5 37 166.5 37 q95 0 167 -44.5 q72 -44.5 110.5 -117.5 q38.5 -73 38.5 -155 q0 -91 -48 -167 q-48 -76 -128.5 -120 q-80.5 -44 -174.5 -44 ZM400 12 q60 0 107.5 32.5 q47.5 32.5 75 95.5 q27.5 63 27.5 150 q0 92 -30.5 165 q-30.5 73 -87 114 q-56.5 41 -132.5 41 q-97 0 -150.5 -69.5 q-53.5 -69.5 -53.5 -192.5 q0 -95 31.5 -172 q31.5 -77 87 -120.5 q55.5 -43.5 125.5 -43.5 Z" /><glyph glyph-name="uni01D1" unicode="&#x1d1;" d="M272 796 l0 1 q0 3 2.5 5.5 q2.5 2.5 3.5 0.5 l109 -45 l108 46 l1 0 q3 0 4.5 -2.5 q1.5 -2.5 -0.5 -4.5 l-102 -110 q-4 -4 -11 -4 q-8 0 -12 4 l-103 109 ZM366 -12 q-93 0 -165.5 43.5 q-72.5 43.5 -112 118 q-39.5 74.5 -39.5 162.5 q0 103 52 176.5 q52 73.5 133.5 110.5 q81.5 37 166.5 37 q95 0 167 -44.5 q72 -44.5 110.5 -117.5 q38.5 -73 38.5 -155 q0 -91 -48 -167 q-48 -76 -128.5 -120 q-80.5 -44 -174.5 -44 ZM400 12 q60 0 107.5 32.5 q47.5 32.5 75 95.5 q27.5 63 27.5 150 q0 92 -30.5 165 q-30.5 73 -87 114 q-56.5 41 -132.5 41 q-97 0 -150.5 -69.5 q-53.5 -69.5 -53.5 -192.5 q0 -95 31.5 -172 q31.5 -77 87 -120.5 q55.5 -43.5 125.5 -43.5 Z" /><glyph glyph-name="Ocircumflex" unicode="ô" d="M376 809 q5 5 12 5 q6 0 11 -5 l102 -110 q1 0 1 -2 q0 -2 -2.5 -4 q-2.5 -2 -3.5 -1 l-108 45 l-109 -45 q-2 -1 -5 2.5 q-3 3.5 -1 4.5 l103 110 ZM366 -12 q-93 0 -165.5 43.5 q-72.5 43.5 -112 118 q-39.5 74.5 -39.5 162.5 q0 103 52 176.5 q52 73.5 133.5 110.5 q81.5 37 166.5 37 q95 0 167 -44.5 q72 -44.5 110.5 -117.5 q38.5 -73 38.5 -155 q0 -91 -48 -167 q-48 -76 -128.5 -120 q-80.5 -44 -174.5 -44 ZM400 12 q60 0 107.5 32.5 q47.5 32.5 75 95.5 q27.5 63 27.5 150 q0 92 -30.5 165 q-30.5 73 -87 114 q-56.5 41 -132.5 41 q-97 0 -150.5 -69.5 q-53.5 -69.5 -53.5 -192.5 q0 -95 31.5 -172 q31.5 -77 87 -120.5 q55.5 -43.5 125.5 -43.5 Z" /><glyph glyph-name="uni1ED0" unicode="&#x1ed0;" d="M452 740 q-1 -1 -3 -1 q-3 0 -5 4 q-2 4 0 6 q36 50 64 102 q3 5 30 -2 q27 -7 48.5 -18 q21.5 -11 11.5 -14 q-41 -15 -74.5 -33.5 q-33.5 -18.5 -71.5 -43.5 ZM375 765 q5 5 12 5 q6 0 11 -5 l102 -110 q1 0 1 -2 q0 -2 -2.5 -4 q-2.5 -2 -3.5 -1 l-108 45 l-109 -45 q-2 -1 -5 2.5 q-3 3.5 -1 4.5 l103 110 ZM366 -12 q-93 0 -165.5 43.5 q-72.5 43.5 -112 118 q-39.5 74.5 -39.5 162.5 q0 103 52 176.5 q52 73.5 133.5 110.5 q81.5 37 166.5 37 q95 0 167 -44.5 q72 -44.5 110.5 -117.5 q38.5 -73 38.5 -155 q0 -91 -48 -167 q-48 -76 -128.5 -120 q-80.5 -44 -174.5 -44 ZM400 12 q60 0 107.5 32.5 q47.5 32.5 75 95.5 q27.5 63 27.5 150 q0 92 -30.5 165 q-30.5 73 -87 114 q-56.5 41 -132.5 41 q-97 0 -150.5 -69.5 q-53.5 -69.5 -53.5 -192.5 q0 -95 31.5 -172 q31.5 -77 87 -120.5 q55.5 -43.5 125.5 -43.5 Z" /><glyph glyph-name="uni1ED8" unicode="&#x1ed8;" d="M375 765 q5 5 12 5 q6 0 11 -5 l102 -110 q1 0 1 -2 q0 -2 -2.5 -4 q-2.5 -2 -3.5 -1 l-108 45 l-109 -45 q-2 -1 -5 2.5 q-3 3.5 -1 4.5 l103 110 ZM366 -12 q-93 0 -165.5 43.5 q-72.5 43.5 -112 118 q-39.5 74.5 -39.5 162.5 q0 103 52 176.5 q52 73.5 133.5 110.5 q81.5 37 166.5 37 q95 0 167 -44.5 q72 -44.5 110.5 -117.5 q38.5 -73 38.5 -155 q0 -91 -48 -167 q-48 -76 -128.5 -120 q-80.5 -44 -174.5 -44 ZM400 12 q60 0 107.5 32.5 q47.5 32.5 75 95.5 q27.5 63 27.5 150 q0 92 -30.5 165 q-30.5 73 -87 114 q-56.5 41 -132.5 41 q-97 0 -150.5 -69.5 q-53.5 -69.5 -53.5 -192.5 q0 -95 31.5 -172 q31.5 -77 87 -120.5 q55.5 -43.5 125.5 -43.5 ZM396 -201 q-26 0 -40.5 14 q-14.5 14 -14.5 40 q0 25 14.5 38.5 q14.5 13.5 40.5 13.5 q25 0 39 -13.5 q14 -13.5 14 -38.5 q0 -26 -13.5 -40 q-13.5 -14 -39.5 -14 Z" /><glyph glyph-name="uni1ED2" unicode="&#x1ed2;" d="M544 719 q-38 25 -70.5 43 q-32.5 18 -72.5 34 q-10 3 11 14 q21 11 48 18 q27 7 30 2 q35 -62 62 -101 q1 -1 1 -4 q0 -3 -2.5 -5 q-2.5 -2 -6.5 -1 ZM375 765 q5 5 12 5 q6 0 11 -5 l102 -110 q1 0 1 -2 q0 -2 -2.5 -4 q-2.5 -2 -3.5 -1 l-108 45 l-109 -45 q-2 -1 -5 2.5 q-3 3.5 -1 4.5 l103 110 ZM366 -12 q-93 0 -165.5 43.5 q-72.5 43.5 -112 118 q-39.5 74.5 -39.5 162.5 q0 103 52 176.5 q52 73.5 133.5 110.5 q81.5 37 166.5 37 q95 0 167 -44.5 q72 -44.5 110.5 -117.5 q38.5 -73 38.5 -155 q0 -91 -48 -167 q-48 -76 -128.5 -120 q-80.5 -44 -174.5 -44 ZM400 12 q60 0 107.5 32.5 q47.5 32.5 75 95.5 q27.5 63 27.5 150 q0 92 -30.5 165 q-30.5 73 -87 114 q-56.5 41 -132.5 41 q-97 0 -150.5 -69.5 q-53.5 -69.5 -53.5 -192.5 q0 -95 31.5 -172 q31.5 -77 87 -120.5 q55.5 -43.5 125.5 -43.5 Z" /><glyph glyph-name="uni1ED4" unicode="&#x1ed4;" d="M473 727 q-2 10 -2 13 q0 9 3.5 19.5 q3.5 10.5 7.5 19.5 q11 22 11 36 q0 15 -9.5 23 q-9.5 8 -21.5 8 q-8 0 -20 -4 l-2 -1 q-2 0 -4.5 3.5 q-2.5 3.5 -0.5 5.5 q29 18 61 18 q24 0 38.5 -12.5 q14.5 -12.5 14.5 -30.5 q0 -14 -9 -25.5 q-9 -11.5 -26 -26.5 q-16 -15 -23.5 -25 q-7.5 -10 -6.5 -21 q1 -2 -4.5 -2.5 q-5.5 -0.5 -6.5 2.5 ZM375 765 q5 5 12 5 q6 0 11 -5 l102 -110 q1 0 1 -2 q0 -2 -2.5 -4 q-2.5 -2 -3.5 -1 l-108 45 l-109 -45 q-2 -1 -5 2.5 q-3 3.5 -1 4.5 l103 110 ZM366 -12 q-93 0 -165.5 43.5 q-72.5 43.5 -112 118 q-39.5 74.5 -39.5 162.5 q0 103 52 176.5 q52 73.5 133.5 110.5 q81.5 37 166.5 37 q95 0 167 -44.5 q72 -44.5 110.5 -117.5 q38.5 -73 38.5 -155 q0 -91 -48 -167 q-48 -76 -128.5 -120 q-80.5 -44 -174.5 -44 ZM400 12 q60 0 107.5 32.5 q47.5 32.5 75 95.5 q27.5 63 27.5 150 q0 92 -30.5 165 q-30.5 73 -87 114 q-56.5 41 -132.5 41 q-97 0 -150.5 -69.5 q-53.5 -69.5 -53.5 -192.5 q0 -95 31.5 -172 q31.5 -77 87 -120.5 q55.5 -43.5 125.5 -43.5 Z" /><glyph glyph-name="uni1ED6" unicode="&#x1ed6;" d="M470 839 q16 0 27 6.5 q11 6.5 23 20.5 l2 1 q2 0 4 -3 q2 -3 1 -5 q-26 -44 -43 -59 q-17 -15 -39 -15 q-20 0 -57 11 q-17 5 -35.5 9 q-18.5 4 -34.5 4 q-19 0 -27 -5.5 q-8 -5.5 -23 -21.5 l-1 0 q-3 0 -5.5 2.5 q-2.5 2.5 -0.5 4.5 q44 75 86 75 q11 0 49 -10 q49 -15 74 -15 ZM375 765 q5 5 12 5 q6 0 11 -5 l102 -110 q1 0 1 -2 q0 -2 -2.5 -4 q-2.5 -2 -3.5 -1 l-108 45 l-109 -45 q-2 -1 -5 2.5 q-3 3.5 -1 4.5 l103 110 ZM366 -12 q-93 0 -165.5 43.5 q-72.5 43.5 -112 118 q-39.5 74.5 -39.5 162.5 q0 103 52 176.5 q52 73.5 133.5 110.5 q81.5 37 166.5 37 q95 0 167 -44.5 q72 -44.5 110.5 -117.5 q38.5 -73 38.5 -155 q0 -91 -48 -167 q-48 -76 -128.5 -120 q-80.5 -44 -174.5 -44 ZM400 12 q60 0 107.5 32.5 q47.5 32.5 75 95.5 q27.5 63 27.5 150 q0 92 -30.5 165 q-30.5 73 -87 114 q-56.5 41 -132.5 41 q-97 0 -150.5 -69.5 q-53.5 -69.5 -53.5 -192.5 q0 -95 31.5 -172 q31.5 -77 87 -120.5 q55.5 -43.5 125.5 -43.5 Z" /><glyph glyph-name="Odieresis" unicode="ö" d="M301 708 q-24 0 -37.5 13 q-13.5 13 -13.5 37 q0 23 13.5 35.5 q13.5 12.5 37.5 12.5 q23 0 35.5 -12.5 q12.5 -12.5 12.5 -35.5 q0 -24 -12.5 -37 q-12.5 -13 -35.5 -13 ZM475 708 q-23 0 -36.5 13 q-13.5 13 -13.5 37 q0 22 13.5 35 q13.5 13 36.5 13 q23 0 36 -12.5 q13 -12.5 13 -35.5 q0 -24 -13 -37 q-13 -13 -36 -13 ZM366 -12 q-93 0 -165.5 43.5 q-72.5 43.5 -112 118 q-39.5 74.5 -39.5 162.5 q0 103 52 176.5 q52 73.5 133.5 110.5 q81.5 37 166.5 37 q95 0 167 -44.5 q72 -44.5 110.5 -117.5 q38.5 -73 38.5 -155 q0 -91 -48 -167 q-48 -76 -128.5 -120 q-80.5 -44 -174.5 -44 ZM400 12 q60 0 107.5 32.5 q47.5 32.5 75 95.5 q27.5 63 27.5 150 q0 92 -30.5 165 q-30.5 73 -87 114 q-56.5 41 -132.5 41 q-97 0 -150.5 -69.5 q-53.5 -69.5 -53.5 -192.5 q0 -95 31.5 -172 q31.5 -77 87 -120.5 q55.5 -43.5 125.5 -43.5 Z" /><glyph glyph-name="uni1ECC" unicode="&#x1ecc;" d="M366 -12 q-93 0 -165.5 43.5 q-72.5 43.5 -112 118 q-39.5 74.5 -39.5 162.5 q0 103 52 176.5 q52 73.5 133.5 110.5 q81.5 37 166.5 37 q95 0 167 -44.5 q72 -44.5 110.5 -117.5 q38.5 -73 38.5 -155 q0 -91 -48 -167 q-48 -76 -128.5 -120 q-80.5 -44 -174.5 -44 ZM400 12 q60 0 107.5 32.5 q47.5 32.5 75 95.5 q27.5 63 27.5 150 q0 92 -30.5 165 q-30.5 73 -87 114 q-56.5 41 -132.5 41 q-97 0 -150.5 -69.5 q-53.5 -69.5 -53.5 -192.5 q0 -95 31.5 -172 q31.5 -77 87 -120.5 q55.5 -43.5 125.5 -43.5 ZM396 -201 q-26 0 -40.5 14 q-14.5 14 -14.5 40 q0 25 14.5 38.5 q14.5 13.5 40.5 13.5 q25 0 39 -13.5 q14 -13.5 14 -38.5 q0 -26 -13.5 -40 q-13.5 -14 -39.5 -14 Z" /><glyph glyph-name="Ograve" unicode="ò" d="M487 679 q-113 50 -223 77 q-10 2 10.5 12 q20.5 10 47 18 q26.5 8 31.5 4 q30 -22 45 -34 q61 -46 93 -67 q2 -1 2 -4 q0 -3 -2 -5 q-2 -2 -4 -1 ZM366 -12 q-93 0 -165.5 43.5 q-72.5 43.5 -112 118 q-39.5 74.5 -39.5 162.5 q0 103 52 176.5 q52 73.5 133.5 110.5 q81.5 37 166.5 37 q95 0 167 -44.5 q72 -44.5 110.5 -117.5 q38.5 -73 38.5 -155 q0 -91 -48 -167 q-48 -76 -128.5 -120 q-80.5 -44 -174.5 -44 ZM400 12 q60 0 107.5 32.5 q47.5 32.5 75 95.5 q27.5 63 27.5 150 q0 92 -30.5 165 q-30.5 73 -87 114 q-56.5 41 -132.5 41 q-97 0 -150.5 -69.5 q-53.5 -69.5 -53.5 -192.5 q0 -95 31.5 -172 q31.5 -77 87 -120.5 q55.5 -43.5 125.5 -43.5 Z" /><glyph glyph-name="uni1ECE" unicode="&#x1ece;" d="M389 651 q0 -2 -5.5 -2 q-5.5 0 -6.5 2 q-2 8 -2 22 q0 16 4 29 q4 13 13 32 q15 30 15 52 q0 37 -33 37 q-16 0 -33 -9 l-1 0 q-4 0 -6.5 3.5 q-2.5 3.5 0.5 4.5 q32 26 76 26 q31 0 49.5 -14.5 q18.5 -14.5 18.5 -37.5 q0 -20 -12.5 -37.5 q-12.5 -17.5 -35.5 -39.5 q-22 -23 -32 -37.5 q-10 -14.5 -9 -30.5 ZM366 -12 q-93 0 -165.5 43.5 q-72.5 43.5 -112 118 q-39.5 74.5 -39.5 162.5 q0 103 52 176.5 q52 73.5 133.5 110.5 q81.5 37 166.5 37 q95 0 167 -44.5 q72 -44.5 110.5 -117.5 q38.5 -73 38.5 -155 q0 -91 -48 -167 q-48 -76 -128.5 -120 q-80.5 -44 -174.5 -44 ZM400 12 q60 0 107.5 32.5 q47.5 32.5 75 95.5 q27.5 63 27.5 150 q0 92 -30.5 165 q-30.5 73 -87 114 q-56.5 41 -132.5 41 q-97 0 -150.5 -69.5 q-53.5 -69.5 -53.5 -192.5 q0 -95 31.5 -172 q31.5 -77 87 -120.5 q55.5 -43.5 125.5 -43.5 Z" /><glyph glyph-name="Ohorn" unicode="&#x1a0;" d="M742 661 q0 -40 -31 -68 q-31 -28 -83 -50 q43 -44 66 -102.5 q23 -58.5 23 -121.5 q0 -91 -48 -167 q-48 -76 -128.5 -120 q-80.5 -44 -174.5 -44 q-93 0 -165.5 43.5 q-72.5 43.5 -112 118 q-39.5 74.5 -39.5 162.5 q0 103 52 176.5 q52 73.5 133.5 110.5 q81.5 37 166.5 37 q65 0 119.5 -21.5 q54.5 -21.5 95.5 -59.5 q54 23 54 55 q0 10 -9 21 q-6 8 -9 15 q-3 7 -3 18 q0 22 14.5 34.5 q14.5 12.5 33.5 12.5 q22 0 33.5 -15 q11.5 -15 11.5 -35 ZM400 12 q60 0 107.5 32.5 q47.5 32.5 75 95.5 q27.5 63 27.5 150 q0 92 -30.5 165 q-30.5 73 -87 114 q-56.5 41 -132.5 41 q-97 0 -150.5 -69.5 q-53.5 -69.5 -53.5 -192.5 q0 -95 31.5 -172 q31.5 -77 87 -120.5 q55.5 -43.5 125.5 -43.5 Z" /><glyph glyph-name="uni1EDA" unicode="&#x1eda;" d="M286 678 q-4 0 -5.5 4.5 q-1.5 4.5 1.5 6.5 q33 21 94 67 q14 12 44 34 q5 4 32 -4 q27 -8 47.5 -18 q20.5 -10 9.5 -12 q-118 -30 -222 -78 l-1 0 ZM742 661 q0 -40 -31 -68 q-31 -28 -83 -50 q43 -44 66 -102.5 q23 -58.5 23 -121.5 q0 -91 -48 -167 q-48 -76 -128.5 -120 q-80.5 -44 -174.5 -44 q-93 0 -165.5 43.5 q-72.5 43.5 -112 118 q-39.5 74.5 -39.5 162.5 q0 103 52 176.5 q52 73.5 133.5 110.5 q81.5 37 166.5 37 q65 0 119.5 -21.5 q54.5 -21.5 95.5 -59.5 q54 23 54 55 q0 10 -9 21 q-6 8 -9 15 q-3 7 -3 18 q0 22 14.5 34.5 q14.5 12.5 33.5 12.5 q22 0 33.5 -15 q11.5 -15 11.5 -35 ZM400 12 q60 0 107.5 32.5 q47.5 32.5 75 95.5 q27.5 63 27.5 150 q0 92 -30.5 165 q-30.5 73 -87 114 q-56.5 41 -132.5 41 q-97 0 -150.5 -69.5 q-53.5 -69.5 -53.5 -192.5 q0 -95 31.5 -172 q31.5 -77 87 -120.5 q55.5 -43.5 125.5 -43.5 Z" /><glyph glyph-name="uni1EE2" unicode="&#x1ee2;" d="M742 661 q0 -40 -31 -68 q-31 -28 -83 -50 q43 -44 66 -102.5 q23 -58.5 23 -121.5 q0 -91 -48 -167 q-48 -76 -128.5 -120 q-80.5 -44 -174.5 -44 q-93 0 -165.5 43.5 q-72.5 43.5 -112 118 q-39.5 74.5 -39.5 162.5 q0 103 52 176.5 q52 73.5 133.5 110.5 q81.5 37 166.5 37 q65 0 119.5 -21.5 q54.5 -21.5 95.5 -59.5 q54 23 54 55 q0 10 -9 21 q-6 8 -9 15 q-3 7 -3 18 q0 22 14.5 34.5 q14.5 12.5 33.5 12.5 q22 0 33.5 -15 q11.5 -15 11.5 -35 ZM400 12 q60 0 107.5 32.5 q47.5 32.5 75 95.5 q27.5 63 27.5 150 q0 92 -30.5 165 q-30.5 73 -87 114 q-56.5 41 -132.5 41 q-97 0 -150.5 -69.5 q-53.5 -69.5 -53.5 -192.5 q0 -95 31.5 -172 q31.5 -77 87 -120.5 q55.5 -43.5 125.5 -43.5 ZM385 -95 q25 0 39 -13.5 q14 -13.5 14 -38.5 q0 -26 -13.5 -40 q-13.5 -14 -39.5 -14 q-26 0 -40.5 14 q-14.5 14 -14.5 40 q0 25 14.5 38.5 q14.5 13.5 40.5 13.5 Z" /><glyph glyph-name="uni1EDC" unicode="&#x1edc;" d="M261 756 q-10 2 10.5 12 q20.5 10 47 18 q26.5 8 31.5 4 q30 -22 45 -34 q61 -46 93 -67 q2 -1 2 -4 q0 -3 -2 -5 q-2 -2 -4 -1 q-113 50 -223 77 ZM742 661 q0 -40 -31 -68 q-31 -28 -83 -50 q43 -44 66 -102.5 q23 -58.5 23 -121.5 q0 -91 -48 -167 q-48 -76 -128.5 -120 q-80.5 -44 -174.5 -44 q-93 0 -165.5 43.5 q-72.5 43.5 -112 118 q-39.5 74.5 -39.5 162.5 q0 103 52 176.5 q52 73.5 133.5 110.5 q81.5 37 166.5 37 q65 0 119.5 -21.5 q54.5 -21.5 95.5 -59.5 q54 23 54 55 q0 10 -9 21 q-6 8 -9 15 q-3 7 -3 18 q0 22 14.5 34.5 q14.5 12.5 33.5 12.5 q22 0 33.5 -15 q11.5 -15 11.5 -35 ZM400 12 q60 0 107.5 32.5 q47.5 32.5 75 95.5 q27.5 63 27.5 150 q0 92 -30.5 165 q-30.5 73 -87 114 q-56.5 41 -132.5 41 q-97 0 -150.5 -69.5 q-53.5 -69.5 -53.5 -192.5 q0 -95 31.5 -172 q31.5 -77 87 -120.5 q55.5 -43.5 125.5 -43.5 Z" /><glyph glyph-name="uni1EDE" unicode="&#x1ede;" d="M334 824 q-3 0 -5.5 3 q-2.5 3 -0.5 5 q35 26 76 26 q31 0 49.5 -14.5 q18.5 -14.5 18.5 -38.5 q0 -19 -12 -36 q-12 -17 -35 -40 q-21 -21 -32 -36.5 q-11 -15.5 -10 -31.5 q1 -2 -4.5 -2.5 q-5.5 -0.5 -6.5 2.5 q-3 12 -3 23 q0 15 4 27 q4 12 13 32 q8 18 12 29 q4 11 4 24 q0 18 -9 27.5 q-9 9.5 -24 9.5 q-14 0 -34 -9 l-1 0 ZM742 661 q0 -40 -31 -68 q-31 -28 -83 -50 q43 -44 66 -102.5 q23 -58.5 23 -121.5 q0 -91 -48 -167 q-48 -76 -128.5 -120 q-80.5 -44 -174.5 -44 q-93 0 -165.5 43.5 q-72.5 43.5 -112 118 q-39.5 74.5 -39.5 162.5 q0 103 52 176.5 q52 73.5 133.5 110.5 q81.5 37 166.5 37 q65 0 119.5 -21.5 q54.5 -21.5 95.5 -59.5 q54 23 54 55 q0 10 -9 21 q-6 8 -9 15 q-3 7 -3 18 q0 22 14.5 34.5 q14.5 12.5 33.5 12.5 q22 0 33.5 -15 q11.5 -15 11.5 -35 ZM400 12 q60 0 107.5 32.5 q47.5 32.5 75 95.5 q27.5 63 27.5 150 q0 92 -30.5 165 q-30.5 73 -87 114 q-56.5 41 -132.5 41 q-97 0 -150.5 -69.5 q-53.5 -69.5 -53.5 -192.5 q0 -95 31.5 -172 q31.5 -77 87 -120.5 q55.5 -43.5 125.5 -43.5 Z" /><glyph glyph-name="uni1EE0" unicode="&#x1ee0;" d="M257 712 q-3 0 -5.5 2.5 q-2.5 2.5 -0.5 4.5 q44 75 86 75 q11 0 49 -10 q49 -15 74 -15 q16 0 27 6.5 q11 6.5 23 20.5 l2 1 q2 0 4 -3 q2 -3 1 -5 q-26 -44 -43 -59 q-17 -15 -39 -15 q-20 0 -57 11 q-17 5 -35.5 9 q-18.5 4 -34.5 4 q-19 0 -27 -5.5 q-8 -5.5 -23 -21.5 l-1 0 ZM742 661 q0 -40 -31 -68 q-31 -28 -83 -50 q43 -44 66 -102.5 q23 -58.5 23 -121.5 q0 -91 -48 -167 q-48 -76 -128.5 -120 q-80.5 -44 -174.5 -44 q-93 0 -165.5 43.5 q-72.5 43.5 -112 118 q-39.5 74.5 -39.5 162.5 q0 103 52 176.5 q52 73.5 133.5 110.5 q81.5 37 166.5 37 q65 0 119.5 -21.5 q54.5 -21.5 95.5 -59.5 q54 23 54 55 q0 10 -9 21 q-6 8 -9 15 q-3 7 -3 18 q0 22 14.5 34.5 q14.5 12.5 33.5 12.5 q22 0 33.5 -15 q11.5 -15 11.5 -35 ZM400 12 q60 0 107.5 32.5 q47.5 32.5 75 95.5 q27.5 63 27.5 150 q0 92 -30.5 165 q-30.5 73 -87 114 q-56.5 41 -132.5 41 q-97 0 -150.5 -69.5 q-53.5 -69.5 -53.5 -192.5 q0 -95 31.5 -172 q31.5 -77 87 -120.5 q55.5 -43.5 125.5 -43.5 Z" /><glyph glyph-name="Ohungarumlaut" unicode="&#x150;" d="M276 670 q-4 0 -5.5 4 q-1.5 4 0.5 7 q49 57 90 116 q3 6 27.5 -0.5 q24.5 -6.5 44 -17 q19.5 -10.5 10.5 -14.5 q-88 -39 -165 -94 l-2 -1 ZM418 670 q-3 0 -4.5 4 q-1.5 4 0.5 7 q23 25 46.5 56 q23.5 31 43.5 60 q2 6 26.5 -0.5 q24.5 -6.5 43.5 -17 q19 -10.5 10 -14.5 q-85 -39 -163 -94 l-3 -1 ZM366 -12 q-93 0 -165.5 43.5 q-72.5 43.5 -112 118 q-39.5 74.5 -39.5 162.5 q0 103 52 176.5 q52 73.5 133.5 110.5 q81.5 37 166.5 37 q95 0 167 -44.5 q72 -44.5 110.5 -117.5 q38.5 -73 38.5 -155 q0 -91 -48 -167 q-48 -76 -128.5 -120 q-80.5 -44 -174.5 -44 ZM400 12 q60 0 107.5 32.5 q47.5 32.5 75 95.5 q27.5 63 27.5 150 q0 92 -30.5 165 q-30.5 73 -87 114 q-56.5 41 -132.5 41 q-97 0 -150.5 -69.5 q-53.5 -69.5 -53.5 -192.5 q0 -95 31.5 -172 q31.5 -77 87 -120.5 q55.5 -43.5 125.5 -43.5 Z" /><glyph glyph-name="Omacron" unicode="&#x14c;" d="M261 716 q-4 0 -6 5.5 q-2 5.5 -2 11.5 q0 7 2 12 q2 5 6 5 l251 0 q4 0 6.5 -5 q2.5 -5 2.5 -12 q0 -7 -2.5 -12 q-2.5 -5 -6.5 -5 l-251 0 ZM366 -12 q-93 0 -165.5 43.5 q-72.5 43.5 -112 118 q-39.5 74.5 -39.5 162.5 q0 103 52 176.5 q52 73.5 133.5 110.5 q81.5 37 166.5 37 q95 0 167 -44.5 q72 -44.5 110.5 -117.5 q38.5 -73 38.5 -155 q0 -91 -48 -167 q-48 -76 -128.5 -120 q-80.5 -44 -174.5 -44 ZM400 12 q60 0 107.5 32.5 q47.5 32.5 75 95.5 q27.5 63 27.5 150 q0 92 -30.5 165 q-30.5 73 -87 114 q-56.5 41 -132.5 41 q-97 0 -150.5 -69.5 q-53.5 -69.5 -53.5 -192.5 q0 -95 31.5 -172 q31.5 -77 87 -120.5 q55.5 -43.5 125.5 -43.5 Z" /><glyph glyph-name="uni01EA" unicode="&#x1ea;" d="M440 -4 q-32 -31 -45.5 -59 q-13.5 -28 -13.5 -63 q0 -50 25.5 -80.5 q25.5 -30.5 70.5 -30.5 q14 0 28 4.5 q14 4.5 22 10.5 l2 0 q3 0 5.5 -3 q2.5 -3 -0.5 -5 q-53 -45 -111 -45 q-51 0 -83.5 30 q-32.5 30 -32.5 76 q0 76 106 160 q-24 -3 -47 -3 q-93 0 -165.5 43.5 q-72.5 43.5 -112 118 q-39.5 74.5 -39.5 162.5 q0 103 52 176.5 q52 73.5 133.5 110.5 q81.5 37 166.5 37 q95 0 167 -44.5 q72 -44.5 110.5 -117.5 q38.5 -73 38.5 -155 q0 -79 -36.5 -147 q-36.5 -68 -99.5 -114.5 q-63 -46.5 -141 -61.5 ZM156 348 q0 -95 31.5 -172 q31.5 -77 87 -120.5 q55.5 -43.5 125.5 -43.5 q60 0 107.5 32.5 q47.5 32.5 75 95.5 q27.5 63 27.5 150 q0 92 -30.5 165 q-30.5 73 -87 114 q-56.5 41 -132.5 41 q-97 0 -150.5 -69.5 q-53.5 -69.5 -53.5 -192.5 Z" /><glyph glyph-name="Oslash" unicode="ø" d="M629 542 q42 -45 65 -103 q23 -58 23 -120 q0 -91 -48 -167 q-48 -76 -128.5 -120 q-80.5 -44 -174.5 -44 q-123 0 -209 75 l-70 -71 l-1 -1 q-5 0 -12.5 8 q-7.5 8 -4.5 11 l70 71 q-44 44 -67 104 q-23 60 -23 127 q0 103 52 176.5 q52 73.5 133.5 110.5 q81.5 37 166.5 37 q62 0 115.5 -20 q53.5 -20 94.5 -56 l71 72 l1 0 q5 0 13 -7 q8 -7 5 -10 l-72 -73 ZM156 348 q0 -116 46 -203 l352 358 q-33 51 -82.5 79 q-49.5 28 -111.5 28 q-97 0 -150.5 -69.5 q-53.5 -69.5 -53.5 -192.5 ZM400 12 q60 0 107.5 32.5 q47.5 32.5 75 95.5 q27.5 63 27.5 150 q0 109 -42 190 l-353 -358 q33 -52 81 -81 q48 -29 104 -29 Z" /><glyph glyph-name="Oslashacute" unicode="&#x1fe;" d="M300 678 q-4 0 -5 4.5 q-1 4.5 2 6.5 q32 19 88 63 q46 35 50 38 q5 4 32 -4 q27 -8 47.5 -18 q20.5 -10 9.5 -12 q-62 -15 -113.5 -33.5 q-51.5 -18.5 -108.5 -43.5 l-2 -1 ZM629 542 q42 -45 65 -103 q23 -58 23 -120 q0 -91 -48 -167 q-48 -76 -128.5 -120 q-80.5 -44 -174.5 -44 q-123 0 -209 75 l-70 -71 l-1 -1 q-5 0 -12.5 8 q-7.5 8 -4.5 11 l70 71 q-44 44 -67 104 q-23 60 -23 127 q0 103 52 176.5 q52 73.5 133.5 110.5 q81.5 37 166.5 37 q62 0 115.5 -20 q53.5 -20 94.5 -56 l71 72 l1 0 q5 0 13 -7 q8 -7 5 -10 l-72 -73 ZM156 348 q0 -116 46 -203 l352 358 q-33 51 -82.5 79 q-49.5 28 -111.5 28 q-97 0 -150.5 -69.5 q-53.5 -69.5 -53.5 -192.5 ZM400 12 q60 0 107.5 32.5 q47.5 32.5 75 95.5 q27.5 63 27.5 150 q0 109 -42 190 l-353 -358 q33 -52 81 -81 q48 -29 104 -29 Z" /><glyph glyph-name="Otilde" unicode="õ" d="M467 755 q17 0 27.5 6 q10.5 6 22.5 21 l1 0 q3 0 5.5 -2.5 q2.5 -2.5 0.5 -4.5 q-26 -45 -43 -60 q-17 -15 -38 -15 q-16 0 -34.5 5 q-18.5 5 -23.5 6 q-17 5 -35 9 q-18 4 -34 4 q-17 0 -25.5 -4.5 q-8.5 -4.5 -15.5 -12 q-7 -7.5 -10 -10.5 l-1 0 q-3 0 -5.5 2.5 q-2.5 2.5 -0.5 4.5 q43 75 87 75 q11 0 47 -10 q46 -14 75 -14 ZM366 -12 q-93 0 -165.5 43.5 q-72.5 43.5 -112 118 q-39.5 74.5 -39.5 162.5 q0 103 52 176.5 q52 73.5 133.5 110.5 q81.5 37 166.5 37 q95 0 167 -44.5 q72 -44.5 110.5 -117.5 q38.5 -73 38.5 -155 q0 -91 -48 -167 q-48 -76 -128.5 -120 q-80.5 -44 -174.5 -44 ZM400 12 q60 0 107.5 32.5 q47.5 32.5 75 95.5 q27.5 63 27.5 150 q0 92 -30.5 165 q-30.5 73 -87 114 q-56.5 41 -132.5 41 q-97 0 -150.5 -69.5 q-53.5 -69.5 -53.5 -192.5 q0 -95 31.5 -172 q31.5 -77 87 -120.5 q55.5 -43.5 125.5 -43.5 Z" /><glyph glyph-name="OE" unicode="&#x152;" d="M868 155 q0 2 5 2 q7 0 7 -3 q-10 -76 -10 -139 q0 -8 -3 -11.5 q-3 -3.5 -12 -3.5 l-312 0 q-20 0 -66 -2 q-44 -2 -67 -2 q-106 0 -188 40 q-82 40 -127.5 109.5 q-45.5 69.5 -45.5 155.5 q0 97 47.5 171 q47.5 74 127.5 114.5 q80 40.5 175 40.5 q47 0 73 -1 l77 -1 l289 0 q9 0 9 -9 l2 -130 q0 -2 -5 -3 q-5 -1 -6 2 q-5 26 -23.5 53 q-18.5 27 -47 44.5 q-28.5 17.5 -60.5 17.5 l-49 0 q-36 0 -50.5 -13 q-14.5 -13 -14.5 -44 l0 -205 l96 0 q109 0 109 74 q0 3 6 3 q6 0 6 -3 l-1 -55 q-1 -11 -1 -32 l1 -47 q2 -32 2 -52 q0 -2 -6 -2 q-6 0 -6 2 q0 86 -112 86 l-94 0 l0 -227 q0 -32 12.5 -45.5 q12.5 -13.5 43.5 -13.5 l58 0 q52 0 99.5 38 q47.5 38 61.5 91 ZM497 541 q0 27 -6.5 41 q-6.5 14 -25 20 q-18.5 6 -55.5 6 q-74 0 -131.5 -33.5 q-57.5 -33.5 -90 -97.5 q-32.5 -64 -32.5 -154 q0 -86 30.5 -156 q30.5 -70 87 -110.5 q56.5 -40.5 130.5 -40.5 q39 0 58.5 5 q19.5 5 27 18.5 q7.5 13.5 7.5 41.5 l0 460 Z" /><glyph glyph-name="P" unicode="p" d="M208 85 q0 -32 7.5 -46.5 q7.5 -14.5 29 -20.5 q21.5 -6 67.5 -6 q3 0 3 -6 q0 -6 -3 -6 q-41 0 -64 1 l-87 1 l-72 -1 q-19 -1 -52 -1 q-3 0 -3 6 q0 6 3 6 q34 0 49 5 q15 5 20.5 19 q5.5 14 5.5 45 l0 463 q0 30 -5.5 44 q-5.5 14 -21 19.5 q-15.5 5.5 -48.5 5.5 q-3 0 -3 6 q0 6 3 6 l52 -1 q44 -2 71 -2 q23 0 56 3 q12 1 32.5 2 q20.5 1 48.5 1 q99 0 156.5 -42 q57.5 -42 57.5 -129 q0 -63 -32.5 -107 q-32.5 -44 -83 -66 q-50.5 -22 -103.5 -22 q-28 0 -47 5 q-3 0 -3 5 q0 3 1.5 6 q1.5 3 3.5 2 q16 -4 35 -4 q52 0 88 43 q36 43 36 123 q0 79 -37 122.5 q-37 43.5 -102 43.5 q-24 0 -36.5 -5 q-12.5 -5 -17.5 -18.5 q-5 -13.5 -5 -42.5 l0 -457 Z" /><glyph glyph-name="Thorn" unicode="þ" d="M288 147 q50 0 84 43.5 q34 43.5 34 125.5 q0 80 -36.5 122 q-36.5 42 -98.5 42 q-35 0 -66 -6 l0 -389 q0 -32 7.5 -46.5 q7.5 -14.5 29 -20.5 q21.5 -6 67.5 -6 q2 0 2 -6 q0 -6 -2 -6 q-42 0 -65 1 l-86 1 l-67 -1 q-18 -1 -49 -1 q-3 0 -3 6 q0 6 3 6 q30 0 44 5 q14 5 19 19.5 q5 14.5 5 44.5 l0 463 q0 30 -5 44 q-5 14 -19.5 19.5 q-14.5 5.5 -43.5 5.5 q-3 0 -3 6 q0 6 3 6 l49 -1 q42 -2 67 -2 q32 0 86 2 l65 1 q2 0 2 -6 q0 -6 -2 -6 q-46 0 -67.5 -6 q-21.5 -6 -29 -21 q-7.5 -15 -7.5 -47 l0 -46 q50 6 91 6 q98 0 157 -40 q59 -40 59 -128 q0 -65 -32 -109.5 q-32 -44.5 -81 -66.5 q-49 -22 -100 -22 q-24 0 -49 5 q-3 0 -3 5 q0 3 1.5 6 q1.5 3 3.5 2 q24 -4 36 -4 Z" /><glyph glyph-name="Q" unicode="q" d="M745 -173 q3 1 4.5 -4 q1.5 -5 -0.5 -6 q-45 -12 -82 -12 q-74 0 -154.5 48.5 q-80.5 48.5 -138.5 134.5 l-8 0 q-93 0 -165.5 43.5 q-72.5 43.5 -112 118 q-39.5 74.5 -39.5 162.5 q0 103 52 176.5 q52 73.5 133.5 110.5 q81.5 37 166.5 37 q95 0 167 -44.5 q72 -44.5 110.5 -117.5 q38.5 -73 38.5 -155 q0 -71 -30 -134.5 q-30 -63.5 -83 -109 q-53 -45.5 -121 -68.5 q40 -79 104.5 -130.5 q64.5 -51.5 122.5 -51.5 q17 0 35 2 ZM156 348 q0 -95 31.5 -172 q31.5 -77 87 -120.5 q55.5 -43.5 125.5 -43.5 q60 0 107.5 32.5 q47.5 32.5 75 95.5 q27.5 63 27.5 150 q0 92 -30.5 165 q-30.5 73 -87 114 q-56.5 41 -132.5 41 q-97 0 -150.5 -69.5 q-53.5 -69.5 -53.5 -192.5 Z" /><glyph glyph-name="R" unicode="r" d="M699 12 q3 0 3 -6 q0 -6 -3 -6 l-161 0 q-23 0 -85.5 83.5 q-62.5 83.5 -152.5 233.5 q-16 -3 -33 -3 q-37 0 -52 1 l0 -234 q0 -31 5.5 -45 q5.5 -14 21 -19 q15.5 -5 49.5 -5 q2 0 2 -6 q0 -6 -2 -6 q-33 0 -51 1 l-74 1 l-72 -1 q-19 -1 -52 -1 q-3 0 -3 6 q0 6 3 6 q34 0 49.5 5 q15.5 5 21.5 19.5 q6 14.5 6 44.5 l0 463 q0 30 -5.5 44 q-5.5 14 -21.5 19.5 q-16 5.5 -49 5.5 q-2 0 -2 6 q0 6 2 6 l52 -1 q44 -2 71 -2 q30 0 63 3 q12 1 29 2 q17 1 37 1 q89 0 137 -33 q48 -33 48 -93 q0 -47 -28 -89 q-28 -42 -73 -68 q82 -126 137.5 -197.5 q55.5 -71.5 98.5 -103.5 q43 -32 84 -32 ZM215 343 q24 -4 58 -4 q60 0 84 27 q24 27 24 99 q0 81 -27 112.5 q-27 31.5 -76 31.5 q-36 0 -49.5 -14 q-13.5 -14 -13.5 -53 l0 -199 Z" /><glyph glyph-name="Racute" unicode="&#x154;" d="M158 678 q-4 0 -5 4.5 q-1 4.5 2 6.5 q32 19 88 63 q46 35 50 38 q5 4 32 -4 q27 -8 47.5 -18 q20.5 -10 9.5 -12 q-62 -15 -113.5 -33.5 q-51.5 -18.5 -108.5 -43.5 l-2 -1 ZM699 12 q3 0 3 -6 q0 -6 -3 -6 l-161 0 q-23 0 -85.5 83.5 q-62.5 83.5 -152.5 233.5 q-16 -3 -33 -3 q-37 0 -52 1 l0 -234 q0 -31 5.5 -45 q5.5 -14 21 -19 q15.5 -5 49.5 -5 q2 0 2 -6 q0 -6 -2 -6 q-33 0 -51 1 l-74 1 l-72 -1 q-19 -1 -52 -1 q-3 0 -3 6 q0 6 3 6 q34 0 49.5 5 q15.5 5 21.5 19.5 q6 14.5 6 44.5 l0 463 q0 30 -5.5 44 q-5.5 14 -21.5 19.5 q-16 5.5 -49 5.5 q-2 0 -2 6 q0 6 2 6 l52 -1 q44 -2 71 -2 q30 0 63 3 q12 1 29 2 q17 1 37 1 q89 0 137 -33 q48 -33 48 -93 q0 -47 -28 -89 q-28 -42 -73 -68 q82 -126 137.5 -197.5 q55.5 -71.5 98.5 -103.5 q43 -32 84 -32 ZM215 343 q24 -4 58 -4 q60 0 84 27 q24 27 24 99 q0 81 -27 112.5 q-27 31.5 -76 31.5 q-36 0 -49.5 -14 q-13.5 -14 -13.5 -53 l0 -199 Z" /><glyph glyph-name="Rcaron" unicode="&#x158;" d="M142 796 l0 1 q0 3 2.5 5.5 q2.5 2.5 3.5 0.5 l109 -45 l108 46 l1 0 q3 0 4.5 -2.5 q1.5 -2.5 -0.5 -4.5 l-102 -110 q-4 -4 -11 -4 q-8 0 -12 4 l-103 109 ZM699 12 q3 0 3 -6 q0 -6 -3 -6 l-161 0 q-23 0 -85.5 83.5 q-62.5 83.5 -152.5 233.5 q-16 -3 -33 -3 q-37 0 -52 1 l0 -234 q0 -31 5.5 -45 q5.5 -14 21 -19 q15.5 -5 49.5 -5 q2 0 2 -6 q0 -6 -2 -6 q-33 0 -51 1 l-74 1 l-72 -1 q-19 -1 -52 -1 q-3 0 -3 6 q0 6 3 6 q34 0 49.5 5 q15.5 5 21.5 19.5 q6 14.5 6 44.5 l0 463 q0 30 -5.5 44 q-5.5 14 -21.5 19.5 q-16 5.5 -49 5.5 q-2 0 -2 6 q0 6 2 6 l52 -1 q44 -2 71 -2 q30 0 63 3 q12 1 29 2 q17 1 37 1 q89 0 137 -33 q48 -33 48 -93 q0 -47 -28 -89 q-28 -42 -73 -68 q82 -126 137.5 -197.5 q55.5 -71.5 98.5 -103.5 q43 -32 84 -32 ZM215 343 q24 -4 58 -4 q60 0 84 27 q24 27 24 99 q0 81 -27 112.5 q-27 31.5 -76 31.5 q-36 0 -49.5 -14 q-13.5 -14 -13.5 -53 l0 -199 Z" /><glyph glyph-name="Rcommaaccent" unicode="&#x156;" d="M699 12 q3 0 3 -6 q0 -6 -3 -6 l-161 0 q-23 0 -85.5 83.5 q-62.5 83.5 -152.5 233.5 q-16 -3 -33 -3 q-37 0 -52 1 l0 -234 q0 -31 5.5 -45 q5.5 -14 21 -19 q15.5 -5 49.5 -5 q2 0 2 -6 q0 -6 -2 -6 q-33 0 -51 1 l-74 1 l-72 -1 q-19 -1 -52 -1 q-3 0 -3 6 q0 6 3 6 q34 0 49.5 5 q15.5 5 21.5 19.5 q6 14.5 6 44.5 l0 463 q0 30 -5.5 44 q-5.5 14 -21.5 19.5 q-16 5.5 -49 5.5 q-2 0 -2 6 q0 6 2 6 l52 -1 q44 -2 71 -2 q30 0 63 3 q12 1 29 2 q17 1 37 1 q89 0 137 -33 q48 -33 48 -93 q0 -47 -28 -89 q-28 -42 -73 -68 q82 -126 137.5 -197.5 q55.5 -71.5 98.5 -103.5 q43 -32 84 -32 ZM215 343 q24 -4 58 -4 q60 0 84 27 q24 27 24 99 q0 81 -27 112.5 q-27 31.5 -76 31.5 q-36 0 -49.5 -14 q-13.5 -14 -13.5 -53 l0 -199 ZM338 -74 q32 0 49 -21 q17 -21 17 -58 q0 -37 -18.5 -66 q-18.5 -29 -52.5 -56 l-2 -1 q-4 0 -6 4 q-2 4 1 6 q46 37 46 75 q0 21 -8 31 q-11 -17 -38 -17 q-20 0 -32.5 14 q-12.5 14 -12.5 37 q0 25 16.5 38.5 q16.5 13.5 40.5 13.5 Z" /><glyph glyph-name="uni1E5A" unicode="&#x1e5a;" d="M699 12 q3 0 3 -6 q0 -6 -3 -6 l-161 0 q-23 0 -85.5 83.5 q-62.5 83.5 -152.5 233.5 q-16 -3 -33 -3 q-37 0 -52 1 l0 -234 q0 -31 5.5 -45 q5.5 -14 21 -19 q15.5 -5 49.5 -5 q2 0 2 -6 q0 -6 -2 -6 q-33 0 -51 1 l-74 1 l-72 -1 q-19 -1 -52 -1 q-3 0 -3 6 q0 6 3 6 q34 0 49.5 5 q15.5 5 21.5 19.5 q6 14.5 6 44.5 l0 463 q0 30 -5.5 44 q-5.5 14 -21.5 19.5 q-16 5.5 -49 5.5 q-2 0 -2 6 q0 6 2 6 l52 -1 q44 -2 71 -2 q30 0 63 3 q12 1 29 2 q17 1 37 1 q89 0 137 -33 q48 -33 48 -93 q0 -47 -28 -89 q-28 -42 -73 -68 q82 -126 137.5 -197.5 q55.5 -71.5 98.5 -103.5 q43 -32 84 -32 ZM215 343 q24 -4 58 -4 q60 0 84 27 q24 27 24 99 q0 81 -27 112.5 q-27 31.5 -76 31.5 q-36 0 -49.5 -14 q-13.5 -14 -13.5 -53 l0 -199 ZM345 -95 q25 0 39 -13.5 q14 -13.5 14 -38.5 q0 -26 -13.5 -40 q-13.5 -14 -39.5 -14 q-26 0 -40.5 14 q-14.5 14 -14.5 40 q0 25 14.5 38.5 q14.5 13.5 40.5 13.5 Z" /><glyph glyph-name="uni1E5C" unicode="&#x1e5c;" d="M131 716 q-4 0 -6 5.5 q-2 5.5 -2 11.5 q0 7 2 12 q2 5 6 5 l251 0 q4 0 6.5 -5 q2.5 -5 2.5 -12 q0 -7 -2.5 -12 q-2.5 -5 -6.5 -5 l-251 0 ZM699 12 q3 0 3 -6 q0 -6 -3 -6 l-161 0 q-23 0 -85.5 83.5 q-62.5 83.5 -152.5 233.5 q-16 -3 -33 -3 q-37 0 -52 1 l0 -234 q0 -31 5.5 -45 q5.5 -14 21 -19 q15.5 -5 49.5 -5 q2 0 2 -6 q0 -6 -2 -6 q-33 0 -51 1 l-74 1 l-72 -1 q-19 -1 -52 -1 q-3 0 -3 6 q0 6 3 6 q34 0 49.5 5 q15.5 5 21.5 19.5 q6 14.5 6 44.5 l0 463 q0 30 -5.5 44 q-5.5 14 -21.5 19.5 q-16 5.5 -49 5.5 q-2 0 -2 6 q0 6 2 6 l52 -1 q44 -2 71 -2 q30 0 63 3 q12 1 29 2 q17 1 37 1 q89 0 137 -33 q48 -33 48 -93 q0 -47 -28 -89 q-28 -42 -73 -68 q82 -126 137.5 -197.5 q55.5 -71.5 98.5 -103.5 q43 -32 84 -32 ZM215 343 q24 -4 58 -4 q60 0 84 27 q24 27 24 99 q0 81 -27 112.5 q-27 31.5 -76 31.5 q-36 0 -49.5 -14 q-13.5 -14 -13.5 -53 l0 -199 ZM345 -95 q25 0 39 -13.5 q14 -13.5 14 -38.5 q0 -26 -13.5 -40 q-13.5 -14 -39.5 -14 q-26 0 -40.5 14 q-14.5 14 -14.5 40 q0 25 14.5 38.5 q14.5 13.5 40.5 13.5 Z" /><glyph glyph-name="uni1E5E" unicode="&#x1e5e;" d="M699 12 q3 0 3 -6 q0 -6 -3 -6 l-161 0 q-23 0 -85.5 83.5 q-62.5 83.5 -152.5 233.5 q-16 -3 -33 -3 q-37 0 -52 1 l0 -234 q0 -31 5.5 -45 q5.5 -14 21 -19 q15.5 -5 49.5 -5 q2 0 2 -6 q0 -6 -2 -6 q-33 0 -51 1 l-74 1 l-72 -1 q-19 -1 -52 -1 q-3 0 -3 6 q0 6 3 6 q34 0 49.5 5 q15.5 5 21.5 19.5 q6 14.5 6 44.5 l0 463 q0 30 -5.5 44 q-5.5 14 -21.5 19.5 q-16 5.5 -49 5.5 q-2 0 -2 6 q0 6 2 6 l52 -1 q44 -2 71 -2 q30 0 63 3 q12 1 29 2 q17 1 37 1 q89 0 137 -33 q48 -33 48 -93 q0 -47 -28 -89 q-28 -42 -73 -68 q82 -126 137.5 -197.5 q55.5 -71.5 98.5 -103.5 q43 -32 84 -32 ZM215 343 q24 -4 58 -4 q60 0 84 27 q24 27 24 99 q0 81 -27 112.5 q-27 31.5 -76 31.5 q-36 0 -49.5 -14 q-13.5 -14 -13.5 -53 l0 -199 ZM469 -85 q4 0 6.5 -5 q2.5 -5 2.5 -12 q0 -7 -2.5 -12 q-2.5 -5 -6.5 -5 l-251 0 q-4 0 -6 5 q-2 5 -2 12 q0 6 2 11.5 q2 5.5 6 5.5 l251 0 Z" /><glyph glyph-name="S" unicode="s" d="M164 519 q0 -37 18.5 -65.5 q18.5 -28.5 46 -49.5 q27.5 -21 74.5 -50 q51 -32 80.5 -55 q29.5 -23 50 -56.5 q20.5 -33.5 20.5 -78.5 q0 -51 -26.5 -91 q-26.5 -40 -75 -62.5 q-48.5 -22.5 -110.5 -22.5 q-42 0 -86.5 11 q-44.5 11 -67.5 27 q-9 6 -10 19 l-6 152 l0 1 q0 4 5 4.5 q5 0.5 6 -3.5 q33 -83 75.5 -136 q42.5 -53 108.5 -53 q43 0 72 23.5 q29 23.5 29 78.5 q0 44 -19.5 77 q-19.5 33 -48 55 q-28.5 22 -77.5 54 q-48 31 -75 52.5 q-27 21.5 -46 53 q-19 31.5 -19 73.5 q0 52 29 88 q29 36 75.5 53.5 q46.5 17.5 97.5 17.5 q34 0 68 -6.5 q34 -6.5 57 -16.5 q9 -3 12 -7.5 q3 -4.5 3 -11.5 l3 -136 q0 -3 -5.5 -4.5 q-5.5 -1.5 -6.5 2.5 q-20 61 -53.5 110.5 q-33.5 49.5 -100.5 49.5 q-45 0 -71.5 -26 q-26.5 -26 -26.5 -71 Z" /><glyph glyph-name="Sacute" unicode="&#x15a;" d="M167 678 q-4 0 -5 4.5 q-1 4.5 2 6.5 q32 19 88 63 q46 35 50 38 q5 4 32 -4 q27 -8 47.5 -18 q20.5 -10 9.5 -12 q-62 -15 -113.5 -33.5 q-51.5 -18.5 -108.5 -43.5 l-2 -1 ZM164 519 q0 -37 18.5 -65.5 q18.5 -28.5 46 -49.5 q27.5 -21 74.5 -50 q51 -32 80.5 -55 q29.5 -23 50 -56.5 q20.5 -33.5 20.5 -78.5 q0 -51 -26.5 -91 q-26.5 -40 -75 -62.5 q-48.5 -22.5 -110.5 -22.5 q-42 0 -86.5 11 q-44.5 11 -67.5 27 q-9 6 -10 19 l-6 152 l0 1 q0 4 5 4.5 q5 0.5 6 -3.5 q33 -83 75.5 -136 q42.5 -53 108.5 -53 q43 0 72 23.5 q29 23.5 29 78.5 q0 44 -19.5 77 q-19.5 33 -48 55 q-28.5 22 -77.5 54 q-48 31 -75 52.5 q-27 21.5 -46 53 q-19 31.5 -19 73.5 q0 52 29 88 q29 36 75.5 53.5 q46.5 17.5 97.5 17.5 q34 0 68 -6.5 q34 -6.5 57 -16.5 q9 -3 12 -7.5 q3 -4.5 3 -11.5 l3 -136 q0 -3 -5.5 -4.5 q-5.5 -1.5 -6.5 2.5 q-20 61 -53.5 110.5 q-33.5 49.5 -100.5 49.5 q-45 0 -71.5 -26 q-26.5 -26 -26.5 -71 Z" /><glyph glyph-name="Scaron" unicode="&#x160;" d="M151 796 l0 1 q0 3 2.5 5.5 q2.5 2.5 3.5 0.5 l109 -45 l108 46 l1 0 q3 0 4.5 -2.5 q1.5 -2.5 -0.5 -4.5 l-102 -110 q-4 -4 -11 -4 q-8 0 -12 4 l-103 109 ZM164 519 q0 -37 18.5 -65.5 q18.5 -28.5 46 -49.5 q27.5 -21 74.5 -50 q51 -32 80.5 -55 q29.5 -23 50 -56.5 q20.5 -33.5 20.5 -78.5 q0 -51 -26.5 -91 q-26.5 -40 -75 -62.5 q-48.5 -22.5 -110.5 -22.5 q-42 0 -86.5 11 q-44.5 11 -67.5 27 q-9 6 -10 19 l-6 152 l0 1 q0 4 5 4.5 q5 0.5 6 -3.5 q33 -83 75.5 -136 q42.5 -53 108.5 -53 q43 0 72 23.5 q29 23.5 29 78.5 q0 44 -19.5 77 q-19.5 33 -48 55 q-28.5 22 -77.5 54 q-48 31 -75 52.5 q-27 21.5 -46 53 q-19 31.5 -19 73.5 q0 52 29 88 q29 36 75.5 53.5 q46.5 17.5 97.5 17.5 q34 0 68 -6.5 q34 -6.5 57 -16.5 q9 -3 12 -7.5 q3 -4.5 3 -11.5 l3 -136 q0 -3 -5.5 -4.5 q-5.5 -1.5 -6.5 2.5 q-20 61 -53.5 110.5 q-33.5 49.5 -100.5 49.5 q-45 0 -71.5 -26 q-26.5 -26 -26.5 -71 Z" /><glyph glyph-name="Scedilla" unicode="&#x15e;" d="M454 164 q0 -71 -50 -119 q-50 -48 -132 -56 q-5 -20 -5 -31 q0 -17 9.5 -28.5 q9.5 -11.5 31.5 -24.5 q26 -16 40.5 -33.5 q14.5 -17.5 14.5 -44.5 q0 -40 -29 -71 q-29 -31 -87 -31 q-71 0 -71 45 q0 14 10.5 25 q10.5 11 25.5 11 q17 0 24 -7.5 q7 -7.5 13 -21.5 q6 -15 12.5 -22 q6.5 -7 22.5 -7 q26 0 26 28 q0 26 -18.5 47 q-18.5 21 -65.5 47 q-5 2 -7.5 5 q-2.5 3 -2.5 7 q0 6 4 17 q16 39 34 89 l-12 0 q-42 0 -86.5 11 q-44.5 11 -67.5 27 q-9 6 -10 19 l-6 152 l0 1 q0 4 5 4.5 q5 0.5 6 -3.5 q33 -83 75.5 -136 q42.5 -53 108.5 -53 q43 0 72 23.5 q29 23.5 29 78.5 q0 44 -19.5 77 q-19.5 33 -48 55 q-28.5 22 -77.5 54 q-48 31 -75 52.5 q-27 21.5 -46 53 q-19 31.5 -19 73.5 q0 52 29 88 q29 36 75.5 53.5 q46.5 17.5 97.5 17.5 q34 0 68 -6.5 q34 -6.5 57 -16.5 q9 -3 12 -7.5 q3 -4.5 3 -11.5 l3 -136 q0 -3 -5.5 -4.5 q-5.5 -1.5 -6.5 2.5 q-20 61 -53.5 110.5 q-33.5 49.5 -100.5 49.5 q-45 0 -71.5 -26 q-26.5 -26 -26.5 -71 q0 -37 18.5 -65.5 q18.5 -28.5 46 -49.5 q27.5 -21 74.5 -50 q51 -32 80.5 -55 q29.5 -23 50 -56.5 q20.5 -33.5 20.5 -78.5 Z" /><glyph glyph-name="Scircumflex" unicode="&#x15c;" d="M255 809 q5 5 12 5 q6 0 11 -5 l102 -110 q1 0 1 -2 q0 -2 -2.5 -4 q-2.5 -2 -3.5 -1 l-108 45 l-109 -45 q-2 -1 -5 2.5 q-3 3.5 -1 4.5 l103 110 ZM164 519 q0 -37 18.5 -65.5 q18.5 -28.5 46 -49.5 q27.5 -21 74.5 -50 q51 -32 80.5 -55 q29.5 -23 50 -56.5 q20.5 -33.5 20.5 -78.5 q0 -51 -26.5 -91 q-26.5 -40 -75 -62.5 q-48.5 -22.5 -110.5 -22.5 q-42 0 -86.5 11 q-44.5 11 -67.5 27 q-9 6 -10 19 l-6 152 l0 1 q0 4 5 4.5 q5 0.5 6 -3.5 q33 -83 75.5 -136 q42.5 -53 108.5 -53 q43 0 72 23.5 q29 23.5 29 78.5 q0 44 -19.5 77 q-19.5 33 -48 55 q-28.5 22 -77.5 54 q-48 31 -75 52.5 q-27 21.5 -46 53 q-19 31.5 -19 73.5 q0 52 29 88 q29 36 75.5 53.5 q46.5 17.5 97.5 17.5 q34 0 68 -6.5 q34 -6.5 57 -16.5 q9 -3 12 -7.5 q3 -4.5 3 -11.5 l3 -136 q0 -3 -5.5 -4.5 q-5.5 -1.5 -6.5 2.5 q-20 61 -53.5 110.5 q-33.5 49.5 -100.5 49.5 q-45 0 -71.5 -26 q-26.5 -26 -26.5 -71 Z" /><glyph glyph-name="Scommaaccent" unicode="&#x218;" d="M303 354 q51 -32 80.5 -55 q29.5 -23 50 -56.5 q20.5 -33.5 20.5 -78.5 q0 -51 -26.5 -91 q-26.5 -40 -75 -62.5 q-48.5 -22.5 -110.5 -22.5 q-42 0 -86.5 11 q-44.5 11 -67.5 27 q-9 6 -10 19 l-6 152 l0 1 q0 4 5 4.5 q5 0.5 6 -3.5 q33 -83 75.5 -136 q42.5 -53 108.5 -53 q43 0 72 23.5 q29 23.5 29 78.5 q0 44 -19.5 77 q-19.5 33 -48 55 q-28.5 22 -77.5 54 q-48 31 -75 52.5 q-27 21.5 -46 53 q-19 31.5 -19 73.5 q0 52 29 88 q29 36 75.5 53.5 q46.5 17.5 97.5 17.5 q34 0 68 -6.5 q34 -6.5 57 -16.5 q9 -3 12 -7.5 q3 -4.5 3 -11.5 l3 -136 q0 -3 -5.5 -4.5 q-5.5 -1.5 -6.5 2.5 q-20 61 -53.5 110.5 q-33.5 49.5 -100.5 49.5 q-45 0 -71.5 -26 q-26.5 -26 -26.5 -71 q0 -37 18.5 -65.5 q18.5 -28.5 46 -49.5 q27.5 -21 74.5 -50 ZM266 -74 q32 0 49 -21 q17 -21 17 -58 q0 -37 -18.5 -66 q-18.5 -29 -52.5 -56 l-2 -1 q-4 0 -6 4 q-2 4 1 6 q46 37 46 75 q0 21 -8 31 q-11 -17 -38 -17 q-20 0 -32.5 14 q-12.5 14 -12.5 37 q0 25 16.5 38.5 q16.5 13.5 40.5 13.5 Z" /><glyph glyph-name="uni1E60" unicode="&#x1e60;" d="M266 713 q-26 0 -40.5 14.5 q-14.5 14.5 -14.5 40.5 q0 24 14.5 38.5 q14.5 14.5 40.5 14.5 q25 0 39 -14.5 q14 -14.5 14 -38.5 q0 -26 -14 -40.5 q-14 -14.5 -39 -14.5 ZM164 519 q0 -37 18.5 -65.5 q18.5 -28.5 46 -49.5 q27.5 -21 74.5 -50 q51 -32 80.5 -55 q29.5 -23 50 -56.5 q20.5 -33.5 20.5 -78.5 q0 -51 -26.5 -91 q-26.5 -40 -75 -62.5 q-48.5 -22.5 -110.5 -22.5 q-42 0 -86.5 11 q-44.5 11 -67.5 27 q-9 6 -10 19 l-6 152 l0 1 q0 4 5 4.5 q5 0.5 6 -3.5 q33 -83 75.5 -136 q42.5 -53 108.5 -53 q43 0 72 23.5 q29 23.5 29 78.5 q0 44 -19.5 77 q-19.5 33 -48 55 q-28.5 22 -77.5 54 q-48 31 -75 52.5 q-27 21.5 -46 53 q-19 31.5 -19 73.5 q0 52 29 88 q29 36 75.5 53.5 q46.5 17.5 97.5 17.5 q34 0 68 -6.5 q34 -6.5 57 -16.5 q9 -3 12 -7.5 q3 -4.5 3 -11.5 l3 -136 q0 -3 -5.5 -4.5 q-5.5 -1.5 -6.5 2.5 q-20 61 -53.5 110.5 q-33.5 49.5 -100.5 49.5 q-45 0 -71.5 -26 q-26.5 -26 -26.5 -71 Z" /><glyph glyph-name="uni1E62" unicode="&#x1e62;" d="M164 519 q0 -37 18.5 -65.5 q18.5 -28.5 46 -49.5 q27.5 -21 74.5 -50 q51 -32 80.5 -55 q29.5 -23 50 -56.5 q20.5 -33.5 20.5 -78.5 q0 -51 -26.5 -91 q-26.5 -40 -75 -62.5 q-48.5 -22.5 -110.5 -22.5 q-42 0 -86.5 11 q-44.5 11 -67.5 27 q-9 6 -10 19 l-6 152 l0 1 q0 4 5 4.5 q5 0.5 6 -3.5 q33 -83 75.5 -136 q42.5 -53 108.5 -53 q43 0 72 23.5 q29 23.5 29 78.5 q0 44 -19.5 77 q-19.5 33 -48 55 q-28.5 22 -77.5 54 q-48 31 -75 52.5 q-27 21.5 -46 53 q-19 31.5 -19 73.5 q0 52 29 88 q29 36 75.5 53.5 q46.5 17.5 97.5 17.5 q34 0 68 -6.5 q34 -6.5 57 -16.5 q9 -3 12 -7.5 q3 -4.5 3 -11.5 l3 -136 q0 -3 -5.5 -4.5 q-5.5 -1.5 -6.5 2.5 q-20 61 -53.5 110.5 q-33.5 49.5 -100.5 49.5 q-45 0 -71.5 -26 q-26.5 -26 -26.5 -71 ZM273 -201 q-26 0 -40.5 14 q-14.5 14 -14.5 40 q0 25 14.5 38.5 q14.5 13.5 40.5 13.5 q25 0 39 -13.5 q14 -13.5 14 -38.5 q0 -26 -13.5 -40 q-13.5 -14 -39.5 -14 Z" /><glyph glyph-name="uni1E9E" unicode="&#x1e9e;" d="M496 12 q35 0 57 22.5 q22 22.5 22 65.5 q0 61 -40 112 q-40 51 -133 122 q-9 5 -4 15 l105 170 q-57 35 -115.5 54.5 q-58.5 19.5 -104.5 19.5 q-37 0 -54.5 -14 q-17.5 -14 -24.5 -55 q-7 -41 -7 -129 l0 -314 q0 -31 4.5 -45 q4.5 -14 19 -19 q14.5 -5 45.5 -5 q3 0 3 -6 q0 -6 -3 -6 l-118 1 l-122 -1 q-3 0 -3 6 q0 6 3 6 q32 0 48 5.5 q16 5.5 22 19.5 q6 14 6 44 l0 284 q0 69 28 131 q28 62 87 101 q59 39 147 39 q59 0 163 -31 q9 -3 15 -3 q10 0 19 6.5 q9 6.5 20 20.5 l4 2 q3 0 5.5 -2 q2.5 -2 0.5 -4 l-134 -219 q98 -72 146 -130.5 q48 -58.5 48 -113.5 q0 -39 -21 -79 q-21 -40 -64.5 -67.5 q-43.5 -27.5 -105.5 -27.5 q-38 0 -64 5.5 q-26 5.5 -53 20.5 q-6 2 -8 5.5 q-2 3.5 -2 12.5 l-6 130 q-1 4 4.5 5 q5.5 1 6.5 -3 q10 -36 35 -71.5 q25 -35.5 57.5 -58 q32.5 -22.5 65.5 -22.5 Z" /><glyph glyph-name="uni018F" unicode="&#x18f;" d="M275 636 q170 0 241.5 -91 q71.5 -91 71.5 -221 q0 -104 -43 -180 q-43 -76 -116.5 -116 q-73.5 -40 -162.5 -40 q-77 0 -128.5 28 q-51.5 28 -75.5 68.5 q-24 40.5 -24 78.5 q0 7 2.5 9.5 q2.5 2.5 8.5 2.5 l424 2 q10 47 10 111 q0 145 -54.5 236.5 q-54.5 91.5 -158.5 91.5 q-67 0 -123.5 -39.5 q-56.5 -39.5 -80.5 -112.5 q0 -2 -4 -2 q-3 0 -5.5 1.5 q-2.5 1.5 -1.5 2.5 l45 179 q1 4 6.5 3 q5.5 -1 4.5 -4 q-1 -4 -1 -11 q0 -19 16 -19 q4 0 12 2 q68 20 137 20 ZM301 7 q64 0 106.5 39 q42.5 39 60.5 111 l-326 -4 q7 -66 51 -106 q44 -40 108 -40 Z" /><glyph glyph-name="T" unicode="t" d="M211 604 q-61 0 -100.5 -37.5 q-39.5 -37.5 -60.5 -113.5 q0 -2 -5.5 -2 q-5.5 0 -5.5 3 q4 39 9 100.5 q5 61.5 5 92.5 q0 5 5.5 5 q5.5 0 5.5 -5 q0 -22 56 -22 q86 -3 201 -3 q59 0 125 2 l68 1 q38 0 55.5 5 q17.5 5 22.5 20 q1 4 6 4 q5 0 5 -4 q-3 -31 -6 -94 q-3 -63 -3 -102 q0 -3 -5.5 -3 q-5.5 0 -6.5 3 q-10 77 -47 113.5 q-37 36.5 -100 36.5 q-28 0 -41.5 -5 q-13.5 -5 -18 -17.5 q-4.5 -12.5 -4.5 -39.5 l0 -461 q0 -31 6 -45 q6 -14 24 -19 q18 -5 57 -5 q3 0 3 -6 q0 -6 -3 -6 q-35 0 -55 1 l-82 1 l-78 -1 q-21 -1 -58 -1 q-2 0 -2 6 q0 6 2 6 q39 0 57.5 5 q18.5 5 25 19.5 q6.5 14.5 6.5 44.5 l0 463 q0 26 -5 38 q-5 12 -18 17 q-13 5 -40 5 Z" /><glyph glyph-name="Tbar" unicode="&#x166;" d="M592 650 q1 4 6 4 q5 0 5 -4 q-3 -31 -6 -94 q-3 -63 -3 -102 q0 -3 -5.5 -3 q-5.5 0 -6.5 3 q-10 77 -47 113.5 q-37 36.5 -100 36.5 q-28 0 -41.5 -5 q-13.5 -5 -18 -17.5 q-4.5 -12.5 -4.5 -39.5 l0 -206 l93 0 q5 0 5 -13 q0 -5 -1.5 -9 q-1.5 -4 -3.5 -4 l-93 0 l0 -229 q0 -31 6 -45 q6 -14 24 -19 q18 -5 57 -5 q3 0 3 -6 q0 -6 -3 -6 q-35 0 -55 1 l-82 1 l-78 -1 q-21 -1 -58 -1 q-2 0 -2 6 q0 6 2 6 q39 0 57.5 5 q18.5 5 25 19.5 q6.5 14.5 6.5 44.5 l0 229 l-94 0 q-4 0 -4 13 q0 13 4 13 l94 0 l0 208 q0 26 -5 38 q-5 12 -18 17 q-13 5 -40 5 q-61 0 -100.5 -37.5 q-39.5 -37.5 -60.5 -113.5 q0 -2 -5.5 -2 q-5.5 0 -5.5 3 q4 39 9 100.5 q5 61.5 5 92.5 q0 5 5.5 5 q5.5 0 5.5 -5 q0 -22 56 -22 q86 -3 201 -3 q59 0 125 2 l68 1 q38 0 55.5 5 q17.5 5 22.5 20 Z" /><glyph glyph-name="Tcaron" unicode="&#x164;" d="M205 796 l0 1 q0 3 2.5 5.5 q2.5 2.5 3.5 0.5 l109 -45 l108 46 l1 0 q3 0 4.5 -2.5 q1.5 -2.5 -0.5 -4.5 l-102 -110 q-4 -4 -11 -4 q-8 0 -12 4 l-103 109 ZM211 604 q-61 0 -100.5 -37.5 q-39.5 -37.5 -60.5 -113.5 q0 -2 -5.5 -2 q-5.5 0 -5.5 3 q4 39 9 100.5 q5 61.5 5 92.5 q0 5 5.5 5 q5.5 0 5.5 -5 q0 -22 56 -22 q86 -3 201 -3 q59 0 125 2 l68 1 q38 0 55.5 5 q17.5 5 22.5 20 q1 4 6 4 q5 0 5 -4 q-3 -31 -6 -94 q-3 -63 -3 -102 q0 -3 -5.5 -3 q-5.5 0 -6.5 3 q-10 77 -47 113.5 q-37 36.5 -100 36.5 q-28 0 -41.5 -5 q-13.5 -5 -18 -17.5 q-4.5 -12.5 -4.5 -39.5 l0 -461 q0 -31 6 -45 q6 -14 24 -19 q18 -5 57 -5 q3 0 3 -6 q0 -6 -3 -6 q-35 0 -55 1 l-82 1 l-78 -1 q-21 -1 -58 -1 q-2 0 -2 6 q0 6 2 6 q39 0 57.5 5 q18.5 5 25 19.5 q6.5 14.5 6.5 44.5 l0 463 q0 26 -5 38 q-5 12 -18 17 q-13 5 -40 5 Z" /><glyph glyph-name="uni0162" unicode="&#x162;" d="M592 650 q1 4 6 4 q5 0 5 -4 q-3 -31 -6 -94 q-3 -63 -3 -102 q0 -3 -5.5 -3 q-5.5 0 -6.5 3 q-10 77 -47 113.5 q-37 36.5 -100 36.5 q-28 0 -41.5 -5 q-13.5 -5 -18 -17.5 q-4.5 -12.5 -4.5 -39.5 l0 -461 q0 -31 6 -45 q6 -14 24 -19 q18 -5 57 -5 q3 0 3 -6 q0 -6 -3 -6 q-33 0 -52 1 l-77 1 q-8 -32 -8 -46 q0 -18 8.5 -28.5 q8.5 -10.5 29.5 -22.5 q26 -16 40.5 -33.5 q14.5 -17.5 14.5 -44.5 q0 -40 -29 -71 q-29 -31 -87 -31 q-71 0 -71 45 q0 14 10.5 25 q10.5 11 25.5 11 q17 0 24 -7.5 q7 -7.5 13 -21.5 q6 -15 12.5 -22 q6.5 -7 22.5 -7 q26 0 26 28 q0 26 -18.5 47 q-18.5 21 -65.5 47 q-5 2 -7.5 5 q-2.5 3 -2.5 7 q0 6 4 17 q17 39 27 67 q10 28 13 36 l-72 -1 q-20 -1 -54 -1 q-2 0 -2 6 q0 6 2 6 q39 0 57.5 5 q18.5 5 25 19.5 q6.5 14.5 6.5 44.5 l0 463 q0 26 -5 38 q-5 12 -18 17 q-13 5 -40 5 q-61 0 -100.5 -37.5 q-39.5 -37.5 -60.5 -113.5 q0 -2 -5.5 -2 q-5.5 0 -5.5 3 q4 39 9 100.5 q5 61.5 5 92.5 q0 5 5.5 5 q5.5 0 5.5 -5 q0 -22 56 -22 q86 -3 201 -3 q59 0 125 2 l68 1 q38 0 55.5 5 q17.5 5 22.5 20 Z" /><glyph glyph-name="uni021A" unicode="&#x21a;" d="M592 650 q1 4 6 4 q5 0 5 -4 q-3 -31 -6 -94 q-3 -63 -3 -102 q0 -3 -5.5 -3 q-5.5 0 -6.5 3 q-10 77 -47 113.5 q-37 36.5 -100 36.5 q-28 0 -41.5 -5 q-13.5 -5 -18 -17.5 q-4.5 -12.5 -4.5 -39.5 l0 -461 q0 -31 6 -45 q6 -14 24 -19 q18 -5 57 -5 q3 0 3 -6 q0 -6 -3 -6 q-35 0 -55 1 l-82 1 l-78 -1 q-21 -1 -58 -1 q-2 0 -2 6 q0 6 2 6 q39 0 57.5 5 q18.5 5 25 19.5 q6.5 14.5 6.5 44.5 l0 463 q0 26 -5 38 q-5 12 -18 17 q-13 5 -40 5 q-61 0 -100.5 -37.5 q-39.5 -37.5 -60.5 -113.5 q0 -2 -5.5 -2 q-5.5 0 -5.5 3 q4 39 9 100.5 q5 61.5 5 92.5 q0 5 5.5 5 q5.5 0 5.5 -5 q0 -22 56 -22 q86 -3 201 -3 q59 0 125 2 l68 1 q38 0 55.5 5 q17.5 5 22.5 20 ZM320 -74 q32 0 49 -21 q17 -21 17 -58 q0 -37 -18.5 -66 q-18.5 -29 -52.5 -56 l-2 -1 q-4 0 -6 4 q-2 4 1 6 q46 37 46 75 q0 21 -8 31 q-11 -17 -38 -17 q-20 0 -32.5 14 q-12.5 14 -12.5 37 q0 25 16.5 38.5 q16.5 13.5 40.5 13.5 Z" /><glyph glyph-name="uni1E6C" unicode="&#x1e6c;" d="M211 604 q-61 0 -100.5 -37.5 q-39.5 -37.5 -60.5 -113.5 q0 -2 -5.5 -2 q-5.5 0 -5.5 3 q4 39 9 100.5 q5 61.5 5 92.5 q0 5 5.5 5 q5.5 0 5.5 -5 q0 -22 56 -22 q86 -3 201 -3 q59 0 125 2 l68 1 q38 0 55.5 5 q17.5 5 22.5 20 q1 4 6 4 q5 0 5 -4 q-3 -31 -6 -94 q-3 -63 -3 -102 q0 -3 -5.5 -3 q-5.5 0 -6.5 3 q-10 77 -47 113.5 q-37 36.5 -100 36.5 q-28 0 -41.5 -5 q-13.5 -5 -18 -17.5 q-4.5 -12.5 -4.5 -39.5 l0 -461 q0 -31 6 -45 q6 -14 24 -19 q18 -5 57 -5 q3 0 3 -6 q0 -6 -3 -6 q-35 0 -55 1 l-82 1 l-78 -1 q-21 -1 -58 -1 q-2 0 -2 6 q0 6 2 6 q39 0 57.5 5 q18.5 5 25 19.5 q6.5 14.5 6.5 44.5 l0 463 q0 26 -5 38 q-5 12 -18 17 q-13 5 -40 5 ZM327 -201 q-26 0 -40.5 14 q-14.5 14 -14.5 40 q0 25 14.5 38.5 q14.5 13.5 40.5 13.5 q25 0 39 -13.5 q14 -13.5 14 -38.5 q0 -26 -13.5 -40 q-13.5 -14 -39.5 -14 Z" /><glyph glyph-name="uni1E6E" unicode="&#x1e6e;" d="M211 604 q-61 0 -100.5 -37.5 q-39.5 -37.5 -60.5 -113.5 q0 -2 -5.5 -2 q-5.5 0 -5.5 3 q4 39 9 100.5 q5 61.5 5 92.5 q0 5 5.5 5 q5.5 0 5.5 -5 q0 -22 56 -22 q86 -3 201 -3 q59 0 125 2 l68 1 q38 0 55.5 5 q17.5 5 22.5 20 q1 4 6 4 q5 0 5 -4 q-3 -31 -6 -94 q-3 -63 -3 -102 q0 -3 -5.5 -3 q-5.5 0 -6.5 3 q-10 77 -47 113.5 q-37 36.5 -100 36.5 q-28 0 -41.5 -5 q-13.5 -5 -18 -17.5 q-4.5 -12.5 -4.5 -39.5 l0 -461 q0 -31 6 -45 q6 -14 24 -19 q18 -5 57 -5 q3 0 3 -6 q0 -6 -3 -6 q-35 0 -55 1 l-82 1 l-78 -1 q-21 -1 -58 -1 q-2 0 -2 6 q0 6 2 6 q39 0 57.5 5 q18.5 5 25 19.5 q6.5 14.5 6.5 44.5 l0 463 q0 26 -5 38 q-5 12 -18 17 q-13 5 -40 5 ZM200 -119 q-4 0 -6 5 q-2 5 -2 12 q0 6 2 11.5 q2 5.5 6 5.5 l251 0 q4 0 6.5 -5 q2.5 -5 2.5 -12 q0 -7 -2.5 -12 q-2.5 -5 -6.5 -5 l-251 0 Z" /><glyph glyph-name="U" unicode="u" d="M571 503 q0 52 -23.5 81 q-23.5 29 -67.5 29 q-2 0 -2 6 q0 6 2 6 l46 -1 q38 -2 60 -2 q18 0 54 2 l44 1 q2 0 2 -6 q0 -6 -2 -6 q-39 0 -60.5 -29 q-21.5 -29 -21.5 -81 l0 -280 q0 -72 -30.5 -125.5 q-30.5 -53.5 -86 -82.5 q-55.5 -29 -128.5 -29 q-73 0 -130 28.5 q-57 28.5 -88.5 82 q-31.5 53.5 -31.5 125.5 l0 322 q0 30 -6 44 q-6 14 -21.5 19.5 q-15.5 5.5 -48.5 5.5 q-3 0 -3 6 q0 6 3 6 l52 -1 q44 -2 71 -2 q30 0 74 2 l50 1 q3 0 3 -6 q0 -6 -3 -6 q-33 0 -48.5 -6 q-15.5 -6 -21.5 -20.5 q-6 -14.5 -6 -44.5 l0 -285 q0 -119 49.5 -177.5 q49.5 -58.5 138.5 -58.5 q85 0 133 52.5 q48 52.5 48 148.5 l0 281 Z" /><glyph glyph-name="Uacute" unicode="ú" d="M274 678 q-4 0 -5 4.5 q-1 4.5 2 6.5 q32 19 88 63 q46 35 50 38 q5 4 32 -4 q27 -8 47.5 -18 q20.5 -10 9.5 -12 q-62 -15 -113.5 -33.5 q-51.5 -18.5 -108.5 -43.5 l-2 -1 ZM571 503 q0 52 -23.5 81 q-23.5 29 -67.5 29 q-2 0 -2 6 q0 6 2 6 l46 -1 q38 -2 60 -2 q18 0 54 2 l44 1 q2 0 2 -6 q0 -6 -2 -6 q-39 0 -60.5 -29 q-21.5 -29 -21.5 -81 l0 -280 q0 -72 -30.5 -125.5 q-30.5 -53.5 -86 -82.5 q-55.5 -29 -128.5 -29 q-73 0 -130 28.5 q-57 28.5 -88.5 82 q-31.5 53.5 -31.5 125.5 l0 322 q0 30 -6 44 q-6 14 -21.5 19.5 q-15.5 5.5 -48.5 5.5 q-3 0 -3 6 q0 6 3 6 l52 -1 q44 -2 71 -2 q30 0 74 2 l50 1 q3 0 3 -6 q0 -6 -3 -6 q-33 0 -48.5 -6 q-15.5 -6 -21.5 -20.5 q-6 -14.5 -6 -44.5 l0 -285 q0 -119 49.5 -177.5 q49.5 -58.5 138.5 -58.5 q85 0 133 52.5 q48 52.5 48 148.5 l0 281 Z" /><glyph glyph-name="Ubreve" unicode="&#x16c;" d="M373 690 q-48 0 -74.5 31 q-26.5 31 -28.5 89 q0 4 5 4 q5 0 6 -2 q2 -21 29 -38.5 q27 -17.5 63 -17.5 q35 0 62 17.5 q27 17.5 29 38.5 q0 3 5.5 2.5 q5.5 -0.5 5.5 -4.5 q-2 -58 -28 -89 q-26 -31 -74 -31 ZM571 503 q0 52 -23.5 81 q-23.5 29 -67.5 29 q-2 0 -2 6 q0 6 2 6 l46 -1 q38 -2 60 -2 q18 0 54 2 l44 1 q2 0 2 -6 q0 -6 -2 -6 q-39 0 -60.5 -29 q-21.5 -29 -21.5 -81 l0 -280 q0 -72 -30.5 -125.5 q-30.5 -53.5 -86 -82.5 q-55.5 -29 -128.5 -29 q-73 0 -130 28.5 q-57 28.5 -88.5 82 q-31.5 53.5 -31.5 125.5 l0 322 q0 30 -6 44 q-6 14 -21.5 19.5 q-15.5 5.5 -48.5 5.5 q-3 0 -3 6 q0 6 3 6 l52 -1 q44 -2 71 -2 q30 0 74 2 l50 1 q3 0 3 -6 q0 -6 -3 -6 q-33 0 -48.5 -6 q-15.5 -6 -21.5 -20.5 q-6 -14.5 -6 -44.5 l0 -285 q0 -119 49.5 -177.5 q49.5 -58.5 138.5 -58.5 q85 0 133 52.5 q48 52.5 48 148.5 l0 281 Z" /><glyph glyph-name="uni01D3" unicode="&#x1d3;" d="M258 796 l0 1 q0 3 2.5 5.5 q2.5 2.5 3.5 0.5 l109 -45 l108 46 l1 0 q3 0 4.5 -2.5 q1.5 -2.5 -0.5 -4.5 l-102 -110 q-4 -4 -11 -4 q-8 0 -12 4 l-103 109 ZM571 503 q0 52 -23.5 81 q-23.5 29 -67.5 29 q-2 0 -2 6 q0 6 2 6 l46 -1 q38 -2 60 -2 q18 0 54 2 l44 1 q2 0 2 -6 q0 -6 -2 -6 q-39 0 -60.5 -29 q-21.5 -29 -21.5 -81 l0 -280 q0 -72 -30.5 -125.5 q-30.5 -53.5 -86 -82.5 q-55.5 -29 -128.5 -29 q-73 0 -130 28.5 q-57 28.5 -88.5 82 q-31.5 53.5 -31.5 125.5 l0 322 q0 30 -6 44 q-6 14 -21.5 19.5 q-15.5 5.5 -48.5 5.5 q-3 0 -3 6 q0 6 3 6 l52 -1 q44 -2 71 -2 q30 0 74 2 l50 1 q3 0 3 -6 q0 -6 -3 -6 q-33 0 -48.5 -6 q-15.5 -6 -21.5 -20.5 q-6 -14.5 -6 -44.5 l0 -285 q0 -119 49.5 -177.5 q49.5 -58.5 138.5 -58.5 q85 0 133 52.5 q48 52.5 48 148.5 l0 281 Z" /><glyph glyph-name="Ucircumflex" unicode="û" d="M362 809 q5 5 12 5 q6 0 11 -5 l102 -110 q1 0 1 -2 q0 -2 -2.5 -4 q-2.5 -2 -3.5 -1 l-108 45 l-109 -45 q-2 -1 -5 2.5 q-3 3.5 -1 4.5 l103 110 ZM571 503 q0 52 -23.5 81 q-23.5 29 -67.5 29 q-2 0 -2 6 q0 6 2 6 l46 -1 q38 -2 60 -2 q18 0 54 2 l44 1 q2 0 2 -6 q0 -6 -2 -6 q-39 0 -60.5 -29 q-21.5 -29 -21.5 -81 l0 -280 q0 -72 -30.5 -125.5 q-30.5 -53.5 -86 -82.5 q-55.5 -29 -128.5 -29 q-73 0 -130 28.5 q-57 28.5 -88.5 82 q-31.5 53.5 -31.5 125.5 l0 322 q0 30 -6 44 q-6 14 -21.5 19.5 q-15.5 5.5 -48.5 5.5 q-3 0 -3 6 q0 6 3 6 l52 -1 q44 -2 71 -2 q30 0 74 2 l50 1 q3 0 3 -6 q0 -6 -3 -6 q-33 0 -48.5 -6 q-15.5 -6 -21.5 -20.5 q-6 -14.5 -6 -44.5 l0 -285 q0 -119 49.5 -177.5 q49.5 -58.5 138.5 -58.5 q85 0 133 52.5 q48 52.5 48 148.5 l0 281 Z" /><glyph glyph-name="Udieresis" unicode="ü" d="M287 708 q-24 0 -37.5 13 q-13.5 13 -13.5 37 q0 23 13.5 35.5 q13.5 12.5 37.5 12.5 q23 0 35.5 -12.5 q12.5 -12.5 12.5 -35.5 q0 -24 -12.5 -37 q-12.5 -13 -35.5 -13 ZM461 708 q-23 0 -36.5 13 q-13.5 13 -13.5 37 q0 22 13.5 35 q13.5 13 36.5 13 q23 0 36 -12.5 q13 -12.5 13 -35.5 q0 -24 -13 -37 q-13 -13 -36 -13 ZM571 503 q0 52 -23.5 81 q-23.5 29 -67.5 29 q-2 0 -2 6 q0 6 2 6 l46 -1 q38 -2 60 -2 q18 0 54 2 l44 1 q2 0 2 -6 q0 -6 -2 -6 q-39 0 -60.5 -29 q-21.5 -29 -21.5 -81 l0 -280 q0 -72 -30.5 -125.5 q-30.5 -53.5 -86 -82.5 q-55.5 -29 -128.5 -29 q-73 0 -130 28.5 q-57 28.5 -88.5 82 q-31.5 53.5 -31.5 125.5 l0 322 q0 30 -6 44 q-6 14 -21.5 19.5 q-15.5 5.5 -48.5 5.5 q-3 0 -3 6 q0 6 3 6 l52 -1 q44 -2 71 -2 q30 0 74 2 l50 1 q3 0 3 -6 q0 -6 -3 -6 q-33 0 -48.5 -6 q-15.5 -6 -21.5 -20.5 q-6 -14.5 -6 -44.5 l0 -285 q0 -119 49.5 -177.5 q49.5 -58.5 138.5 -58.5 q85 0 133 52.5 q48 52.5 48 148.5 l0 281 Z" /><glyph glyph-name="uni01D7" unicode="&#x1d7;" d="M245 820 q-4 0 -5.5 4.5 q-1.5 4.5 1.5 6.5 q43 21 126 70 l51 30 q5 4 32 -4 q27 -8 47.5 -18.5 q20.5 -10.5 9.5 -12.5 q-143 -30 -261 -76 l-1 0 ZM287 696 q-24 0 -37.5 13.5 q-13.5 13.5 -13.5 37.5 q0 22 13.5 34.5 q13.5 12.5 37.5 12.5 q22 0 35 -12.5 q13 -12.5 13 -34.5 q0 -24 -12.5 -37.5 q-12.5 -13.5 -35.5 -13.5 ZM461 696 q-23 0 -36.5 13.5 q-13.5 13.5 -13.5 37.5 q0 22 13.5 34.5 q13.5 12.5 36.5 12.5 q23 0 36 -12.5 q13 -12.5 13 -34.5 q0 -24 -13 -37.5 q-13 -13.5 -36 -13.5 ZM571 503 q0 52 -23.5 81 q-23.5 29 -67.5 29 q-2 0 -2 6 q0 6 2 6 l46 -1 q38 -2 60 -2 q18 0 54 2 l44 1 q2 0 2 -6 q0 -6 -2 -6 q-39 0 -60.5 -29 q-21.5 -29 -21.5 -81 l0 -280 q0 -72 -30.5 -125.5 q-30.5 -53.5 -86 -82.5 q-55.5 -29 -128.5 -29 q-73 0 -130 28.5 q-57 28.5 -88.5 82 q-31.5 53.5 -31.5 125.5 l0 322 q0 30 -6 44 q-6 14 -21.5 19.5 q-15.5 5.5 -48.5 5.5 q-3 0 -3 6 q0 6 3 6 l52 -1 q44 -2 71 -2 q30 0 74 2 l50 1 q3 0 3 -6 q0 -6 -3 -6 q-33 0 -48.5 -6 q-15.5 -6 -21.5 -20.5 q-6 -14.5 -6 -44.5 l0 -285 q0 -119 49.5 -177.5 q49.5 -58.5 138.5 -58.5 q85 0 133 52.5 q48 52.5 48 148.5 l0 281 Z" /><glyph glyph-name="uni01D9" unicode="&#x1d9;" d="M251 923 q-1 0 -1 0.5 q0 0.5 0 0.5 q0 2 2.5 4.5 q2.5 2.5 4.5 1.5 l120 -53 l118 54 l1 0 q3 0 4.5 -2 q1.5 -2 -0.5 -5 l-113 -110 q-4 -4 -11 -4 q-7 0 -11 4 l-114 109 ZM287 696 q-24 0 -37.5 13.5 q-13.5 13.5 -13.5 37.5 q0 22 13.5 34.5 q13.5 12.5 37.5 12.5 q22 0 35 -12.5 q13 -12.5 13 -34.5 q0 -24 -12.5 -37.5 q-12.5 -13.5 -35.5 -13.5 ZM461 696 q-23 0 -36.5 13.5 q-13.5 13.5 -13.5 37.5 q0 22 13.5 34.5 q13.5 12.5 36.5 12.5 q23 0 36 -12.5 q13 -12.5 13 -34.5 q0 -24 -13 -37.5 q-13 -13.5 -36 -13.5 ZM571 503 q0 52 -23.5 81 q-23.5 29 -67.5 29 q-2 0 -2 6 q0 6 2 6 l46 -1 q38 -2 60 -2 q18 0 54 2 l44 1 q2 0 2 -6 q0 -6 -2 -6 q-39 0 -60.5 -29 q-21.5 -29 -21.5 -81 l0 -280 q0 -72 -30.5 -125.5 q-30.5 -53.5 -86 -82.5 q-55.5 -29 -128.5 -29 q-73 0 -130 28.5 q-57 28.5 -88.5 82 q-31.5 53.5 -31.5 125.5 l0 322 q0 30 -6 44 q-6 14 -21.5 19.5 q-15.5 5.5 -48.5 5.5 q-3 0 -3 6 q0 6 3 6 l52 -1 q44 -2 71 -2 q30 0 74 2 l50 1 q3 0 3 -6 q0 -6 -3 -6 q-33 0 -48.5 -6 q-15.5 -6 -21.5 -20.5 q-6 -14.5 -6 -44.5 l0 -285 q0 -119 49.5 -177.5 q49.5 -58.5 138.5 -58.5 q85 0 133 52.5 q48 52.5 48 148.5 l0 281 Z" /><glyph glyph-name="uni01DB" unicode="&#x1db;" d="M514 820 q-117 46 -261 76 q-10 2 10.5 12.5 q20.5 10.5 47.5 18.5 q27 8 32 4 l53 -31 q71 -43 123 -69 q2 -1 2 -4 q0 -3 -2 -5.5 q-2 -2.5 -5 -1.5 ZM300 696 q-23 0 -36 13.5 q-13 13.5 -13 37.5 q0 22 13 34.5 q13 12.5 36 12.5 q23 0 36 -12.5 q13 -12.5 13 -34.5 q0 -24 -13 -37.5 q-13 -13.5 -36 -13.5 ZM474 696 q-23 0 -36 13.5 q-13 13.5 -13 37.5 q0 22 13 34.5 q13 12.5 36 12.5 q24 0 37.5 -12.5 q13.5 -12.5 13.5 -34.5 q0 -24 -13.5 -37.5 q-13.5 -13.5 -37.5 -13.5 ZM571 503 q0 52 -23.5 81 q-23.5 29 -67.5 29 q-2 0 -2 6 q0 6 2 6 l46 -1 q38 -2 60 -2 q18 0 54 2 l44 1 q2 0 2 -6 q0 -6 -2 -6 q-39 0 -60.5 -29 q-21.5 -29 -21.5 -81 l0 -280 q0 -72 -30.5 -125.5 q-30.5 -53.5 -86 -82.5 q-55.5 -29 -128.5 -29 q-73 0 -130 28.5 q-57 28.5 -88.5 82 q-31.5 53.5 -31.5 125.5 l0 322 q0 30 -6 44 q-6 14 -21.5 19.5 q-15.5 5.5 -48.5 5.5 q-3 0 -3 6 q0 6 3 6 l52 -1 q44 -2 71 -2 q30 0 74 2 l50 1 q3 0 3 -6 q0 -6 -3 -6 q-33 0 -48.5 -6 q-15.5 -6 -21.5 -20.5 q-6 -14.5 -6 -44.5 l0 -285 q0 -119 49.5 -177.5 q49.5 -58.5 138.5 -58.5 q85 0 133 52.5 q48 52.5 48 148.5 l0 281 Z" /><glyph glyph-name="uni01D5" unicode="&#x1d5;" d="M249 841 q-4 0 -6 5.5 q-2 5.5 -2 12.5 q0 6 2 11.5 q2 5.5 6 5.5 l245 0 q4 0 6.5 -5 q2.5 -5 2.5 -12 q0 -7 -2.5 -12.5 q-2.5 -5.5 -6.5 -5.5 l-245 0 ZM287 696 q-24 0 -37.5 13.5 q-13.5 13.5 -13.5 37.5 q0 22 13.5 34.5 q13.5 12.5 37.5 12.5 q22 0 35 -12.5 q13 -12.5 13 -34.5 q0 -24 -12.5 -37.5 q-12.5 -13.5 -35.5 -13.5 ZM461 696 q-23 0 -36.5 13.5 q-13.5 13.5 -13.5 37.5 q0 22 13.5 34.5 q13.5 12.5 36.5 12.5 q23 0 36 -12.5 q13 -12.5 13 -34.5 q0 -24 -13 -37.5 q-13 -13.5 -36 -13.5 ZM571 503 q0 52 -23.5 81 q-23.5 29 -67.5 29 q-2 0 -2 6 q0 6 2 6 l46 -1 q38 -2 60 -2 q18 0 54 2 l44 1 q2 0 2 -6 q0 -6 -2 -6 q-39 0 -60.5 -29 q-21.5 -29 -21.5 -81 l0 -280 q0 -72 -30.5 -125.5 q-30.5 -53.5 -86 -82.5 q-55.5 -29 -128.5 -29 q-73 0 -130 28.5 q-57 28.5 -88.5 82 q-31.5 53.5 -31.5 125.5 l0 322 q0 30 -6 44 q-6 14 -21.5 19.5 q-15.5 5.5 -48.5 5.5 q-3 0 -3 6 q0 6 3 6 l52 -1 q44 -2 71 -2 q30 0 74 2 l50 1 q3 0 3 -6 q0 -6 -3 -6 q-33 0 -48.5 -6 q-15.5 -6 -21.5 -20.5 q-6 -14.5 -6 -44.5 l0 -285 q0 -119 49.5 -177.5 q49.5 -58.5 138.5 -58.5 q85 0 133 52.5 q48 52.5 48 148.5 l0 281 Z" /><glyph glyph-name="uni1EE4" unicode="&#x1ee4;" d="M571 503 q0 52 -23.5 81 q-23.5 29 -67.5 29 q-2 0 -2 6 q0 6 2 6 l46 -1 q38 -2 60 -2 q18 0 54 2 l44 1 q2 0 2 -6 q0 -6 -2 -6 q-39 0 -60.5 -29 q-21.5 -29 -21.5 -81 l0 -280 q0 -72 -30.5 -125.5 q-30.5 -53.5 -86 -82.5 q-55.5 -29 -128.5 -29 q-73 0 -130 28.5 q-57 28.5 -88.5 82 q-31.5 53.5 -31.5 125.5 l0 322 q0 30 -6 44 q-6 14 -21.5 19.5 q-15.5 5.5 -48.5 5.5 q-3 0 -3 6 q0 6 3 6 l52 -1 q44 -2 71 -2 q30 0 74 2 l50 1 q3 0 3 -6 q0 -6 -3 -6 q-33 0 -48.5 -6 q-15.5 -6 -21.5 -20.5 q-6 -14.5 -6 -44.5 l0 -285 q0 -119 49.5 -177.5 q49.5 -58.5 138.5 -58.5 q85 0 133 52.5 q48 52.5 48 148.5 l0 281 ZM352 -201 q-26 0 -40.5 14 q-14.5 14 -14.5 40 q0 25 14.5 38.5 q14.5 13.5 40.5 13.5 q25 0 39 -13.5 q14 -13.5 14 -38.5 q0 -26 -13.5 -40 q-13.5 -14 -39.5 -14 Z" /><glyph glyph-name="Ugrave" unicode="ù" d="M473 679 q-113 50 -223 77 q-10 2 10.5 12 q20.5 10 47 18 q26.5 8 31.5 4 q30 -22 45 -34 q61 -46 93 -67 q2 -1 2 -4 q0 -3 -2 -5 q-2 -2 -4 -1 ZM571 503 q0 52 -23.5 81 q-23.5 29 -67.5 29 q-2 0 -2 6 q0 6 2 6 l46 -1 q38 -2 60 -2 q18 0 54 2 l44 1 q2 0 2 -6 q0 -6 -2 -6 q-39 0 -60.5 -29 q-21.5 -29 -21.5 -81 l0 -280 q0 -72 -30.5 -125.5 q-30.5 -53.5 -86 -82.5 q-55.5 -29 -128.5 -29 q-73 0 -130 28.5 q-57 28.5 -88.5 82 q-31.5 53.5 -31.5 125.5 l0 322 q0 30 -6 44 q-6 14 -21.5 19.5 q-15.5 5.5 -48.5 5.5 q-3 0 -3 6 q0 6 3 6 l52 -1 q44 -2 71 -2 q30 0 74 2 l50 1 q3 0 3 -6 q0 -6 -3 -6 q-33 0 -48.5 -6 q-15.5 -6 -21.5 -20.5 q-6 -14.5 -6 -44.5 l0 -285 q0 -119 49.5 -177.5 q49.5 -58.5 138.5 -58.5 q85 0 133 52.5 q48 52.5 48 148.5 l0 281 Z" /><glyph glyph-name="uni1EE6" unicode="&#x1ee6;" d="M375 651 q0 -2 -5.5 -2 q-5.5 0 -6.5 2 q-2 8 -2 22 q0 16 4 29 q4 13 13 32 q15 30 15 52 q0 37 -33 37 q-16 0 -33 -9 l-1 0 q-4 0 -6.5 3.5 q-2.5 3.5 0.5 4.5 q32 26 76 26 q31 0 49.5 -14.5 q18.5 -14.5 18.5 -37.5 q0 -20 -12.5 -37.5 q-12.5 -17.5 -35.5 -39.5 q-22 -23 -32 -37.5 q-10 -14.5 -9 -30.5 ZM571 503 q0 52 -23.5 81 q-23.5 29 -67.5 29 q-2 0 -2 6 q0 6 2 6 l46 -1 q38 -2 60 -2 q18 0 54 2 l44 1 q2 0 2 -6 q0 -6 -2 -6 q-39 0 -60.5 -29 q-21.5 -29 -21.5 -81 l0 -280 q0 -72 -30.5 -125.5 q-30.5 -53.5 -86 -82.5 q-55.5 -29 -128.5 -29 q-73 0 -130 28.5 q-57 28.5 -88.5 82 q-31.5 53.5 -31.5 125.5 l0 322 q0 30 -6 44 q-6 14 -21.5 19.5 q-15.5 5.5 -48.5 5.5 q-3 0 -3 6 q0 6 3 6 l52 -1 q44 -2 71 -2 q30 0 74 2 l50 1 q3 0 3 -6 q0 -6 -3 -6 q-33 0 -48.5 -6 q-15.5 -6 -21.5 -20.5 q-6 -14.5 -6 -44.5 l0 -285 q0 -119 49.5 -177.5 q49.5 -58.5 138.5 -58.5 q85 0 133 52.5 q48 52.5 48 148.5 l0 281 Z" /><glyph glyph-name="Uhorn" unicode="&#x1af;" d="M602 205 q0 -67 -30.5 -116.5 q-30.5 -49.5 -86 -76 q-55.5 -26.5 -128.5 -26.5 q-113 0 -181.5 58.5 q-68.5 58.5 -68.5 160.5 l0 339 q0 30 -6 44 q-6 14 -21.5 19.5 q-15.5 5.5 -48.5 5.5 q-3 0 -3 6 q0 6 3 6 l52 -1 q44 -2 71 -2 q30 0 74 2 l50 1 q3 0 3 -6 q0 -6 -3 -6 q-33 0 -48.5 -6 q-15.5 -6 -21.5 -20.5 q-6 -14.5 -6 -44.5 l0 -302 q0 -109 49 -164 q49 -55 135 -55 q88 0 136.5 48 q48.5 48 48.5 135 l0 299 q0 52 -23.5 81 q-23.5 29 -67.5 29 q-2 0 -2 6 q0 6 2 6 l46 -1 q38 -2 60 -2 q50 0 73.5 9.5 q23.5 9.5 23.5 30.5 q0 7 -3 13 q-3 6 -7 11 q-12 14 -12 30 q0 22 14.5 34.5 q14.5 12.5 34.5 12.5 q22 0 33.5 -15 q11.5 -15 11.5 -38 q0 -37 -27 -59 q-27 -22 -70 -38 q-26 -10 -41 -33.5 q-15 -23.5 -15 -76.5 l0 -298 Z" /><glyph glyph-name="uni1EE8" unicode="&#x1ee8;" d="M279 678 q-4 0 -5.5 4.5 q-1.5 4.5 1.5 6.5 q33 21 94 67 q14 12 44 34 q5 4 32 -4 q27 -8 47.5 -18 q20.5 -10 9.5 -12 q-118 -30 -222 -78 l-1 0 ZM602 205 q0 -67 -30.5 -116.5 q-30.5 -49.5 -86 -76 q-55.5 -26.5 -128.5 -26.5 q-113 0 -181.5 58.5 q-68.5 58.5 -68.5 160.5 l0 339 q0 30 -6 44 q-6 14 -21.5 19.5 q-15.5 5.5 -48.5 5.5 q-3 0 -3 6 q0 6 3 6 l52 -1 q44 -2 71 -2 q30 0 74 2 l50 1 q3 0 3 -6 q0 -6 -3 -6 q-33 0 -48.5 -6 q-15.5 -6 -21.5 -20.5 q-6 -14.5 -6 -44.5 l0 -302 q0 -109 49 -164 q49 -55 135 -55 q88 0 136.5 48 q48.5 48 48.5 135 l0 299 q0 52 -23.5 81 q-23.5 29 -67.5 29 q-2 0 -2 6 q0 6 2 6 l46 -1 q38 -2 60 -2 q50 0 73.5 9.5 q23.5 9.5 23.5 30.5 q0 7 -3 13 q-3 6 -7 11 q-12 14 -12 30 q0 22 14.5 34.5 q14.5 12.5 34.5 12.5 q22 0 33.5 -15 q11.5 -15 11.5 -38 q0 -37 -27 -59 q-27 -22 -70 -38 q-26 -10 -41 -33.5 q-15 -23.5 -15 -76.5 l0 -298 Z" /><glyph glyph-name="uni1EF0" unicode="&#x1ef0;" d="M602 205 q0 -67 -30.5 -116.5 q-30.5 -49.5 -86 -76 q-55.5 -26.5 -128.5 -26.5 q-113 0 -181.5 58.5 q-68.5 58.5 -68.5 160.5 l0 339 q0 30 -6 44 q-6 14 -21.5 19.5 q-15.5 5.5 -48.5 5.5 q-3 0 -3 6 q0 6 3 6 l52 -1 q44 -2 71 -2 q30 0 74 2 l50 1 q3 0 3 -6 q0 -6 -3 -6 q-33 0 -48.5 -6 q-15.5 -6 -21.5 -20.5 q-6 -14.5 -6 -44.5 l0 -302 q0 -109 49 -164 q49 -55 135 -55 q88 0 136.5 48 q48.5 48 48.5 135 l0 299 q0 52 -23.5 81 q-23.5 29 -67.5 29 q-2 0 -2 6 q0 6 2 6 l46 -1 q38 -2 60 -2 q50 0 73.5 9.5 q23.5 9.5 23.5 30.5 q0 7 -3 13 q-3 6 -7 11 q-12 14 -12 30 q0 22 14.5 34.5 q14.5 12.5 34.5 12.5 q22 0 33.5 -15 q11.5 -15 11.5 -38 q0 -37 -27 -59 q-27 -22 -70 -38 q-26 -10 -41 -33.5 q-15 -23.5 -15 -76.5 l0 -298 ZM370 -201 q-26 0 -40.5 14 q-14.5 14 -14.5 40 q0 25 14.5 38.5 q14.5 13.5 40.5 13.5 q25 0 39 -13.5 q14 -13.5 14 -38.5 q0 -26 -13.5 -40 q-13.5 -14 -39.5 -14 Z" /><glyph glyph-name="uni1EEA" unicode="&#x1eea;" d="M477 679 q-113 50 -223 77 q-10 2 10.5 12 q20.5 10 47 18 q26.5 8 31.5 4 q30 -22 45 -34 q61 -46 93 -67 q2 -1 2 -4 q0 -3 -2 -5 q-2 -2 -4 -1 ZM602 205 q0 -67 -30.5 -116.5 q-30.5 -49.5 -86 -76 q-55.5 -26.5 -128.5 -26.5 q-113 0 -181.5 58.5 q-68.5 58.5 -68.5 160.5 l0 339 q0 30 -6 44 q-6 14 -21.5 19.5 q-15.5 5.5 -48.5 5.5 q-3 0 -3 6 q0 6 3 6 l52 -1 q44 -2 71 -2 q30 0 74 2 l50 1 q3 0 3 -6 q0 -6 -3 -6 q-33 0 -48.5 -6 q-15.5 -6 -21.5 -20.5 q-6 -14.5 -6 -44.5 l0 -302 q0 -109 49 -164 q49 -55 135 -55 q88 0 136.5 48 q48.5 48 48.5 135 l0 299 q0 52 -23.5 81 q-23.5 29 -67.5 29 q-2 0 -2 6 q0 6 2 6 l46 -1 q38 -2 60 -2 q50 0 73.5 9.5 q23.5 9.5 23.5 30.5 q0 7 -3 13 q-3 6 -7 11 q-12 14 -12 30 q0 22 14.5 34.5 q14.5 12.5 34.5 12.5 q22 0 33.5 -15 q11.5 -15 11.5 -38 q0 -37 -27 -59 q-27 -22 -70 -38 q-26 -10 -41 -33.5 q-15 -23.5 -15 -76.5 l0 -298 Z" /><glyph glyph-name="uni1EEC" unicode="&#x1eec;" d="M379 651 q0 -2 -5.5 -2 q-5.5 0 -6.5 2 q-2 8 -2 22 q0 16 4 29 q4 13 13 32 q15 30 15 52 q0 37 -33 37 q-17 0 -33 -9 l-1 0 q-4 0 -6.5 3.5 q-2.5 3.5 0.5 4.5 q32 26 76 26 q31 0 49.5 -14.5 q18.5 -14.5 18.5 -37.5 q0 -20 -12.5 -37.5 q-12.5 -17.5 -35.5 -39.5 q-22 -23 -32 -37.5 q-10 -14.5 -9 -30.5 ZM602 205 q0 -67 -30.5 -116.5 q-30.5 -49.5 -86 -76 q-55.5 -26.5 -128.5 -26.5 q-113 0 -181.5 58.5 q-68.5 58.5 -68.5 160.5 l0 339 q0 30 -6 44 q-6 14 -21.5 19.5 q-15.5 5.5 -48.5 5.5 q-3 0 -3 6 q0 6 3 6 l52 -1 q44 -2 71 -2 q30 0 74 2 l50 1 q3 0 3 -6 q0 -6 -3 -6 q-33 0 -48.5 -6 q-15.5 -6 -21.5 -20.5 q-6 -14.5 -6 -44.5 l0 -302 q0 -109 49 -164 q49 -55 135 -55 q88 0 136.5 48 q48.5 48 48.5 135 l0 299 q0 52 -23.5 81 q-23.5 29 -67.5 29 q-2 0 -2 6 q0 6 2 6 l46 -1 q38 -2 60 -2 q50 0 73.5 9.5 q23.5 9.5 23.5 30.5 q0 7 -3 13 q-3 6 -7 11 q-12 14 -12 30 q0 22 14.5 34.5 q14.5 12.5 34.5 12.5 q22 0 33.5 -15 q11.5 -15 11.5 -38 q0 -37 -27 -59 q-27 -22 -70 -38 q-26 -10 -41 -33.5 q-15 -23.5 -15 -76.5 l0 -298 Z" /><glyph glyph-name="uni1EEE" unicode="&#x1eee;" d="M453 769 q16 0 27 6.5 q11 6.5 23 20.5 l2 1 q2 0 4 -3 q2 -3 1 -5 q-26 -44 -43 -59 q-17 -15 -39 -15 q-20 0 -57 11 q-17 5 -35.5 9 q-18.5 4 -34.5 4 q-19 0 -27 -5.5 q-8 -5.5 -23 -21.5 l-1 0 q-3 0 -5.5 2.5 q-2.5 2.5 -0.5 4.5 q44 75 86 75 q11 0 49 -10 q49 -15 74 -15 ZM602 205 q0 -67 -30.5 -116.5 q-30.5 -49.5 -86 -76 q-55.5 -26.5 -128.5 -26.5 q-113 0 -181.5 58.5 q-68.5 58.5 -68.5 160.5 l0 339 q0 30 -6 44 q-6 14 -21.5 19.5 q-15.5 5.5 -48.5 5.5 q-3 0 -3 6 q0 6 3 6 l52 -1 q44 -2 71 -2 q30 0 74 2 l50 1 q3 0 3 -6 q0 -6 -3 -6 q-33 0 -48.5 -6 q-15.5 -6 -21.5 -20.5 q-6 -14.5 -6 -44.5 l0 -302 q0 -109 49 -164 q49 -55 135 -55 q88 0 136.5 48 q48.5 48 48.5 135 l0 299 q0 52 -23.5 81 q-23.5 29 -67.5 29 q-2 0 -2 6 q0 6 2 6 l46 -1 q38 -2 60 -2 q50 0 73.5 9.5 q23.5 9.5 23.5 30.5 q0 7 -3 13 q-3 6 -7 11 q-12 14 -12 30 q0 22 14.5 34.5 q14.5 12.5 34.5 12.5 q22 0 33.5 -15 q11.5 -15 11.5 -38 q0 -37 -27 -59 q-27 -22 -70 -38 q-26 -10 -41 -33.5 q-15 -23.5 -15 -76.5 l0 -298 Z" /><glyph glyph-name="Uhungarumlaut" unicode="&#x170;" d="M262 670 q-4 0 -5.5 4 q-1.5 4 0.5 7 q49 57 90 116 q3 6 27.5 -0.5 q24.5 -6.5 44 -17 q19.5 -10.5 10.5 -14.5 q-88 -39 -165 -94 l-2 -1 ZM404 670 q-3 0 -4.5 4 q-1.5 4 0.5 7 q23 25 46.5 56 q23.5 31 43.5 60 q2 6 26.5 -0.5 q24.5 -6.5 43.5 -17 q19 -10.5 10 -14.5 q-85 -39 -163 -94 l-3 -1 ZM571 503 q0 52 -23.5 81 q-23.5 29 -67.5 29 q-2 0 -2 6 q0 6 2 6 l46 -1 q38 -2 60 -2 q18 0 54 2 l44 1 q2 0 2 -6 q0 -6 -2 -6 q-39 0 -60.5 -29 q-21.5 -29 -21.5 -81 l0 -280 q0 -72 -30.5 -125.5 q-30.5 -53.5 -86 -82.5 q-55.5 -29 -128.5 -29 q-73 0 -130 28.5 q-57 28.5 -88.5 82 q-31.5 53.5 -31.5 125.5 l0 322 q0 30 -6 44 q-6 14 -21.5 19.5 q-15.5 5.5 -48.5 5.5 q-3 0 -3 6 q0 6 3 6 l52 -1 q44 -2 71 -2 q30 0 74 2 l50 1 q3 0 3 -6 q0 -6 -3 -6 q-33 0 -48.5 -6 q-15.5 -6 -21.5 -20.5 q-6 -14.5 -6 -44.5 l0 -285 q0 -119 49.5 -177.5 q49.5 -58.5 138.5 -58.5 q85 0 133 52.5 q48 52.5 48 148.5 l0 281 Z" /><glyph glyph-name="Umacron" unicode="&#x16a;" d="M247 716 q-4 0 -6 5.5 q-2 5.5 -2 11.5 q0 7 2 12 q2 5 6 5 l251 0 q4 0 6.5 -5 q2.5 -5 2.5 -12 q0 -7 -2.5 -12 q-2.5 -5 -6.5 -5 l-251 0 ZM571 503 q0 52 -23.5 81 q-23.5 29 -67.5 29 q-2 0 -2 6 q0 6 2 6 l46 -1 q38 -2 60 -2 q18 0 54 2 l44 1 q2 0 2 -6 q0 -6 -2 -6 q-39 0 -60.5 -29 q-21.5 -29 -21.5 -81 l0 -280 q0 -72 -30.5 -125.5 q-30.5 -53.5 -86 -82.5 q-55.5 -29 -128.5 -29 q-73 0 -130 28.5 q-57 28.5 -88.5 82 q-31.5 53.5 -31.5 125.5 l0 322 q0 30 -6 44 q-6 14 -21.5 19.5 q-15.5 5.5 -48.5 5.5 q-3 0 -3 6 q0 6 3 6 l52 -1 q44 -2 71 -2 q30 0 74 2 l50 1 q3 0 3 -6 q0 -6 -3 -6 q-33 0 -48.5 -6 q-15.5 -6 -21.5 -20.5 q-6 -14.5 -6 -44.5 l0 -285 q0 -119 49.5 -177.5 q49.5 -58.5 138.5 -58.5 q85 0 133 52.5 q48 52.5 48 148.5 l0 281 Z" /><glyph glyph-name="Uogonek" unicode="&#x172;" d="M684 625 q2 0 2 -6 q0 -6 -2 -6 q-39 0 -60.5 -29 q-21.5 -29 -21.5 -81 l0 -280 q0 -89 -45.5 -148.5 q-45.5 -59.5 -125.5 -79.5 q-31 -31 -44.5 -58.5 q-13.5 -27.5 -13.5 -62.5 q0 -50 25.5 -80.5 q25.5 -30.5 70.5 -30.5 q14 0 28 4.5 q14 4.5 22 10.5 l2 0 q3 0 5.5 -3 q2.5 -3 -0.5 -5 q-53 -45 -111 -45 q-51 0 -83.5 30 q-32.5 30 -32.5 76 q0 76 103 158 q-21 -3 -45 -3 q-73 0 -130 28.5 q-57 28.5 -88.5 82 q-31.5 53.5 -31.5 125.5 l0 322 q0 30 -6 44 q-6 14 -21.5 19.5 q-15.5 5.5 -48.5 5.5 q-3 0 -3 6 q0 6 3 6 l52 -1 q44 -2 71 -2 q30 0 74 2 l50 1 q3 0 3 -6 q0 -6 -3 -6 q-33 0 -48.5 -6 q-15.5 -6 -21.5 -20.5 q-6 -14.5 -6 -44.5 l0 -285 q0 -119 49.5 -177.5 q49.5 -58.5 138.5 -58.5 q85 0 133 52.5 q48 52.5 48 148.5 l0 281 q0 52 -23.5 81 q-23.5 29 -67.5 29 q-2 0 -2 6 q0 6 2 6 l46 -1 q38 -2 60 -2 q18 0 54 2 l44 1 Z" /><glyph glyph-name="Uring" unicode="&#x16e;" d="M364 707 q-45 0 -72.5 23.5 q-27.5 23.5 -27.5 55.5 q0 36 34 57 q34 21 76 21 q41 0 70.5 -23.5 q29.5 -23.5 29.5 -56.5 q0 -35 -33.5 -56 q-33.5 -21 -76.5 -21 ZM380 720 q15 0 22 11 q7 11 7 35 q0 35 -16 60 q-16 25 -39 25 q-27 0 -27 -45 q0 -33 14.5 -59.5 q14.5 -26.5 38.5 -26.5 ZM571 503 q0 52 -23.5 81 q-23.5 29 -67.5 29 q-2 0 -2 6 q0 6 2 6 l46 -1 q38 -2 60 -2 q18 0 54 2 l44 1 q2 0 2 -6 q0 -6 -2 -6 q-39 0 -60.5 -29 q-21.5 -29 -21.5 -81 l0 -280 q0 -72 -30.5 -125.5 q-30.5 -53.5 -86 -82.5 q-55.5 -29 -128.5 -29 q-73 0 -130 28.5 q-57 28.5 -88.5 82 q-31.5 53.5 -31.5 125.5 l0 322 q0 30 -6 44 q-6 14 -21.5 19.5 q-15.5 5.5 -48.5 5.5 q-3 0 -3 6 q0 6 3 6 l52 -1 q44 -2 71 -2 q30 0 74 2 l50 1 q3 0 3 -6 q0 -6 -3 -6 q-33 0 -48.5 -6 q-15.5 -6 -21.5 -20.5 q-6 -14.5 -6 -44.5 l0 -285 q0 -119 49.5 -177.5 q49.5 -58.5 138.5 -58.5 q85 0 133 52.5 q48 52.5 48 148.5 l0 281 Z" /><glyph glyph-name="Utilde" unicode="&#x168;" d="M449 769 q16 0 27 6.5 q11 6.5 23 20.5 l2 1 q2 0 4 -3 q2 -3 1 -5 q-26 -44 -43 -59 q-17 -15 -39 -15 q-20 0 -57 11 q-17 5 -35.5 9 q-18.5 4 -34.5 4 q-19 0 -27 -5.5 q-8 -5.5 -23 -21.5 l-1 0 q-3 0 -5.5 2.5 q-2.5 2.5 -0.5 4.5 q44 75 86 75 q11 0 49 -10 q49 -15 74 -15 ZM571 503 q0 52 -23.5 81 q-23.5 29 -67.5 29 q-2 0 -2 6 q0 6 2 6 l46 -1 q38 -2 60 -2 q18 0 54 2 l44 1 q2 0 2 -6 q0 -6 -2 -6 q-39 0 -60.5 -29 q-21.5 -29 -21.5 -81 l0 -280 q0 -72 -30.5 -125.5 q-30.5 -53.5 -86 -82.5 q-55.5 -29 -128.5 -29 q-73 0 -130 28.5 q-57 28.5 -88.5 82 q-31.5 53.5 -31.5 125.5 l0 322 q0 30 -6 44 q-6 14 -21.5 19.5 q-15.5 5.5 -48.5 5.5 q-3 0 -3 6 q0 6 3 6 l52 -1 q44 -2 71 -2 q30 0 74 2 l50 1 q3 0 3 -6 q0 -6 -3 -6 q-33 0 -48.5 -6 q-15.5 -6 -21.5 -20.5 q-6 -14.5 -6 -44.5 l0 -285 q0 -119 49.5 -177.5 q49.5 -58.5 138.5 -58.5 q85 0 133 52.5 q48 52.5 48 148.5 l0 281 Z" /><glyph glyph-name="V" unicode="v" d="M666 625 q3 0 3 -6 q0 -6 -3 -6 q-36 0 -66 -27 q-30 -27 -49 -78 l-194 -507 q-1 -4 -11 -4 q-10 0 -11 4 l-253 541 q-18 37 -36 54 q-18 17 -43 17 q-3 0 -3 6 q0 6 3 6 l26 -1 q22 -2 50 -2 q70 0 126 2 q16 1 41 1 q3 0 3 -6 q0 -6 -3 -6 q-63 0 -63 -44 q0 -17 10 -38 l186 -398 l146 379 q9 24 9 43 q0 28 -18.5 43 q-18.5 15 -55.5 15 q-3 0 -3 6 q0 6 3 6 l48 -1 q38 -2 70 -2 q19 0 47 2 l41 1 Z" /><glyph glyph-name="W" unicode="w" d="M923 625 q2 0 2 -6 q0 -6 -2 -6 q-36 0 -66 -27 q-30 -27 -50 -78 l-194 -507 q-1 -4 -11 -4 q-10 0 -11 4 l-129 276 l-105 -276 q-1 -4 -11 -4 q-10 0 -11 4 l-253 541 q-21 44 -35.5 57.5 q-14.5 13.5 -43.5 13.5 q-3 0 -3 6 q0 6 3 6 l26 -1 q22 -2 50 -2 q56 0 102 2 q14 1 35 1 q3 0 3 -6 q0 -6 -3 -6 q-27 0 -38.5 -5.5 q-11.5 -5.5 -11.5 -20.5 q0 -17 18 -56 l191 -407 l72 186 l-109 232 q-18 37 -33.5 54 q-15.5 17 -36.5 17 q-3 0 -3 6 q0 6 3 6 l24 -1 q22 -2 44 -2 q47 0 83 2 q10 1 26 1 q3 0 3 -6 q0 -6 -3 -6 q-16 0 -22.5 -3.5 q-6.5 -3.5 -6.5 -12.5 q0 -16 24 -66 l54 -114 l36 95 q18 47 18 71 q0 30 -30 30 q-3 0 -3 6 q0 6 3 6 q9 0 21 -1.5 q12 -1.5 44 -1.5 q18 0 42 2 l39 1 q2 0 2 -6 q0 -6 -2 -6 q-34 0 -60 -25 q-26 -25 -47 -80 l-48 -124 l123 -260 l146 381 q10 26 10 49 q0 28 -16.5 43.5 q-16.5 15.5 -46.5 15.5 q-3 0 -3 6 q0 6 3 6 l44 -1 q36 -2 65 -2 q20 0 46 2 l43 1 Z" /><glyph glyph-name="Wacute" unicode="&#x1e82;" d="M371 678 q-4 0 -5 4.5 q-1 4.5 2 6.5 q32 19 88 63 q46 35 50 38 q5 4 32 -4 q27 -8 47.5 -18 q20.5 -10 9.5 -12 q-62 -15 -113.5 -33.5 q-51.5 -18.5 -108.5 -43.5 l-2 -1 ZM923 625 q2 0 2 -6 q0 -6 -2 -6 q-36 0 -66 -27 q-30 -27 -50 -78 l-194 -507 q-1 -4 -11 -4 q-10 0 -11 4 l-129 276 l-105 -276 q-1 -4 -11 -4 q-10 0 -11 4 l-253 541 q-21 44 -35.5 57.5 q-14.5 13.5 -43.5 13.5 q-3 0 -3 6 q0 6 3 6 l26 -1 q22 -2 50 -2 q56 0 102 2 q14 1 35 1 q3 0 3 -6 q0 -6 -3 -6 q-27 0 -38.5 -5.5 q-11.5 -5.5 -11.5 -20.5 q0 -17 18 -56 l191 -407 l72 186 l-109 232 q-18 37 -33.5 54 q-15.5 17 -36.5 17 q-3 0 -3 6 q0 6 3 6 l24 -1 q22 -2 44 -2 q47 0 83 2 q10 1 26 1 q3 0 3 -6 q0 -6 -3 -6 q-16 0 -22.5 -3.5 q-6.5 -3.5 -6.5 -12.5 q0 -16 24 -66 l54 -114 l36 95 q18 47 18 71 q0 30 -30 30 q-3 0 -3 6 q0 6 3 6 q9 0 21 -1.5 q12 -1.5 44 -1.5 q18 0 42 2 l39 1 q2 0 2 -6 q0 -6 -2 -6 q-34 0 -60 -25 q-26 -25 -47 -80 l-48 -124 l123 -260 l146 381 q10 26 10 49 q0 28 -16.5 43.5 q-16.5 15.5 -46.5 15.5 q-3 0 -3 6 q0 6 3 6 l44 -1 q36 -2 65 -2 q20 0 46 2 l43 1 Z" /><glyph glyph-name="Wcircumflex" unicode="&#x174;" d="M362 692 q-2 -1 -5 2.5 q-3 3.5 -1 4.5 l103 110 q5 5 12 5 q6 0 11 -5 l102 -110 q1 0 1 -2 q0 -2 -2.5 -4 q-2.5 -2 -3.5 -1 l-108 45 l-109 -45 ZM923 625 q2 0 2 -6 q0 -6 -2 -6 q-36 0 -66 -27 q-30 -27 -50 -78 l-194 -507 q-1 -4 -11 -4 q-10 0 -11 4 l-129 276 l-105 -276 q-1 -4 -11 -4 q-10 0 -11 4 l-253 541 q-21 44 -35.5 57.5 q-14.5 13.5 -43.5 13.5 q-3 0 -3 6 q0 6 3 6 l26 -1 q22 -2 50 -2 q56 0 102 2 q14 1 35 1 q3 0 3 -6 q0 -6 -3 -6 q-27 0 -38.5 -5.5 q-11.5 -5.5 -11.5 -20.5 q0 -17 18 -56 l191 -407 l72 186 l-109 232 q-18 37 -33.5 54 q-15.5 17 -36.5 17 q-3 0 -3 6 q0 6 3 6 l24 -1 q22 -2 44 -2 q47 0 83 2 q10 1 26 1 q3 0 3 -6 q0 -6 -3 -6 q-16 0 -22.5 -3.5 q-6.5 -3.5 -6.5 -12.5 q0 -16 24 -66 l54 -114 l36 95 q18 47 18 71 q0 30 -30 30 q-3 0 -3 6 q0 6 3 6 q9 0 21 -1.5 q12 -1.5 44 -1.5 q18 0 42 2 l39 1 q2 0 2 -6 q0 -6 -2 -6 q-34 0 -60 -25 q-26 -25 -47 -80 l-48 -124 l123 -260 l146 381 q10 26 10 49 q0 28 -16.5 43.5 q-16.5 15.5 -46.5 15.5 q-3 0 -3 6 q0 6 3 6 l44 -1 q36 -2 65 -2 q20 0 46 2 l43 1 Z" /><glyph glyph-name="Wdieresis" unicode="&#x1e84;" d="M384 708 q-24 0 -37.5 13 q-13.5 13 -13.5 37 q0 23 13.5 35.5 q13.5 12.5 37.5 12.5 q23 0 35.5 -12.5 q12.5 -12.5 12.5 -35.5 q0 -24 -12.5 -37 q-12.5 -13 -35.5 -13 ZM558 708 q-23 0 -36.5 13 q-13.5 13 -13.5 37 q0 22 13.5 35 q13.5 13 36.5 13 q23 0 36 -12.5 q13 -12.5 13 -35.5 q0 -24 -13 -37 q-13 -13 -36 -13 ZM923 625 q2 0 2 -6 q0 -6 -2 -6 q-36 0 -66 -27 q-30 -27 -50 -78 l-194 -507 q-1 -4 -11 -4 q-10 0 -11 4 l-129 276 l-105 -276 q-1 -4 -11 -4 q-10 0 -11 4 l-253 541 q-21 44 -35.5 57.5 q-14.5 13.5 -43.5 13.5 q-3 0 -3 6 q0 6 3 6 l26 -1 q22 -2 50 -2 q56 0 102 2 q14 1 35 1 q3 0 3 -6 q0 -6 -3 -6 q-27 0 -38.5 -5.5 q-11.5 -5.5 -11.5 -20.5 q0 -17 18 -56 l191 -407 l72 186 l-109 232 q-18 37 -33.5 54 q-15.5 17 -36.5 17 q-3 0 -3 6 q0 6 3 6 l24 -1 q22 -2 44 -2 q47 0 83 2 q10 1 26 1 q3 0 3 -6 q0 -6 -3 -6 q-16 0 -22.5 -3.5 q-6.5 -3.5 -6.5 -12.5 q0 -16 24 -66 l54 -114 l36 95 q18 47 18 71 q0 30 -30 30 q-3 0 -3 6 q0 6 3 6 q9 0 21 -1.5 q12 -1.5 44 -1.5 q18 0 42 2 l39 1 q2 0 2 -6 q0 -6 -2 -6 q-34 0 -60 -25 q-26 -25 -47 -80 l-48 -124 l123 -260 l146 381 q10 26 10 49 q0 28 -16.5 43.5 q-16.5 15.5 -46.5 15.5 q-3 0 -3 6 q0 6 3 6 l44 -1 q36 -2 65 -2 q20 0 46 2 l43 1 Z" /><glyph glyph-name="Wgrave" unicode="&#x1e80;" d="M347 756 q-10 2 10.5 12 q20.5 10 47 18 q26.5 8 31.5 4 q30 -22 45 -34 q61 -46 93 -67 q2 -1 2 -4 q0 -3 -2 -5 q-2 -2 -4 -1 q-113 50 -223 77 ZM923 625 q2 0 2 -6 q0 -6 -2 -6 q-36 0 -66 -27 q-30 -27 -50 -78 l-194 -507 q-1 -4 -11 -4 q-10 0 -11 4 l-129 276 l-105 -276 q-1 -4 -11 -4 q-10 0 -11 4 l-253 541 q-21 44 -35.5 57.5 q-14.5 13.5 -43.5 13.5 q-3 0 -3 6 q0 6 3 6 l26 -1 q22 -2 50 -2 q56 0 102 2 q14 1 35 1 q3 0 3 -6 q0 -6 -3 -6 q-27 0 -38.5 -5.5 q-11.5 -5.5 -11.5 -20.5 q0 -17 18 -56 l191 -407 l72 186 l-109 232 q-18 37 -33.5 54 q-15.5 17 -36.5 17 q-3 0 -3 6 q0 6 3 6 l24 -1 q22 -2 44 -2 q47 0 83 2 q10 1 26 1 q3 0 3 -6 q0 -6 -3 -6 q-16 0 -22.5 -3.5 q-6.5 -3.5 -6.5 -12.5 q0 -16 24 -66 l54 -114 l36 95 q18 47 18 71 q0 30 -30 30 q-3 0 -3 6 q0 6 3 6 q9 0 21 -1.5 q12 -1.5 44 -1.5 q18 0 42 2 l39 1 q2 0 2 -6 q0 -6 -2 -6 q-34 0 -60 -25 q-26 -25 -47 -80 l-48 -124 l123 -260 l146 381 q10 26 10 49 q0 28 -16.5 43.5 q-16.5 15.5 -46.5 15.5 q-3 0 -3 6 q0 6 3 6 l44 -1 q36 -2 65 -2 q20 0 46 2 l43 1 Z" /><glyph glyph-name="X" unicode="x" d="M641 12 q3 0 3 -6 q0 -6 -3 -6 q-28 0 -43 1 l-59 1 l-81 -1 q-18 -1 -51 -1 q-3 0 -3 6 q0 6 3 6 q39 0 39 17 q0 9 -9 22 l-142 218 l-100 -142 q-34 -49 -34 -77 q0 -18 14 -28 q14 -10 41 -10 q2 0 2 -6 q0 -6 -2 -6 q-32 0 -49 1 l-72 1 l-46 -1 q-12 -1 -40 -1 q-3 0 -3 6 q0 6 3 6 q32 0 73.5 29.5 q41.5 29.5 85.5 90.5 l115 156 l-161 247 q-27 42 -52 60 q-25 18 -55 18 q-3 0 -3 6 q0 6 3 6 l41 -1 q28 -2 41 -2 q34 0 86 2 l55 1 q2 0 2 -6 q0 -6 -2 -6 q-20 0 -30 -3.5 q-10 -3.5 -10 -13.5 q0 -8 9 -23 l137 -210 l93 132 q35 50 35 80 q0 38 -54 38 q-2 0 -2 6 q0 6 2 6 l49 -1 q40 -2 72 -2 q20 0 46 2 l40 1 q3 0 3 -6 q0 -6 -3 -6 q-33 0 -75 -30.5 q-42 -30.5 -86 -92.5 l-108 -146 l170 -261 q25 -38 52 -54.5 q27 -16.5 63 -16.5 Z" /><glyph glyph-name="Y" unicode="y" d="M621 625 q2 0 2 -6 q0 -6 -2 -6 q-33 0 -75 -34.5 q-42 -34.5 -75 -88.5 l-114 -185 l0 -224 q0 -31 5.5 -45 q5.5 -14 21 -19 q15.5 -5 49.5 -5 q3 0 3 -6 q0 -6 -3 -6 q-33 0 -51 1 l-73 1 l-72 -1 q-20 -1 -53 -1 q-2 0 -2 6 q0 6 2 6 q34 0 49.5 5 q15.5 5 21.5 19.5 q6 14.5 6 44.5 l0 206 l-152 232 q-34 53 -58.5 73.5 q-24.5 20.5 -47.5 20.5 q-3 0 -3 6 q0 6 3 6 l33 -1 q22 -2 32 -2 q34 0 96 2 l62 1 q2 0 2 -6 q0 -6 -2 -6 q-41 0 -41 -28 q0 -14 12 -32 l145 -223 l102 167 q25 41 25 72 q0 44 -55 44 q-2 0 -2 6 q0 6 2 6 l52 -1 q42 -2 77 -2 q17 0 41 2 l37 1 Z" /><glyph glyph-name="Yacute" unicode="ý" d="M223 678 q-4 0 -5 4.5 q-1 4.5 2 6.5 q32 19 88 63 q46 35 50 38 q5 4 32 -4 q27 -8 47.5 -18 q20.5 -10 9.5 -12 q-62 -15 -113.5 -33.5 q-51.5 -18.5 -108.5 -43.5 l-2 -1 ZM621 625 q2 0 2 -6 q0 -6 -2 -6 q-33 0 -75 -34.5 q-42 -34.5 -75 -88.5 l-114 -185 l0 -224 q0 -31 5.5 -45 q5.5 -14 21 -19 q15.5 -5 49.5 -5 q3 0 3 -6 q0 -6 -3 -6 q-33 0 -51 1 l-73 1 l-72 -1 q-20 -1 -53 -1 q-2 0 -2 6 q0 6 2 6 q34 0 49.5 5 q15.5 5 21.5 19.5 q6 14.5 6 44.5 l0 206 l-152 232 q-34 53 -58.5 73.5 q-24.5 20.5 -47.5 20.5 q-3 0 -3 6 q0 6 3 6 l33 -1 q22 -2 32 -2 q34 0 96 2 l62 1 q2 0 2 -6 q0 -6 -2 -6 q-41 0 -41 -28 q0 -14 12 -32 l145 -223 l102 167 q25 41 25 72 q0 44 -55 44 q-2 0 -2 6 q0 6 2 6 l52 -1 q42 -2 77 -2 q17 0 41 2 l37 1 Z" /><glyph glyph-name="Ycircumflex" unicode="&#x176;" d="M214 692 q-2 -1 -5 2.5 q-3 3.5 -1 4.5 l103 110 q5 5 12 5 q6 0 11 -5 l102 -110 q1 0 1 -2 q0 -2 -2.5 -4 q-2.5 -2 -3.5 -1 l-108 45 l-109 -45 ZM621 625 q2 0 2 -6 q0 -6 -2 -6 q-33 0 -75 -34.5 q-42 -34.5 -75 -88.5 l-114 -185 l0 -224 q0 -31 5.5 -45 q5.5 -14 21 -19 q15.5 -5 49.5 -5 q3 0 3 -6 q0 -6 -3 -6 q-33 0 -51 1 l-73 1 l-72 -1 q-20 -1 -53 -1 q-2 0 -2 6 q0 6 2 6 q34 0 49.5 5 q15.5 5 21.5 19.5 q6 14.5 6 44.5 l0 206 l-152 232 q-34 53 -58.5 73.5 q-24.5 20.5 -47.5 20.5 q-3 0 -3 6 q0 6 3 6 l33 -1 q22 -2 32 -2 q34 0 96 2 l62 1 q2 0 2 -6 q0 -6 -2 -6 q-41 0 -41 -28 q0 -14 12 -32 l145 -223 l102 167 q25 41 25 72 q0 44 -55 44 q-2 0 -2 6 q0 6 2 6 l52 -1 q42 -2 77 -2 q17 0 41 2 l37 1 Z" /><glyph glyph-name="Ydieresis" unicode="&#x178;" d="M236 708 q-24 0 -37.5 13 q-13.5 13 -13.5 37 q0 23 13.5 35.5 q13.5 12.5 37.5 12.5 q23 0 35.5 -12.5 q12.5 -12.5 12.5 -35.5 q0 -24 -12.5 -37 q-12.5 -13 -35.5 -13 ZM410 708 q-23 0 -36.5 13 q-13.5 13 -13.5 37 q0 22 13.5 35 q13.5 13 36.5 13 q23 0 36 -12.5 q13 -12.5 13 -35.5 q0 -24 -13 -37 q-13 -13 -36 -13 ZM621 625 q2 0 2 -6 q0 -6 -2 -6 q-33 0 -75 -34.5 q-42 -34.5 -75 -88.5 l-114 -185 l0 -224 q0 -31 5.5 -45 q5.5 -14 21 -19 q15.5 -5 49.5 -5 q3 0 3 -6 q0 -6 -3 -6 q-33 0 -51 1 l-73 1 l-72 -1 q-20 -1 -53 -1 q-2 0 -2 6 q0 6 2 6 q34 0 49.5 5 q15.5 5 21.5 19.5 q6 14.5 6 44.5 l0 206 l-152 232 q-34 53 -58.5 73.5 q-24.5 20.5 -47.5 20.5 q-3 0 -3 6 q0 6 3 6 l33 -1 q22 -2 32 -2 q34 0 96 2 l62 1 q2 0 2 -6 q0 -6 -2 -6 q-41 0 -41 -28 q0 -14 12 -32 l145 -223 l102 167 q25 41 25 72 q0 44 -55 44 q-2 0 -2 6 q0 6 2 6 l52 -1 q42 -2 77 -2 q17 0 41 2 l37 1 Z" /><glyph glyph-name="uni1E8E" unicode="&#x1e8e;" d="M323 713 q-26 0 -40.5 14.5 q-14.5 14.5 -14.5 40.5 q0 24 14.5 38.5 q14.5 14.5 40.5 14.5 q25 0 39 -14.5 q14 -14.5 14 -38.5 q0 -26 -14 -40.5 q-14 -14.5 -39 -14.5 ZM621 625 q2 0 2 -6 q0 -6 -2 -6 q-33 0 -75 -34.5 q-42 -34.5 -75 -88.5 l-114 -185 l0 -224 q0 -31 5.5 -45 q5.5 -14 21 -19 q15.5 -5 49.5 -5 q3 0 3 -6 q0 -6 -3 -6 q-33 0 -51 1 l-73 1 l-72 -1 q-20 -1 -53 -1 q-2 0 -2 6 q0 6 2 6 q34 0 49.5 5 q15.5 5 21.5 19.5 q6 14.5 6 44.5 l0 206 l-152 232 q-34 53 -58.5 73.5 q-24.5 20.5 -47.5 20.5 q-3 0 -3 6 q0 6 3 6 l33 -1 q22 -2 32 -2 q34 0 96 2 l62 1 q2 0 2 -6 q0 -6 -2 -6 q-41 0 -41 -28 q0 -14 12 -32 l145 -223 l102 167 q25 41 25 72 q0 44 -55 44 q-2 0 -2 6 q0 6 2 6 l52 -1 q42 -2 77 -2 q17 0 41 2 l37 1 Z" /><glyph glyph-name="uni1EF4" unicode="&#x1ef4;" d="M621 625 q2 0 2 -6 q0 -6 -2 -6 q-33 0 -75 -34.5 q-42 -34.5 -75 -88.5 l-114 -185 l0 -224 q0 -31 5.5 -45 q5.5 -14 21 -19 q15.5 -5 49.5 -5 q3 0 3 -6 q0 -6 -3 -6 q-33 0 -51 1 l-73 1 l-72 -1 q-20 -1 -53 -1 q-2 0 -2 6 q0 6 2 6 q34 0 49.5 5 q15.5 5 21.5 19.5 q6 14.5 6 44.5 l0 206 l-152 232 q-34 53 -58.5 73.5 q-24.5 20.5 -47.5 20.5 q-3 0 -3 6 q0 6 3 6 l33 -1 q22 -2 32 -2 q34 0 96 2 l62 1 q2 0 2 -6 q0 -6 -2 -6 q-41 0 -41 -28 q0 -14 12 -32 l145 -223 l102 167 q25 41 25 72 q0 44 -55 44 q-2 0 -2 6 q0 6 2 6 l52 -1 q42 -2 77 -2 q17 0 41 2 l37 1 ZM309 -95 q25 0 39 -13.5 q14 -13.5 14 -38.5 q0 -26 -13.5 -40 q-13.5 -14 -39.5 -14 q-26 0 -40.5 14 q-14.5 14 -14.5 40 q0 25 14.5 38.5 q14.5 13.5 40.5 13.5 Z" /><glyph glyph-name="Ygrave" unicode="&#x1ef2;" d="M199 756 q-10 2 10.5 12 q20.5 10 47 18 q26.5 8 31.5 4 q30 -22 45 -34 q61 -46 93 -67 q2 -1 2 -4 q0 -3 -2 -5 q-2 -2 -4 -1 q-113 50 -223 77 ZM621 625 q2 0 2 -6 q0 -6 -2 -6 q-33 0 -75 -34.5 q-42 -34.5 -75 -88.5 l-114 -185 l0 -224 q0 -31 5.5 -45 q5.5 -14 21 -19 q15.5 -5 49.5 -5 q3 0 3 -6 q0 -6 -3 -6 q-33 0 -51 1 l-73 1 l-72 -1 q-20 -1 -53 -1 q-2 0 -2 6 q0 6 2 6 q34 0 49.5 5 q15.5 5 21.5 19.5 q6 14.5 6 44.5 l0 206 l-152 232 q-34 53 -58.5 73.5 q-24.5 20.5 -47.5 20.5 q-3 0 -3 6 q0 6 3 6 l33 -1 q22 -2 32 -2 q34 0 96 2 l62 1 q2 0 2 -6 q0 -6 -2 -6 q-41 0 -41 -28 q0 -14 12 -32 l145 -223 l102 167 q25 41 25 72 q0 44 -55 44 q-2 0 -2 6 q0 6 2 6 l52 -1 q42 -2 77 -2 q17 0 41 2 l37 1 Z" /><glyph glyph-name="uni1EF6" unicode="&#x1ef6;" d="M275 814 q-4 0 -6.5 3.5 q-2.5 3.5 0.5 4.5 q32 26 76 26 q31 0 49.5 -14.5 q18.5 -14.5 18.5 -37.5 q0 -20 -12.5 -37.5 q-12.5 -17.5 -35.5 -39.5 q-22 -23 -32 -37.5 q-10 -14.5 -9 -30.5 q0 -2 -5.5 -2 q-5.5 0 -6.5 2 q-2 8 -2 22 q0 16 4 29 q4 13 13 32 q15 30 15 52 q0 37 -33 37 q-17 0 -33 -9 l-1 0 ZM621 625 q2 0 2 -6 q0 -6 -2 -6 q-33 0 -75 -34.5 q-42 -34.5 -75 -88.5 l-114 -185 l0 -224 q0 -31 5.5 -45 q5.5 -14 21 -19 q15.5 -5 49.5 -5 q3 0 3 -6 q0 -6 -3 -6 q-33 0 -51 1 l-73 1 l-72 -1 q-20 -1 -53 -1 q-2 0 -2 6 q0 6 2 6 q34 0 49.5 5 q15.5 5 21.5 19.5 q6 14.5 6 44.5 l0 206 l-152 232 q-34 53 -58.5 73.5 q-24.5 20.5 -47.5 20.5 q-3 0 -3 6 q0 6 3 6 l33 -1 q22 -2 32 -2 q34 0 96 2 l62 1 q2 0 2 -6 q0 -6 -2 -6 q-41 0 -41 -28 q0 -14 12 -32 l145 -223 l102 167 q25 41 25 72 q0 44 -55 44 q-2 0 -2 6 q0 6 2 6 l52 -1 q42 -2 77 -2 q17 0 41 2 l37 1 Z" /><glyph glyph-name="uni0232" unicode="&#x232;" d="M196 716 q-4 0 -6 5.5 q-2 5.5 -2 11.5 q0 7 2 12 q2 5 6 5 l251 0 q4 0 6.5 -5 q2.5 -5 2.5 -12 q0 -7 -2.5 -12 q-2.5 -5 -6.5 -5 l-251 0 ZM621 625 q2 0 2 -6 q0 -6 -2 -6 q-33 0 -75 -34.5 q-42 -34.5 -75 -88.5 l-114 -185 l0 -224 q0 -31 5.5 -45 q5.5 -14 21 -19 q15.5 -5 49.5 -5 q3 0 3 -6 q0 -6 -3 -6 q-33 0 -51 1 l-73 1 l-72 -1 q-20 -1 -53 -1 q-2 0 -2 6 q0 6 2 6 q34 0 49.5 5 q15.5 5 21.5 19.5 q6 14.5 6 44.5 l0 206 l-152 232 q-34 53 -58.5 73.5 q-24.5 20.5 -47.5 20.5 q-3 0 -3 6 q0 6 3 6 l33 -1 q22 -2 32 -2 q34 0 96 2 l62 1 q2 0 2 -6 q0 -6 -2 -6 q-41 0 -41 -28 q0 -14 12 -32 l145 -223 l102 167 q25 41 25 72 q0 44 -55 44 q-2 0 -2 6 q0 6 2 6 l52 -1 q42 -2 77 -2 q17 0 41 2 l37 1 Z" /><glyph glyph-name="uni1EF8" unicode="&#x1ef8;" d="M199 697 q-3 0 -5.5 2.5 q-2.5 2.5 -0.5 4.5 q43 75 87 75 q11 0 47 -10 q46 -14 75 -14 q17 0 27.5 6 q10.5 6 22.5 21 l1 0 q3 0 5.5 -2.5 q2.5 -2.5 0.5 -4.5 q-26 -45 -43 -60 q-17 -15 -38 -15 q-16 0 -34.5 5 q-18.5 5 -23.5 6 q-17 5 -35 9 q-18 4 -34 4 q-17 0 -25.5 -4.5 q-8.5 -4.5 -15.5 -12 q-7 -7.5 -10 -10.5 l-1 0 ZM621 625 q2 0 2 -6 q0 -6 -2 -6 q-33 0 -75 -34.5 q-42 -34.5 -75 -88.5 l-114 -185 l0 -224 q0 -31 5.5 -45 q5.5 -14 21 -19 q15.5 -5 49.5 -5 q3 0 3 -6 q0 -6 -3 -6 q-33 0 -51 1 l-73 1 l-72 -1 q-20 -1 -53 -1 q-2 0 -2 6 q0 6 2 6 q34 0 49.5 5 q15.5 5 21.5 19.5 q6 14.5 6 44.5 l0 206 l-152 232 q-34 53 -58.5 73.5 q-24.5 20.5 -47.5 20.5 q-3 0 -3 6 q0 6 3 6 l33 -1 q22 -2 32 -2 q34 0 96 2 l62 1 q2 0 2 -6 q0 -6 -2 -6 q-41 0 -41 -28 q0 -14 12 -32 l145 -223 l102 167 q25 41 25 72 q0 44 -55 44 q-2 0 -2 6 q0 6 2 6 l52 -1 q42 -2 77 -2 q17 0 41 2 l37 1 Z" /><glyph glyph-name="Z" unicode="z" d="M424 600 q3 5 2.5 6.5 q-0.5 1.5 -7.5 1.5 q-134 0 -196 -7.5 q-62 -7.5 -96 -33 q-34 -25.5 -60 -83.5 q0 -1 -4 -1 q-9 0 -8 4 l40 168 q0 1 4 1 q10 0 8 -3 q-1 -3 -1 -8 q0 -12 11.5 -16 q11.5 -4 46.5 -4 l365 0 q5 0 7.5 -5 q2.5 -5 -0.5 -8 l-360 -585 q-4 -5 -3 -6.5 q1 -1.5 7 -1.5 l220 0 q58 0 101 36 q43 36 53 92 q1 3 6 3 q5 0 5 -3 l-14 -139 q0 -3 -2.5 -6.5 q-2.5 -3.5 -6.5 -3.5 q-149 2 -478 2 q-5 0 -7 4.5 q-2 4.5 1 8.5 l366 587 Z" /><glyph glyph-name="Zacute" unicode="&#x179;" d="M218 678 q-4 0 -5 4.5 q-1 4.5 2 6.5 q32 19 88 63 q46 35 50 38 q5 4 32 -4 q27 -8 47.5 -18 q20.5 -10 9.5 -12 q-62 -15 -113.5 -33.5 q-51.5 -18.5 -108.5 -43.5 l-2 -1 ZM424 600 q3 5 2.5 6.5 q-0.5 1.5 -7.5 1.5 q-134 0 -196 -7.5 q-62 -7.5 -96 -33 q-34 -25.5 -60 -83.5 q0 -1 -4 -1 q-9 0 -8 4 l40 168 q0 1 4 1 q10 0 8 -3 q-1 -3 -1 -8 q0 -12 11.5 -16 q11.5 -4 46.5 -4 l365 0 q5 0 7.5 -5 q2.5 -5 -0.5 -8 l-360 -585 q-4 -5 -3 -6.5 q1 -1.5 7 -1.5 l220 0 q58 0 101 36 q43 36 53 92 q1 3 6 3 q5 0 5 -3 l-14 -139 q0 -3 -2.5 -6.5 q-2.5 -3.5 -6.5 -3.5 q-149 2 -478 2 q-5 0 -7 4.5 q-2 4.5 1 8.5 l366 587 Z" /><glyph glyph-name="Zcaron" unicode="&#x17d;" d="M202 796 l0 1 q0 3 2.5 5.5 q2.5 2.5 3.5 0.5 l109 -45 l108 46 l1 0 q3 0 4.5 -2.5 q1.5 -2.5 -0.5 -4.5 l-102 -110 q-4 -4 -11 -4 q-8 0 -12 4 l-103 109 ZM424 600 q3 5 2.5 6.5 q-0.5 1.5 -7.5 1.5 q-134 0 -196 -7.5 q-62 -7.5 -96 -33 q-34 -25.5 -60 -83.5 q0 -1 -4 -1 q-9 0 -8 4 l40 168 q0 1 4 1 q10 0 8 -3 q-1 -3 -1 -8 q0 -12 11.5 -16 q11.5 -4 46.5 -4 l365 0 q5 0 7.5 -5 q2.5 -5 -0.5 -8 l-360 -585 q-4 -5 -3 -6.5 q1 -1.5 7 -1.5 l220 0 q58 0 101 36 q43 36 53 92 q1 3 6 3 q5 0 5 -3 l-14 -139 q0 -3 -2.5 -6.5 q-2.5 -3.5 -6.5 -3.5 q-149 2 -478 2 q-5 0 -7 4.5 q-2 4.5 1 8.5 l366 587 Z" /><glyph glyph-name="Zdotaccent" unicode="&#x17b;" d="M318 713 q-26 0 -40.5 14.5 q-14.5 14.5 -14.5 40.5 q0 24 14.5 38.5 q14.5 14.5 40.5 14.5 q25 0 39 -14.5 q14 -14.5 14 -38.5 q0 -26 -14 -40.5 q-14 -14.5 -39 -14.5 ZM424 600 q3 5 2.5 6.5 q-0.5 1.5 -7.5 1.5 q-134 0 -196 -7.5 q-62 -7.5 -96 -33 q-34 -25.5 -60 -83.5 q0 -1 -4 -1 q-9 0 -8 4 l40 168 q0 1 4 1 q10 0 8 -3 q-1 -3 -1 -8 q0 -12 11.5 -16 q11.5 -4 46.5 -4 l365 0 q5 0 7.5 -5 q2.5 -5 -0.5 -8 l-360 -585 q-4 -5 -3 -6.5 q1 -1.5 7 -1.5 l220 0 q58 0 101 36 q43 36 53 92 q1 3 6 3 q5 0 5 -3 l-14 -139 q0 -3 -2.5 -6.5 q-2.5 -3.5 -6.5 -3.5 q-149 2 -478 2 q-5 0 -7 4.5 q-2 4.5 1 8.5 l366 587 Z" /><glyph glyph-name="uni1E92" unicode="&#x1e92;" d="M424 600 q3 5 2.5 6.5 q-0.5 1.5 -7.5 1.5 q-134 0 -196 -7.5 q-62 -7.5 -96 -33 q-34 -25.5 -60 -83.5 q0 -1 -4 -1 q-9 0 -8 4 l40 168 q0 1 4 1 q10 0 8 -3 q-1 -3 -1 -8 q0 -12 11.5 -16 q11.5 -4 46.5 -4 l365 0 q5 0 7.5 -5 q2.5 -5 -0.5 -8 l-360 -585 q-4 -5 -3 -6.5 q1 -1.5 7 -1.5 l220 0 q58 0 101 36 q43 36 53 92 q1 3 6 3 q5 0 5 -3 l-14 -139 q0 -3 -2.5 -6.5 q-2.5 -3.5 -6.5 -3.5 q-149 2 -478 2 q-5 0 -7 4.5 q-2 4.5 1 8.5 l366 587 ZM302 -201 q-26 0 -40.5 14 q-14.5 14 -14.5 40 q0 25 14.5 38.5 q14.5 13.5 40.5 13.5 q25 0 39 -13.5 q14 -13.5 14 -38.5 q0 -26 -13.5 -40 q-13.5 -14 -39.5 -14 Z" /><glyph glyph-name="a" unicode="a" d="M557 12 q4 0 4 -6 q0 -6 -4 -6 q-20 0 -62 2 q-42 2 -60 2 q-16 0 -50 -2 q-32 -2 -45 -2 q-4 0 -4 6 q0 6 4 6 q24 0 34.5 6 q10.5 6 10.5 19 q0 14 -15 47 l-63 135 l-124 0 l-40 -96 q-17 -42 -17 -64 q0 -25 17.5 -36 q17.5 -11 53.5 -11 q5 0 5 -6 q0 -6 -5 -6 q-14 0 -40 2 q-28 2 -52 2 q-25 0 -59 -2 q-30 -2 -49 -2 q-5 0 -5 6 q0 6 5 6 q31 0 50 9 q19 9 35 33.5 q16 24.5 38 77.5 l148 351 q2 4 6 4 q4 0 5 -4 l161 -346 q25 -54 41.5 -80 q16.5 -26 33 -35.5 q16.5 -9.5 42.5 -9.5 ZM192 242 l104 0 l-55 118 l-49 -118 Z" /><glyph glyph-name="aacute" unicode="á" d="M178 521 q-4 0 -5 4.5 q-1 4.5 2 6.5 q32 19 88 63 q46 35 50 38 q5 4 32 -4 q27 -8 47.5 -18 q20.5 -10 9.5 -12 q-62 -15 -113.5 -33.5 q-51.5 -18.5 -108.5 -43.5 l-2 -1 ZM557 12 q4 0 4 -6 q0 -6 -4 -6 q-20 0 -62 2 q-42 2 -60 2 q-16 0 -50 -2 q-32 -2 -45 -2 q-4 0 -4 6 q0 6 4 6 q24 0 34.5 6 q10.5 6 10.5 19 q0 14 -15 47 l-63 135 l-124 0 l-40 -96 q-17 -42 -17 -64 q0 -25 17.5 -36 q17.5 -11 53.5 -11 q5 0 5 -6 q0 -6 -5 -6 q-14 0 -40 2 q-28 2 -52 2 q-25 0 -59 -2 q-30 -2 -49 -2 q-5 0 -5 6 q0 6 5 6 q31 0 50 9 q19 9 35 33.5 q16 24.5 38 77.5 l148 351 q2 4 6 4 q4 0 5 -4 l161 -346 q25 -54 41.5 -80 q16.5 -26 33 -35.5 q16.5 -9.5 42.5 -9.5 ZM192 242 l104 0 l-55 118 l-49 -118 Z" /><glyph glyph-name="abreve" unicode="&#x103;" d="M272 533 q-50 0 -76.5 31 q-26.5 31 -26.5 89 q0 4 5.5 4.5 q5.5 0.5 5.5 -2.5 q0 -21 27 -38.5 q27 -17.5 65 -17.5 q37 0 64 17.5 q27 17.5 27 38.5 q0 3 5.5 2.5 q5.5 -0.5 5.5 -4.5 q0 -58 -26 -89 q-26 -31 -76 -31 ZM557 12 q4 0 4 -6 q0 -6 -4 -6 q-20 0 -62 2 q-42 2 -60 2 q-16 0 -50 -2 q-32 -2 -45 -2 q-4 0 -4 6 q0 6 4 6 q24 0 34.5 6 q10.5 6 10.5 19 q0 14 -15 47 l-63 135 l-124 0 l-40 -96 q-17 -42 -17 -64 q0 -25 17.5 -36 q17.5 -11 53.5 -11 q5 0 5 -6 q0 -6 -5 -6 q-14 0 -40 2 q-28 2 -52 2 q-25 0 -59 -2 q-30 -2 -49 -2 q-5 0 -5 6 q0 6 5 6 q31 0 50 9 q19 9 35 33.5 q16 24.5 38 77.5 l148 351 q2 4 6 4 q4 0 5 -4 l161 -346 q25 -54 41.5 -80 q16.5 -26 33 -35.5 q16.5 -9.5 42.5 -9.5 ZM192 242 l104 0 l-55 118 l-49 -118 Z" /><glyph glyph-name="uni1EAF" unicode="&#x1eaf;" d="M215 625 q-1 -1 -3 -1 q-3 0 -5 4 q-2 4 0 6 q36 50 64 102 q3 5 30 -2 q27 -7 48.5 -18 q21.5 -11 11.5 -14 q-41 -15 -74.5 -33.5 q-33.5 -18.5 -71.5 -43.5 ZM272 519 q-48 0 -74.5 30.5 q-26.5 30.5 -28.5 88.5 q0 4 5 4.5 q5 0.5 6 -2.5 q2 -22 29 -39 q27 -17 63 -17 q35 0 62 17 q27 17 29 39 q0 2 4 2 q7 0 7 -4 q-2 -58 -28 -88.5 q-26 -30.5 -74 -30.5 ZM557 12 q4 0 4 -6 q0 -6 -4 -6 q-20 0 -62 2 q-42 2 -60 2 q-16 0 -50 -2 q-32 -2 -45 -2 q-4 0 -4 6 q0 6 4 6 q24 0 34.5 6 q10.5 6 10.5 19 q0 14 -15 47 l-63 135 l-124 0 l-40 -96 q-17 -42 -17 -64 q0 -25 17.5 -36 q17.5 -11 53.5 -11 q5 0 5 -6 q0 -6 -5 -6 q-14 0 -40 2 q-28 2 -52 2 q-25 0 -59 -2 q-30 -2 -49 -2 q-5 0 -5 6 q0 6 5 6 q31 0 50 9 q19 9 35 33.5 q16 24.5 38 77.5 l148 351 q2 4 6 4 q4 0 5 -4 l161 -346 q25 -54 41.5 -80 q16.5 -26 33 -35.5 q16.5 -9.5 42.5 -9.5 ZM192 242 l104 0 l-55 118 l-49 -118 Z" /><glyph glyph-name="uni1EB7" unicode="&#x1eb7;" d="M272 533 q-50 0 -76.5 31 q-26.5 31 -26.5 89 q0 4 5.5 4.5 q5.5 0.5 5.5 -2.5 q0 -21 27 -38.5 q27 -17.5 65 -17.5 q37 0 64 17.5 q27 17.5 27 38.5 q0 3 5.5 2.5 q5.5 -0.5 5.5 -4.5 q0 -58 -26 -89 q-26 -31 -76 -31 ZM557 12 q4 0 4 -6 q0 -6 -4 -6 q-20 0 -62 2 q-42 2 -60 2 q-16 0 -50 -2 q-32 -2 -45 -2 q-4 0 -4 6 q0 6 4 6 q24 0 34.5 6 q10.5 6 10.5 19 q0 14 -15 47 l-63 135 l-124 0 l-40 -96 q-17 -42 -17 -64 q0 -25 17.5 -36 q17.5 -11 53.5 -11 q5 0 5 -6 q0 -6 -5 -6 q-14 0 -40 2 q-28 2 -52 2 q-25 0 -59 -2 q-30 -2 -49 -2 q-5 0 -5 6 q0 6 5 6 q31 0 50 9 q19 9 35 33.5 q16 24.5 38 77.5 l148 351 q2 4 6 4 q4 0 5 -4 l161 -346 q25 -54 41.5 -80 q16.5 -26 33 -35.5 q16.5 -9.5 42.5 -9.5 ZM192 242 l104 0 l-55 118 l-49 -118 ZM272 -95 q25 0 39 -13.5 q14 -13.5 14 -38.5 q0 -26 -13.5 -40 q-13.5 -14 -39.5 -14 q-26 0 -40.5 14 q-14.5 14 -14.5 40 q0 25 14.5 38.5 q14.5 13.5 40.5 13.5 Z" /><glyph glyph-name="uni1EB1" unicode="&#x1eb1;" d="M179 702 q-10 3 11 14 q21 11 48 18 q27 7 30 2 q35 -62 62 -101 q1 -1 1 -4 q0 -3 -2.5 -5 q-2.5 -2 -6.5 -1 q-38 25 -70.5 43 q-32.5 18 -72.5 34 ZM271 519 q-48 0 -74.5 30.5 q-26.5 30.5 -28.5 88.5 q0 4 5 4.5 q5 0.5 6 -2.5 q2 -22 29 -39 q27 -17 63 -17 q35 0 62 17 q27 17 29 39 q0 2 4 2 q7 0 7 -4 q-2 -58 -28 -88.5 q-26 -30.5 -74 -30.5 ZM557 12 q4 0 4 -6 q0 -6 -4 -6 q-20 0 -62 2 q-42 2 -60 2 q-16 0 -50 -2 q-32 -2 -45 -2 q-4 0 -4 6 q0 6 4 6 q24 0 34.5 6 q10.5 6 10.5 19 q0 14 -15 47 l-63 135 l-124 0 l-40 -96 q-17 -42 -17 -64 q0 -25 17.5 -36 q17.5 -11 53.5 -11 q5 0 5 -6 q0 -6 -5 -6 q-14 0 -40 2 q-28 2 -52 2 q-25 0 -59 -2 q-30 -2 -49 -2 q-5 0 -5 6 q0 6 5 6 q31 0 50 9 q19 9 35 33.5 q16 24.5 38 77.5 l148 351 q2 4 6 4 q4 0 5 -4 l161 -346 q25 -54 41.5 -80 q16.5 -26 33 -35.5 q16.5 -9.5 42.5 -9.5 ZM192 242 l104 0 l-55 118 l-49 -118 Z" /><glyph glyph-name="uni1EB3" unicode="&#x1eb3;" d="M228 729 q-2 0 -4.5 3.5 q-2.5 3.5 -0.5 5.5 q29 18 61 18 q24 0 38.5 -12.5 q14.5 -12.5 14.5 -30.5 q0 -14 -9 -25.5 q-9 -11.5 -26 -26.5 q-16 -15 -23.5 -25 q-7.5 -10 -6.5 -21 q1 -2 -4.5 -2.5 q-5.5 -0.5 -6.5 2.5 q-2 10 -2 13 q0 9 3.5 19.5 q3.5 10.5 7.5 19.5 q11 22 11 36 q0 15 -9.5 23 q-9.5 8 -21.5 8 q-8 0 -20 -4 l-2 -1 ZM273 519 q-48 0 -74.5 30.5 q-26.5 30.5 -28.5 88.5 q0 4 5 4.5 q5 0.5 6 -2.5 q2 -22 29 -39 q27 -17 63 -17 q35 0 62 17 q27 17 29 39 q0 2 4 2 q7 0 7 -4 q-2 -58 -28 -88.5 q-26 -30.5 -74 -30.5 ZM557 12 q4 0 4 -6 q0 -6 -4 -6 q-20 0 -62 2 q-42 2 -60 2 q-16 0 -50 -2 q-32 -2 -45 -2 q-4 0 -4 6 q0 6 4 6 q24 0 34.5 6 q10.5 6 10.5 19 q0 14 -15 47 l-63 135 l-124 0 l-40 -96 q-17 -42 -17 -64 q0 -25 17.5 -36 q17.5 -11 53.5 -11 q5 0 5 -6 q0 -6 -5 -6 q-14 0 -40 2 q-28 2 -52 2 q-25 0 -59 -2 q-30 -2 -49 -2 q-5 0 -5 6 q0 6 5 6 q31 0 50 9 q19 9 35 33.5 q16 24.5 38 77.5 l148 351 q2 4 6 4 q4 0 5 -4 l161 -346 q25 -54 41.5 -80 q16.5 -26 33 -35.5 q16.5 -9.5 42.5 -9.5 ZM192 242 l104 0 l-55 118 l-49 -118 Z" /><glyph glyph-name="uni1EB5" unicode="&#x1eb5;" d="M147 648 q-3 0 -5.5 2.5 q-2.5 2.5 -0.5 4.5 q44 75 86 75 q11 0 49 -10 q49 -15 74 -15 q16 0 27 6.5 q11 6.5 23 20.5 l2 1 q2 0 4 -3 q2 -3 1 -5 q-26 -44 -43 -59 q-17 -15 -39 -15 q-20 0 -57 11 q-17 5 -35.5 9 q-18.5 4 -34.5 4 q-19 0 -27 -5.5 q-8 -5.5 -23 -21.5 l-1 0 ZM364 635 q0 3 5.5 2.5 q5.5 -0.5 5.5 -4.5 q-2 -58 -28 -89 q-26 -31 -74 -31 q-48 0 -74.5 31 q-26.5 31 -28.5 89 q0 4 5 4 q5 0 6 -2 q2 -21 29 -38.5 q27 -17.5 63 -17.5 q35 0 62 17.5 q27 17.5 29 38.5 ZM557 12 q4 0 4 -6 q0 -6 -4 -6 q-20 0 -62 2 q-42 2 -60 2 q-16 0 -50 -2 q-32 -2 -45 -2 q-4 0 -4 6 q0 6 4 6 q24 0 34.5 6 q10.5 6 10.5 19 q0 14 -15 47 l-63 135 l-124 0 l-40 -96 q-17 -42 -17 -64 q0 -25 17.5 -36 q17.5 -11 53.5 -11 q5 0 5 -6 q0 -6 -5 -6 q-14 0 -40 2 q-28 2 -52 2 q-25 0 -59 -2 q-30 -2 -49 -2 q-5 0 -5 6 q0 6 5 6 q31 0 50 9 q19 9 35 33.5 q16 24.5 38 77.5 l148 351 q2 4 6 4 q4 0 5 -4 l161 -346 q25 -54 41.5 -80 q16.5 -26 33 -35.5 q16.5 -9.5 42.5 -9.5 ZM192 242 l104 0 l-55 118 l-49 -118 Z" /><glyph glyph-name="uni01CE" unicode="&#x1ce;" d="M157 640 q-1 0 -1 0.5 q0 0.5 0 0.5 q0 2 2.5 4.5 q2.5 2.5 4.5 1.5 l109 -46 l108 46 l1 0 q3 0 4.5 -2.5 q1.5 -2.5 -0.5 -4.5 l-102 -110 q-4 -4 -11 -4 q-8 0 -12 4 l-103 110 ZM557 12 q4 0 4 -6 q0 -6 -4 -6 q-20 0 -62 2 q-42 2 -60 2 q-16 0 -50 -2 q-32 -2 -45 -2 q-4 0 -4 6 q0 6 4 6 q24 0 34.5 6 q10.5 6 10.5 19 q0 14 -15 47 l-63 135 l-124 0 l-40 -96 q-17 -42 -17 -64 q0 -25 17.5 -36 q17.5 -11 53.5 -11 q5 0 5 -6 q0 -6 -5 -6 q-14 0 -40 2 q-28 2 -52 2 q-25 0 -59 -2 q-30 -2 -49 -2 q-5 0 -5 6 q0 6 5 6 q31 0 50 9 q19 9 35 33.5 q16 24.5 38 77.5 l148 351 q2 4 6 4 q4 0 5 -4 l161 -346 q25 -54 41.5 -80 q16.5 -26 33 -35.5 q16.5 -9.5 42.5 -9.5 ZM192 242 l104 0 l-55 118 l-49 -118 Z" /><glyph glyph-name="acircumflex" unicode="â" d="M164 526 q-2 -1 -5 2.5 q-3 3.5 -1 4.5 l103 110 q5 5 12 5 q6 0 11 -5 l102 -110 q1 0 1 -2 q0 -2 -2.5 -4 q-2.5 -2 -3.5 -1 l-108 45 l-109 -45 ZM557 12 q4 0 4 -6 q0 -6 -4 -6 q-20 0 -62 2 q-42 2 -60 2 q-16 0 -50 -2 q-32 -2 -45 -2 q-4 0 -4 6 q0 6 4 6 q24 0 34.5 6 q10.5 6 10.5 19 q0 14 -15 47 l-63 135 l-124 0 l-40 -96 q-17 -42 -17 -64 q0 -25 17.5 -36 q17.5 -11 53.5 -11 q5 0 5 -6 q0 -6 -5 -6 q-14 0 -40 2 q-28 2 -52 2 q-25 0 -59 -2 q-30 -2 -49 -2 q-5 0 -5 6 q0 6 5 6 q31 0 50 9 q19 9 35 33.5 q16 24.5 38 77.5 l148 351 q2 4 6 4 q4 0 5 -4 l161 -346 q25 -54 41.5 -80 q16.5 -26 33 -35.5 q16.5 -9.5 42.5 -9.5 ZM192 242 l104 0 l-55 118 l-49 -118 Z" /><glyph glyph-name="uni1EA5" unicode="&#x1ea5;" d="M338 595 q-1 -1 -3 -1 q-3 0 -5 4 q-2 4 0 6 q36 50 64 102 q3 5 30 -2 q27 -7 48.5 -18 q21.5 -11 11.5 -14 q-41 -15 -74.5 -33.5 q-33.5 -18.5 -71.5 -43.5 ZM163 503 q-2 -1 -5 2.5 q-3 3.5 -1 4.5 l103 110 q5 5 12 5 q6 0 11 -5 l102 -110 q1 0 1 -2 q0 -2 -2.5 -4 q-2.5 -2 -3.5 -1 l-108 45 l-109 -45 ZM557 12 q4 0 4 -6 q0 -6 -4 -6 q-20 0 -62 2 q-42 2 -60 2 q-16 0 -50 -2 q-32 -2 -45 -2 q-4 0 -4 6 q0 6 4 6 q24 0 34.5 6 q10.5 6 10.5 19 q0 14 -15 47 l-63 135 l-124 0 l-40 -96 q-17 -42 -17 -64 q0 -25 17.5 -36 q17.5 -11 53.5 -11 q5 0 5 -6 q0 -6 -5 -6 q-14 0 -40 2 q-28 2 -52 2 q-25 0 -59 -2 q-30 -2 -49 -2 q-5 0 -5 6 q0 6 5 6 q31 0 50 9 q19 9 35 33.5 q16 24.5 38 77.5 l148 351 q2 4 6 4 q4 0 5 -4 l161 -346 q25 -54 41.5 -80 q16.5 -26 33 -35.5 q16.5 -9.5 42.5 -9.5 ZM192 242 l104 0 l-55 118 l-49 -118 Z" /><glyph glyph-name="uni1EAD" unicode="&#x1ead;" d="M163 491 q-2 -1 -5 2.5 q-3 3.5 -1 4.5 l103 110 q5 5 12 5 q6 0 11 -5 l102 -110 q1 0 1 -2 q0 -2 -2.5 -4 q-2.5 -2 -3.5 -1 l-108 45 l-109 -45 ZM557 12 q4 0 4 -6 q0 -6 -4 -6 q-20 0 -62 2 q-42 2 -60 2 q-16 0 -50 -2 q-32 -2 -45 -2 q-4 0 -4 6 q0 6 4 6 q24 0 34.5 6 q10.5 6 10.5 19 q0 14 -15 47 l-63 135 l-124 0 l-40 -96 q-17 -42 -17 -64 q0 -25 17.5 -36 q17.5 -11 53.5 -11 q5 0 5 -6 q0 -6 -5 -6 q-14 0 -40 2 q-28 2 -52 2 q-25 0 -59 -2 q-30 -2 -49 -2 q-5 0 -5 6 q0 6 5 6 q31 0 50 9 q19 9 35 33.5 q16 24.5 38 77.5 l148 351 q2 4 6 4 q4 0 5 -4 l161 -346 q25 -54 41.5 -80 q16.5 -26 33 -35.5 q16.5 -9.5 42.5 -9.5 ZM192 242 l104 0 l-55 118 l-49 -118 ZM272 -95 q25 0 39 -13.5 q14 -13.5 14 -38.5 q0 -26 -13.5 -40 q-13.5 -14 -39.5 -14 q-26 0 -40.5 14 q-14.5 14 -14.5 40 q0 25 14.5 38.5 q14.5 13.5 40.5 13.5 Z" /><glyph glyph-name="uni1EA7" unicode="&#x1ea7;" d="M287 650 q-10 3 11 14 q21 11 48 18 q27 7 30 2 q35 -62 62 -101 q1 -1 1 -4 q0 -3 -2.5 -5 q-2.5 -2 -6.5 -1 q-38 25 -70.5 43 q-32.5 18 -72.5 34 ZM163 503 q-2 -1 -5 2.5 q-3 3.5 -1 4.5 l103 110 q5 5 12 5 q6 0 11 -5 l102 -110 q1 0 1 -2 q0 -2 -2.5 -4 q-2.5 -2 -3.5 -1 l-108 45 l-109 -45 ZM557 12 q4 0 4 -6 q0 -6 -4 -6 q-20 0 -62 2 q-42 2 -60 2 q-16 0 -50 -2 q-32 -2 -45 -2 q-4 0 -4 6 q0 6 4 6 q24 0 34.5 6 q10.5 6 10.5 19 q0 14 -15 47 l-63 135 l-124 0 l-40 -96 q-17 -42 -17 -64 q0 -25 17.5 -36 q17.5 -11 53.5 -11 q5 0 5 -6 q0 -6 -5 -6 q-14 0 -40 2 q-28 2 -52 2 q-25 0 -59 -2 q-30 -2 -49 -2 q-5 0 -5 6 q0 6 5 6 q31 0 50 9 q19 9 35 33.5 q16 24.5 38 77.5 l148 351 q2 4 6 4 q4 0 5 -4 l161 -346 q25 -54 41.5 -80 q16.5 -26 33 -35.5 q16.5 -9.5 42.5 -9.5 ZM192 242 l104 0 l-55 118 l-49 -118 Z" /><glyph glyph-name="uni1EA9" unicode="&#x1ea9;" d="M326 695 q-2 0 -4.5 3.5 q-2.5 3.5 -0.5 5.5 q29 18 61 18 q24 0 38.5 -12.5 q14.5 -12.5 14.5 -30.5 q0 -14 -9 -25.5 q-9 -11.5 -26 -26.5 q-16 -15 -23.5 -25 q-7.5 -10 -6.5 -21 q1 -2 -4.5 -2.5 q-5.5 -0.5 -6.5 2.5 q-2 10 -2 13 q0 9 3.5 19.5 q3.5 10.5 7.5 19.5 q11 22 11 36 q0 15 -9.5 23 q-9.5 8 -21.5 8 q-8 0 -20 -4 l-2 -1 ZM163 503 q-2 -1 -5 2.5 q-3 3.5 -1 4.5 l103 110 q5 5 12 5 q6 0 11 -5 l102 -110 q1 0 1 -2 q0 -2 -2.5 -4 q-2.5 -2 -3.5 -1 l-108 45 l-109 -45 ZM557 12 q4 0 4 -6 q0 -6 -4 -6 q-20 0 -62 2 q-42 2 -60 2 q-16 0 -50 -2 q-32 -2 -45 -2 q-4 0 -4 6 q0 6 4 6 q24 0 34.5 6 q10.5 6 10.5 19 q0 14 -15 47 l-63 135 l-124 0 l-40 -96 q-17 -42 -17 -64 q0 -25 17.5 -36 q17.5 -11 53.5 -11 q5 0 5 -6 q0 -6 -5 -6 q-14 0 -40 2 q-28 2 -52 2 q-25 0 -59 -2 q-30 -2 -49 -2 q-5 0 -5 6 q0 6 5 6 q31 0 50 9 q19 9 35 33.5 q16 24.5 38 77.5 l148 351 q2 4 6 4 q4 0 5 -4 l161 -346 q25 -54 41.5 -80 q16.5 -26 33 -35.5 q16.5 -9.5 42.5 -9.5 ZM192 242 l104 0 l-55 118 l-49 -118 Z" /><glyph glyph-name="uni1EAB" unicode="&#x1eab;" d="M153 637 q-3 0 -5.5 2.5 q-2.5 2.5 -0.5 4.5 q44 75 86 75 q11 0 49 -10 q49 -15 74 -15 q16 0 27 6.5 q11 6.5 23 20.5 l2 1 q2 0 4 -3 q2 -3 1 -5 q-26 -44 -43 -59 q-17 -15 -39 -15 q-20 0 -57 11 q-17 5 -35.5 9 q-18.5 4 -34.5 4 q-19 0 -27 -5.5 q-8 -5.5 -23 -21.5 l-1 0 ZM385 510 q1 0 1 -2 q0 -2 -2.5 -4 q-2.5 -2 -3.5 -1 l-108 45 l-109 -45 q-2 -1 -5 2.5 q-3 3.5 -1 4.5 l103 110 q5 5 12 5 q6 0 11 -5 l102 -110 ZM557 12 q4 0 4 -6 q0 -6 -4 -6 q-20 0 -62 2 q-42 2 -60 2 q-16 0 -50 -2 q-32 -2 -45 -2 q-4 0 -4 6 q0 6 4 6 q24 0 34.5 6 q10.5 6 10.5 19 q0 14 -15 47 l-63 135 l-124 0 l-40 -96 q-17 -42 -17 -64 q0 -25 17.5 -36 q17.5 -11 53.5 -11 q5 0 5 -6 q0 -6 -5 -6 q-14 0 -40 2 q-28 2 -52 2 q-25 0 -59 -2 q-30 -2 -49 -2 q-5 0 -5 6 q0 6 5 6 q31 0 50 9 q19 9 35 33.5 q16 24.5 38 77.5 l148 351 q2 4 6 4 q4 0 5 -4 l161 -346 q25 -54 41.5 -80 q16.5 -26 33 -35.5 q16.5 -9.5 42.5 -9.5 ZM192 242 l104 0 l-55 118 l-49 -118 Z" /><glyph glyph-name="adieresis" unicode="ä" d="M186 551 q-24 0 -37.5 13 q-13.5 13 -13.5 37 q0 23 13.5 35.5 q13.5 12.5 37.5 12.5 q23 0 35.5 -12.5 q12.5 -12.5 12.5 -35.5 q0 -24 -12.5 -37 q-12.5 -13 -35.5 -13 ZM360 551 q-23 0 -36.5 13 q-13.5 13 -13.5 37 q0 22 13.5 35 q13.5 13 36.5 13 q23 0 36 -12.5 q13 -12.5 13 -35.5 q0 -24 -13 -37 q-13 -13 -36 -13 ZM557 12 q4 0 4 -6 q0 -6 -4 -6 q-20 0 -62 2 q-42 2 -60 2 q-16 0 -50 -2 q-32 -2 -45 -2 q-4 0 -4 6 q0 6 4 6 q24 0 34.5 6 q10.5 6 10.5 19 q0 14 -15 47 l-63 135 l-124 0 l-40 -96 q-17 -42 -17 -64 q0 -25 17.5 -36 q17.5 -11 53.5 -11 q5 0 5 -6 q0 -6 -5 -6 q-14 0 -40 2 q-28 2 -52 2 q-25 0 -59 -2 q-30 -2 -49 -2 q-5 0 -5 6 q0 6 5 6 q31 0 50 9 q19 9 35 33.5 q16 24.5 38 77.5 l148 351 q2 4 6 4 q4 0 5 -4 l161 -346 q25 -54 41.5 -80 q16.5 -26 33 -35.5 q16.5 -9.5 42.5 -9.5 ZM192 242 l104 0 l-55 118 l-49 -118 Z" /><glyph glyph-name="uni1EA1" unicode="&#x1ea1;" d="M557 12 q4 0 4 -6 q0 -6 -4 -6 q-20 0 -62 2 q-42 2 -60 2 q-16 0 -50 -2 q-32 -2 -45 -2 q-4 0 -4 6 q0 6 4 6 q24 0 34.5 6 q10.5 6 10.5 19 q0 14 -15 47 l-63 135 l-124 0 l-40 -96 q-17 -42 -17 -64 q0 -25 17.5 -36 q17.5 -11 53.5 -11 q5 0 5 -6 q0 -6 -5 -6 q-14 0 -40 2 q-28 2 -52 2 q-25 0 -59 -2 q-30 -2 -49 -2 q-5 0 -5 6 q0 6 5 6 q31 0 50 9 q19 9 35 33.5 q16 24.5 38 77.5 l148 351 q2 4 6 4 q4 0 5 -4 l161 -346 q25 -54 41.5 -80 q16.5 -26 33 -35.5 q16.5 -9.5 42.5 -9.5 ZM192 242 l104 0 l-55 118 l-49 -118 ZM272 -95 q25 0 39 -13.5 q14 -13.5 14 -38.5 q0 -26 -13.5 -40 q-13.5 -14 -39.5 -14 q-26 0 -40.5 14 q-14.5 14 -14.5 40 q0 25 14.5 38.5 q14.5 13.5 40.5 13.5 Z" /><glyph glyph-name="agrave" unicode="à" d="M149 599 q-10 2 10.5 12 q20.5 10 47 18 q26.5 8 31.5 4 q30 -22 45 -34 q61 -46 93 -67 q2 -1 2 -4 q0 -3 -2 -5 q-2 -2 -4 -1 q-113 50 -223 77 ZM557 12 q4 0 4 -6 q0 -6 -4 -6 q-20 0 -62 2 q-42 2 -60 2 q-16 0 -50 -2 q-32 -2 -45 -2 q-4 0 -4 6 q0 6 4 6 q24 0 34.5 6 q10.5 6 10.5 19 q0 14 -15 47 l-63 135 l-124 0 l-40 -96 q-17 -42 -17 -64 q0 -25 17.5 -36 q17.5 -11 53.5 -11 q5 0 5 -6 q0 -6 -5 -6 q-14 0 -40 2 q-28 2 -52 2 q-25 0 -59 -2 q-30 -2 -49 -2 q-5 0 -5 6 q0 6 5 6 q31 0 50 9 q19 9 35 33.5 q16 24.5 38 77.5 l148 351 q2 4 6 4 q4 0 5 -4 l161 -346 q25 -54 41.5 -80 q16.5 -26 33 -35.5 q16.5 -9.5 42.5 -9.5 ZM192 242 l104 0 l-55 118 l-49 -118 Z" /><glyph glyph-name="uni1EA3" unicode="&#x1ea3;" d="M226 671 q-3 0 -5.5 3 q-2.5 3 0.5 6 q32 25 76 25 q31 0 49.5 -14.5 q18.5 -14.5 18.5 -38.5 q0 -19 -12 -36 q-12 -17 -35 -40 q-21 -21 -32 -36.5 q-11 -15.5 -10 -31.5 q0 -2 -5.5 -2 q-5.5 0 -6.5 2 q-2 8 -2 22 q0 16 4.5 29.5 q4.5 13.5 12.5 30.5 q1 3 8 19.5 q7 16.5 7 33.5 q0 18 -9 27.5 q-9 9.5 -24 9.5 q-16 0 -33 -9 l-2 0 ZM557 12 q4 0 4 -6 q0 -6 -4 -6 q-20 0 -62 2 q-42 2 -60 2 q-16 0 -50 -2 q-32 -2 -45 -2 q-4 0 -4 6 q0 6 4 6 q24 0 34.5 6 q10.5 6 10.5 19 q0 14 -15 47 l-63 135 l-124 0 l-40 -96 q-17 -42 -17 -64 q0 -25 17.5 -36 q17.5 -11 53.5 -11 q5 0 5 -6 q0 -6 -5 -6 q-14 0 -40 2 q-28 2 -52 2 q-25 0 -59 -2 q-30 -2 -49 -2 q-5 0 -5 6 q0 6 5 6 q31 0 50 9 q19 9 35 33.5 q16 24.5 38 77.5 l148 351 q2 4 6 4 q4 0 5 -4 l161 -346 q25 -54 41.5 -80 q16.5 -26 33 -35.5 q16.5 -9.5 42.5 -9.5 ZM192 242 l104 0 l-55 118 l-49 -118 Z" /><glyph glyph-name="uni0251" unicode="&#x251;" d="M557 12 q4 0 4 -6 q0 -6 -4 -6 q-20 0 -62 2 q-42 2 -60 2 q-16 0 -50 -2 q-32 -2 -45 -2 q-4 0 -4 6 q0 6 4 6 q24 0 34.5 6 q10.5 6 10.5 19 q0 14 -15 47 l-63 135 l-124 0 l-40 -96 q-17 -42 -17 -64 q0 -25 17.5 -36 q17.5 -11 53.5 -11 q5 0 5 -6 q0 -6 -5 -6 q-14 0 -40 2 q-28 2 -52 2 q-25 0 -59 -2 q-30 -2 -49 -2 q-5 0 -5 6 q0 6 5 6 q31 0 50 9 q19 9 35 33.5 q16 24.5 38 77.5 l148 351 q2 4 6 4 q4 0 5 -4 l161 -346 q25 -54 41.5 -80 q16.5 -26 33 -35.5 q16.5 -9.5 42.5 -9.5 ZM192 242 l104 0 l-55 118 l-49 -118 Z" /><glyph glyph-name="amacron" unicode="&#x101;" d="M146 559 q-4 0 -6 5.5 q-2 5.5 -2 11.5 q0 7 2 12 q2 5 6 5 l251 0 q4 0 6.5 -5 q2.5 -5 2.5 -12 q0 -7 -2.5 -12 q-2.5 -5 -6.5 -5 l-251 0 ZM557 12 q4 0 4 -6 q0 -6 -4 -6 q-20 0 -62 2 q-42 2 -60 2 q-16 0 -50 -2 q-32 -2 -45 -2 q-4 0 -4 6 q0 6 4 6 q24 0 34.5 6 q10.5 6 10.5 19 q0 14 -15 47 l-63 135 l-124 0 l-40 -96 q-17 -42 -17 -64 q0 -25 17.5 -36 q17.5 -11 53.5 -11 q5 0 5 -6 q0 -6 -5 -6 q-14 0 -40 2 q-28 2 -52 2 q-25 0 -59 -2 q-30 -2 -49 -2 q-5 0 -5 6 q0 6 5 6 q31 0 50 9 q19 9 35 33.5 q16 24.5 38 77.5 l148 351 q2 4 6 4 q4 0 5 -4 l161 -346 q25 -54 41.5 -80 q16.5 -26 33 -35.5 q16.5 -9.5 42.5 -9.5 ZM192 242 l104 0 l-55 118 l-49 -118 Z" /><glyph glyph-name="aogonek" unicode="&#x105;" d="M549 12 q4 0 4 -6 q0 -6 -4 -6 q-24 0 -60 2 l-47 1 q-48 0 -79 -37.5 q-31 -37.5 -31 -86.5 q0 -48 26.5 -83 q26.5 -35 68.5 -35 q13 0 22 3.5 q9 3.5 23 10.5 l1 0 q3 0 5.5 -3 q2.5 -3 0.5 -5 q-25 -22 -50 -32 q-25 -10 -54 -10 q-53 0 -83.5 26 q-30.5 26 -30.5 72 q0 36 16 62.5 q16 26.5 48 62.5 q27 29 40.5 50 q13.5 21 13.5 46 q0 22 -11 44 l-61 131 l-124 0 l-40 -96 q-17 -42 -17 -64 q0 -25 17.5 -36 q17.5 -11 53.5 -11 q5 0 5 -6 q0 -6 -5 -6 q-14 0 -40 2 q-28 2 -52 2 q-25 0 -59 -2 q-30 -2 -49 -2 q-5 0 -5 6 q0 6 5 6 q31 0 50 9 q19 9 35 33.5 q16 24.5 38 77.5 l148 351 q2 4 6 4 q4 0 5 -4 l161 -346 q31 -68 56.5 -96.5 q25.5 -28.5 52.5 -28.5 ZM192 242 l104 0 l-55 118 l-49 -118 Z" /><glyph glyph-name="aring" unicode="å" d="M263 550 q-45 0 -72.5 23.5 q-27.5 23.5 -27.5 55.5 q0 36 34 57 q34 21 76 21 q41 0 70.5 -23.5 q29.5 -23.5 29.5 -56.5 q0 -35 -33.5 -56 q-33.5 -21 -76.5 -21 ZM253 694 q-27 0 -27 -45 q0 -33 14.5 -59.5 q14.5 -26.5 38.5 -26.5 q15 0 22 11 q7 11 7 35 q0 35 -16 60 q-16 25 -39 25 ZM557 12 q4 0 4 -6 q0 -6 -4 -6 q-20 0 -62 2 q-42 2 -60 2 q-16 0 -50 -2 q-32 -2 -45 -2 q-4 0 -4 6 q0 6 4 6 q24 0 34.5 6 q10.5 6 10.5 19 q0 14 -15 47 l-63 135 l-124 0 l-40 -96 q-17 -42 -17 -64 q0 -25 17.5 -36 q17.5 -11 53.5 -11 q5 0 5 -6 q0 -6 -5 -6 q-14 0 -40 2 q-28 2 -52 2 q-25 0 -59 -2 q-30 -2 -49 -2 q-5 0 -5 6 q0 6 5 6 q31 0 50 9 q19 9 35 33.5 q16 24.5 38 77.5 l148 351 q2 4 6 4 q4 0 5 -4 l161 -346 q25 -54 41.5 -80 q16.5 -26 33 -35.5 q16.5 -9.5 42.5 -9.5 ZM192 242 l104 0 l-55 118 l-49 -118 Z" /><glyph glyph-name="aringacute" unicode="&#x1fb;" d="M179 663 q-3 0 -4.5 4.5 q-1.5 4.5 1.5 5.5 l133 69 q5 3 25.5 -7.5 q20.5 -10.5 37 -22.5 q16.5 -12 9.5 -13 q-53 -7 -103.5 -16.5 q-50.5 -9.5 -96.5 -19.5 l-2 0 ZM265 518 q-41 0 -66 20 q-25 20 -25 48 q0 30 31.5 48 q31.5 18 69.5 18 q41 0 70.5 -20 q29.5 -20 29.5 -48 q0 -30 -33.5 -48 q-33.5 -18 -76.5 -18 ZM257 639 q-29 0 -29 -33 q0 -29 14.5 -52 q14.5 -23 38.5 -23 q29 0 29 35 q0 31 -15 52 q-15 21 -38 21 ZM557 12 q4 0 4 -6 q0 -6 -4 -6 q-20 0 -62 2 q-42 2 -60 2 q-16 0 -50 -2 q-32 -2 -45 -2 q-4 0 -4 6 q0 6 4 6 q24 0 34.5 6 q10.5 6 10.5 19 q0 14 -15 47 l-63 135 l-124 0 l-40 -96 q-17 -42 -17 -64 q0 -25 17.5 -36 q17.5 -11 53.5 -11 q5 0 5 -6 q0 -6 -5 -6 q-14 0 -40 2 q-28 2 -52 2 q-25 0 -59 -2 q-30 -2 -49 -2 q-5 0 -5 6 q0 6 5 6 q31 0 50 9 q19 9 35 33.5 q16 24.5 38 77.5 l148 351 q2 4 6 4 q4 0 5 -4 l161 -346 q25 -54 41.5 -80 q16.5 -26 33 -35.5 q16.5 -9.5 42.5 -9.5 ZM192 242 l104 0 l-55 118 l-49 -118 Z" /><glyph glyph-name="atilde" unicode="ã" d="M145 540 q-3 0 -5.5 2.5 q-2.5 2.5 -0.5 4.5 q18 29 42.5 52 q24.5 23 52.5 23 q18 0 53 -11 q17 -5 35.5 -9 q18.5 -4 33.5 -4 q17 0 27 6 q10 6 23 21 l1 0 q3 0 5 -2.5 q2 -2.5 1 -4.5 q-29 -44 -48 -59.5 q-19 -15.5 -41 -15.5 q-17 0 -36.5 5 q-19.5 5 -23.5 6 q-41 13 -68 13 q-19 0 -27 -5.5 q-8 -5.5 -23 -21.5 l-1 0 ZM557 12 q4 0 4 -6 q0 -6 -4 -6 q-20 0 -62 2 q-42 2 -60 2 q-16 0 -50 -2 q-32 -2 -45 -2 q-4 0 -4 6 q0 6 4 6 q24 0 34.5 6 q10.5 6 10.5 19 q0 14 -15 47 l-63 135 l-124 0 l-40 -96 q-17 -42 -17 -64 q0 -25 17.5 -36 q17.5 -11 53.5 -11 q5 0 5 -6 q0 -6 -5 -6 q-14 0 -40 2 q-28 2 -52 2 q-25 0 -59 -2 q-30 -2 -49 -2 q-5 0 -5 6 q0 6 5 6 q31 0 50 9 q19 9 35 33.5 q16 24.5 38 77.5 l148 351 q2 4 6 4 q4 0 5 -4 l161 -346 q25 -54 41.5 -80 q16.5 -26 33 -35.5 q16.5 -9.5 42.5 -9.5 ZM192 242 l104 0 l-55 118 l-49 -118 Z" /><glyph glyph-name="ae" unicode="æ" d="M634 133 q1 3 6.5 3 q5.5 0 5.5 -3 q-7 -54 -7 -118 q0 -8 -3.5 -11.5 q-3.5 -3.5 -12.5 -3.5 l-360 0 q-2 0 -2 6 q0 6 2 6 q26 0 38.5 5.5 q12.5 5.5 17.5 19.5 q5 14 5 44 l0 146 l-121 0 l-76 -119 q-36 -56 -36 -74 q0 -12 12 -17 q12 -5 41 -5 q4 0 4 -6 q0 -6 -4 -6 q-15 0 -41 2 q-28 2 -52 2 q-20 0 -48 -2 q-26 -2 -39 -2 q-5 0 -5 6 q0 6 5 6 q30 0 48.5 7.5 q18.5 7.5 38 29.5 q19.5 22 50.5 69 l210 322 q-8 9 -23.5 12.5 q-15.5 3.5 -43.5 3.5 q-3 0 -3 6 q0 6 3 6 l362 0 q9 0 9 -8 q0 -20 2 -62 l1 -48 q0 -3 -5.5 -3 q-5.5 0 -6.5 3 q-35 105 -126 105 l-14 0 q-27 0 -39 -5.5 q-12 -5.5 -16 -19.5 q-4 -14 -4 -44 l0 -137 q94 1 125.5 5.5 q31.5 4.5 36.5 4.5 q7 0 7 -23 q0 -9 -2 -16.5 q-2 -7.5 -5 -7.5 q-5 0 -36.5 7 q-31.5 7 -125.5 8 l0 -142 q0 -30 4 -44 q4 -14 16 -19.5 q12 -5.5 39 -5.5 l22 0 q47 0 86.5 32 q39.5 32 59.5 85 ZM324 249 l0 138 q0 18 -2 26 l-105 -164 l107 0 Z" /><glyph glyph-name="aeacute" unicode="&#x1fd;" d="M346 521 q-4 0 -5 4.5 q-1 4.5 2 6.5 q32 19 88 63 q46 35 50 38 q5 4 32 -4 q27 -8 47.5 -18 q20.5 -10 9.5 -12 q-62 -15 -113.5 -33.5 q-51.5 -18.5 -108.5 -43.5 l-2 -1 ZM634 133 q1 3 6.5 3 q5.5 0 5.5 -3 q-7 -54 -7 -118 q0 -8 -3.5 -11.5 q-3.5 -3.5 -12.5 -3.5 l-360 0 q-2 0 -2 6 q0 6 2 6 q26 0 38.5 5.5 q12.5 5.5 17.5 19.5 q5 14 5 44 l0 146 l-121 0 l-76 -119 q-36 -56 -36 -74 q0 -12 12 -17 q12 -5 41 -5 q4 0 4 -6 q0 -6 -4 -6 q-15 0 -41 2 q-28 2 -52 2 q-20 0 -48 -2 q-26 -2 -39 -2 q-5 0 -5 6 q0 6 5 6 q30 0 48.5 7.5 q18.5 7.5 38 29.5 q19.5 22 50.5 69 l210 322 q-8 9 -23.5 12.5 q-15.5 3.5 -43.5 3.5 q-3 0 -3 6 q0 6 3 6 l362 0 q9 0 9 -8 q0 -20 2 -62 l1 -48 q0 -3 -5.5 -3 q-5.5 0 -6.5 3 q-35 105 -126 105 l-14 0 q-27 0 -39 -5.5 q-12 -5.5 -16 -19.5 q-4 -14 -4 -44 l0 -137 q94 1 125.5 5.5 q31.5 4.5 36.5 4.5 q7 0 7 -23 q0 -9 -2 -16.5 q-2 -7.5 -5 -7.5 q-5 0 -36.5 7 q-31.5 7 -125.5 8 l0 -142 q0 -30 4 -44 q4 -14 16 -19.5 q12 -5.5 39 -5.5 l22 0 q47 0 86.5 32 q39.5 32 59.5 85 ZM324 249 l0 138 q0 18 -2 26 l-105 -164 l107 0 Z" /><glyph glyph-name="uni01E3" unicode="&#x1e3;" d="M315 559 q-4 0 -6 5.5 q-2 5.5 -2 11.5 q0 7 2 12 q2 5 6 5 l251 0 q4 0 6.5 -5 q2.5 -5 2.5 -12 q0 -7 -2.5 -12 q-2.5 -5 -6.5 -5 l-251 0 ZM634 133 q1 3 6.5 3 q5.5 0 5.5 -3 q-7 -54 -7 -118 q0 -8 -3.5 -11.5 q-3.5 -3.5 -12.5 -3.5 l-360 0 q-2 0 -2 6 q0 6 2 6 q26 0 38.5 5.5 q12.5 5.5 17.5 19.5 q5 14 5 44 l0 146 l-121 0 l-76 -119 q-36 -56 -36 -74 q0 -12 12 -17 q12 -5 41 -5 q4 0 4 -6 q0 -6 -4 -6 q-15 0 -41 2 q-28 2 -52 2 q-20 0 -48 -2 q-26 -2 -39 -2 q-5 0 -5 6 q0 6 5 6 q30 0 48.5 7.5 q18.5 7.5 38 29.5 q19.5 22 50.5 69 l210 322 q-8 9 -23.5 12.5 q-15.5 3.5 -43.5 3.5 q-3 0 -3 6 q0 6 3 6 l362 0 q9 0 9 -8 q0 -20 2 -62 l1 -48 q0 -3 -5.5 -3 q-5.5 0 -6.5 3 q-35 105 -126 105 l-14 0 q-27 0 -39 -5.5 q-12 -5.5 -16 -19.5 q-4 -14 -4 -44 l0 -137 q94 1 125.5 5.5 q31.5 4.5 36.5 4.5 q7 0 7 -23 q0 -9 -2 -16.5 q-2 -7.5 -5 -7.5 q-5 0 -36.5 7 q-31.5 7 -125.5 8 l0 -142 q0 -30 4 -44 q4 -14 16 -19.5 q12 -5.5 39 -5.5 l22 0 q47 0 86.5 32 q39.5 32 59.5 85 ZM324 249 l0 138 q0 18 -2 26 l-105 -164 l107 0 Z" /><glyph glyph-name="b" unicode="b" d="M319 259 q76 -4 116.5 -33.5 q40.5 -29.5 40.5 -83.5 q0 -43 -24.5 -76 q-24.5 -33 -68.5 -51.5 q-44 -18.5 -100 -18.5 q-27 0 -63 3 q-14 1 -34 2 q-20 1 -44 1 l-61 -1 q-18 -1 -49 -1 q-2 0 -2 6 q0 6 2 6 q31 0 45 5 q14 5 19 19.5 q5 14.5 5 44.5 l0 306 q0 30 -5 44 q-5 14 -19 19.5 q-14 5.5 -44 5.5 q-2 0 -2 6 q0 6 2 6 l48 -1 q40 -2 61 -2 q29 0 61 3 q11 1 31.5 2 q20.5 1 35.5 1 q73 0 114.5 -25.5 q41.5 -25.5 41.5 -72.5 q0 -38 -28 -67.5 q-28 -29.5 -79 -46.5 ZM245 458 q-24 0 -36 -5.5 q-12 -5.5 -17 -21 q-5 -15.5 -5 -46.5 l0 -125 q17 -1 46 -1 q38 0 60 7 q22 7 33.5 26.5 q11.5 19.5 11.5 57.5 q0 108 -93 108 ZM265 12 q119 0 119 106 q0 123 -158 123 q-26 0 -39 -1 l0 -159 q0 -38 16 -53.5 q16 -15.5 62 -15.5 Z" /><glyph glyph-name="c" unicode="c" d="M309 480 q37 0 80.5 -8 q43.5 -8 71.5 -21 q7 -3 9 -6.5 q2 -3.5 2 -10.5 l7 -103 q0 -3 -5.5 -4 q-5.5 -1 -6.5 3 q-31 66 -73.5 98 q-42.5 32 -99.5 32 q-74 0 -116.5 -58 q-42.5 -58 -42.5 -151 q0 -62 19.5 -118 q19.5 -56 61 -91 q41.5 -35 102.5 -35 q55 0 92.5 32 q37.5 32 66.5 101 q1 4 6 3 q5 -1 5 -4 l-10 -106 q-1 -8 -3 -11 q-2 -3 -11 -7 q-77 -27 -160 -27 q-95 0 -156 38 q-61 38 -88.5 95 q-27.5 57 -27.5 115 q0 68 36.5 124 q36.5 56 100 88 q63.5 32 140.5 32 Z" /><glyph glyph-name="cacute" unicode="&#x107;" d="M199 521 q-4 0 -5 4.5 q-1 4.5 2 6.5 q32 19 88 63 q46 35 50 38 q5 4 32 -4 q27 -8 47.5 -18 q20.5 -10 9.5 -12 q-62 -15 -113.5 -33.5 q-51.5 -18.5 -108.5 -43.5 l-2 -1 ZM309 480 q37 0 80.5 -8 q43.5 -8 71.5 -21 q7 -3 9 -6.5 q2 -3.5 2 -10.5 l7 -103 q0 -3 -5.5 -4 q-5.5 -1 -6.5 3 q-31 66 -73.5 98 q-42.5 32 -99.5 32 q-74 0 -116.5 -58 q-42.5 -58 -42.5 -151 q0 -62 19.5 -118 q19.5 -56 61 -91 q41.5 -35 102.5 -35 q55 0 92.5 32 q37.5 32 66.5 101 q1 4 6 3 q5 -1 5 -4 l-10 -106 q-1 -8 -3 -11 q-2 -3 -11 -7 q-77 -27 -160 -27 q-95 0 -156 38 q-61 38 -88.5 95 q-27.5 57 -27.5 115 q0 68 36.5 124 q36.5 56 100 88 q63.5 32 140.5 32 Z" /><glyph glyph-name="ccaron" unicode="&#x10d;" d="M179 640 q-1 0 -1 0.5 q0 0.5 0 0.5 q0 2 2.5 4.5 q2.5 2.5 4.5 1.5 l109 -46 l108 46 l1 0 q3 0 4.5 -2.5 q1.5 -2.5 -0.5 -4.5 l-102 -110 q-4 -4 -11 -4 q-8 0 -12 4 l-103 110 ZM309 480 q37 0 80.5 -8 q43.5 -8 71.5 -21 q7 -3 9 -6.5 q2 -3.5 2 -10.5 l7 -103 q0 -3 -5.5 -4 q-5.5 -1 -6.5 3 q-31 66 -73.5 98 q-42.5 32 -99.5 32 q-74 0 -116.5 -58 q-42.5 -58 -42.5 -151 q0 -62 19.5 -118 q19.5 -56 61 -91 q41.5 -35 102.5 -35 q55 0 92.5 32 q37.5 32 66.5 101 q1 4 6 3 q5 -1 5 -4 l-10 -106 q-1 -8 -3 -11 q-2 -3 -11 -7 q-77 -27 -160 -27 q-95 0 -156 38 q-61 38 -88.5 95 q-27.5 57 -27.5 115 q0 68 36.5 124 q36.5 56 100 88 q63.5 32 140.5 32 Z" /><glyph glyph-name="ccedilla" unicode="ç" d="M477 140 q1 4 6 3 q5 -1 5 -4 l-10 -106 q-1 -8 -3 -11 q-2 -3 -11 -7 q-78 -27 -156 -27 q-4 -15 -4 -29 q0 -18 9.5 -30 q9.5 -12 31.5 -24 q26 -16 40.5 -33.5 q14.5 -17.5 14.5 -44.5 q0 -40 -29 -71 q-29 -31 -87 -31 q-71 0 -71 45 q0 14 10.5 25 q10.5 11 25.5 11 q17 0 24 -7.5 q7 -7.5 13 -21.5 q6 -15 12.5 -22 q6.5 -7 22.5 -7 q26 0 26 28 q0 26 -18.5 47 q-18.5 21 -65.5 47 q-5 2 -7.5 5 q-2.5 3 -2.5 7 q0 6 4 17 q16 39 34 89 q-91 3 -149 41.5 q-58 38.5 -84 94 q-26 55.5 -26 112.5 q0 68 36.5 124 q36.5 56 100 88 q63.5 32 140.5 32 q37 0 80.5 -8 q43.5 -8 71.5 -21 q7 -3 9 -6.5 q2 -3.5 2 -10.5 l7 -103 q0 -3 -5.5 -4 q-5.5 -1 -6.5 3 q-31 66 -73.5 98 q-42.5 32 -99.5 32 q-74 0 -116.5 -58 q-42.5 -58 -42.5 -151 q0 -62 19.5 -118 q19.5 -56 61 -91 q41.5 -35 102.5 -35 q55 0 92.5 32 q37.5 32 66.5 101 Z" /><glyph glyph-name="ccircumflex" unicode="&#x109;" d="M283 643 q5 5 12 5 q6 0 11 -5 l102 -110 q1 0 1 -2 q0 -2 -2.5 -4 q-2.5 -2 -3.5 -1 l-108 45 l-109 -45 q-2 -1 -5 2.5 q-3 3.5 -1 4.5 l103 110 ZM309 480 q37 0 80.5 -8 q43.5 -8 71.5 -21 q7 -3 9 -6.5 q2 -3.5 2 -10.5 l7 -103 q0 -3 -5.5 -4 q-5.5 -1 -6.5 3 q-31 66 -73.5 98 q-42.5 32 -99.5 32 q-74 0 -116.5 -58 q-42.5 -58 -42.5 -151 q0 -62 19.5 -118 q19.5 -56 61 -91 q41.5 -35 102.5 -35 q55 0 92.5 32 q37.5 32 66.5 101 q1 4 6 3 q5 -1 5 -4 l-10 -106 q-1 -8 -3 -11 q-2 -3 -11 -7 q-77 -27 -160 -27 q-95 0 -156 38 q-61 38 -88.5 95 q-27.5 57 -27.5 115 q0 68 36.5 124 q36.5 56 100 88 q63.5 32 140.5 32 Z" /><glyph glyph-name="cdotaccent" unicode="&#x10b;" d="M294 548 q-26 0 -40.5 14.5 q-14.5 14.5 -14.5 40.5 q0 24 14.5 38 q14.5 14 40.5 14 q25 0 39 -14 q14 -14 14 -38 q0 -26 -14 -40.5 q-14 -14.5 -39 -14.5 ZM309 480 q37 0 80.5 -8 q43.5 -8 71.5 -21 q7 -3 9 -6.5 q2 -3.5 2 -10.5 l7 -103 q0 -3 -5.5 -4 q-5.5 -1 -6.5 3 q-31 66 -73.5 98 q-42.5 32 -99.5 32 q-74 0 -116.5 -58 q-42.5 -58 -42.5 -151 q0 -62 19.5 -118 q19.5 -56 61 -91 q41.5 -35 102.5 -35 q55 0 92.5 32 q37.5 32 66.5 101 q1 4 6 3 q5 -1 5 -4 l-10 -106 q-1 -8 -3 -11 q-2 -3 -11 -7 q-77 -27 -160 -27 q-95 0 -156 38 q-61 38 -88.5 95 q-27.5 57 -27.5 115 q0 68 36.5 124 q36.5 56 100 88 q63.5 32 140.5 32 Z" /><glyph glyph-name="d" unicode="d" d="M277 -4 q-28 0 -63 3 q-12 1 -30 2 q-18 1 -41 1 l-62 -1 q-18 -1 -49 -1 q-2 0 -2 6 q0 6 2 6 q31 0 45 5 q14 5 19 19.5 q5 14.5 5 44.5 l0 306 q0 30 -5 44 q-5 14 -19 19.5 q-14 5.5 -44 5.5 q-2 0 -2 6 q0 6 2 6 l48 -1 q40 -2 62 -2 q30 0 62 3 q40 2 60 2 q84 0 145 -30 q61 -30 93 -83 q32 -53 32 -120 q0 -69 -33 -124 q-33 -55 -91.5 -86 q-58.5 -31 -133.5 -31 ZM265 15 q80 0 125 54.5 q45 54.5 45 156.5 q0 98 -44.5 162 q-44.5 64 -133.5 64 q-38 0 -54 -14.5 q-16 -14.5 -16 -52.5 l0 -293 q0 -42 15.5 -59.5 q15.5 -17.5 62.5 -17.5 Z" /><glyph glyph-name="eth" unicode="ð" d="M265 470 q84 0 145 -30 q61 -30 93 -83 q32 -53 32 -120 q0 -69 -33 -124 q-33 -55 -91.5 -86 q-58.5 -31 -133.5 -31 q-28 0 -63 3 q-12 1 -30 2 q-18 1 -41 1 l-62 -1 q-18 -1 -49 -1 q-2 0 -2 6 q0 6 2 6 q31 0 45 5 q14 5 19 19.5 q5 14.5 5 44.5 l0 143 l-44 0 q-4 0 -4 12 q0 12 4 12 l44 0 l0 139 q0 30 -5 44 q-5 14 -19 19.5 q-14 5.5 -44 5.5 q-2 0 -2 6 q0 6 2 6 l48 -1 q40 -2 62 -2 q30 0 62 3 q40 2 60 2 ZM265 15 q80 0 125 54.5 q45 54.5 45 156.5 q0 98 -44.5 162 q-44.5 64 -133.5 64 q-38 0 -54 -14.5 q-16 -14.5 -16 -52.5 l0 -137 l110 0 q2 0 3.5 -4 q1.5 -4 1.5 -8 q0 -4 -1.5 -8 q-1.5 -4 -3.5 -4 l-110 0 l0 -132 q0 -42 15.5 -59.5 q15.5 -17.5 62.5 -17.5 Z" /></font>
</defs>
</svg>
